<svg width="36" height="45" viewBox="0 0 36 45" fill="none" xmlns="http://www.w3.org/2000/svg">
<g clip-path="url(#clip0)">
<path d="M17.7278 21.6767C20.5833 21.6767 23.056 20.6086 25.0763 18.5013C27.0967 16.3943 28.1208 13.8163 28.1208 10.838C28.1208 7.86072 27.0967 5.28236 25.076 3.17471C23.0553 1.06808 20.583 0 17.7278 0C14.8719 0 12.3999 1.06808 10.3795 3.17505C8.35921 5.28202 7.33472 7.86037 7.33472 10.838C7.33472 13.8163 8.35921 16.3947 10.3799 18.5017C12.4005 20.6083 14.8729 21.6767 17.7278 21.6767Z" fill="#3E454F"/>
<path d="M35.9127 34.6028C35.8544 33.7259 35.7366 32.7694 35.5631 31.7594C35.3879 30.7418 35.1624 29.7798 34.8925 28.9005C34.6136 27.9918 34.2344 27.0943 33.7656 26.2343C33.279 25.3417 32.7075 24.5644 32.0662 23.9248C31.3957 23.2556 30.5746 22.7177 29.6252 22.3252C28.6791 21.9349 27.6305 21.7371 26.5089 21.7371C26.0685 21.7371 25.6425 21.9256 24.8198 22.4842C24.3135 22.8285 23.7212 23.2268 23.0602 23.6673C22.4949 24.0429 21.7292 24.3948 20.7834 24.7134C19.8606 25.0248 18.9237 25.1827 17.999 25.1827C17.0742 25.1827 16.1376 25.0248 15.2139 24.7134C14.2691 24.3951 13.5033 24.0432 12.9388 23.6676C12.284 23.2313 11.6914 22.833 11.1775 22.4839C10.3558 21.9253 9.92949 21.7368 9.48902 21.7368C8.36708 21.7368 7.31889 21.9349 6.37309 22.3256C5.42432 22.7173 4.60295 23.2553 3.9317 23.9251C3.29074 24.5651 2.71891 25.342 2.233 26.2343C1.76454 27.0943 1.3853 27.9914 1.10613 28.9009C0.836511 29.7801 0.611005 30.7418 0.435868 31.7594C0.262377 32.768 0.144521 33.7249 0.0862518 34.6038C0.0289701 35.4648 0 36.3585 0 37.2611C0 39.6101 0.716022 41.5118 2.12798 42.9142C3.5225 44.2982 5.36769 45.0002 7.61156 45.0002H28.3884C30.6322 45.0002 32.4768 44.2985 33.8716 42.9142C35.2839 41.5128 35.9999 39.6108 35.9999 37.2608C35.9996 36.354 35.9703 35.4597 35.9127 34.6028Z" fill="#3E454F"/>
</g>
<defs>
<clipPath id="clip0">
<rect width="36" height="45" fill="white"/>
</clipPath>
</defs>
</svg>
