<svg width="667" height="667" viewBox="0 0 667 667" fill="none" xmlns="http://www.w3.org/2000/svg">
<g filter="url(#filter0_d)">
<path d="M540.353 396.032H72.8079V70.8854H540.353V396.032" fill="#86D393"/>
<path d="M540.353 396.032H72.8079V70.8854H540.353V396.032Z" stroke="#040606" stroke-width="0.666667" stroke-miterlimit="10"/>
<path d="M532.659 408.611H80.5027V58.3079H532.659V408.611Z" fill="white"/>
<path d="M532.659 408.611H80.5027V58.3079H532.659V408.611Z" stroke="#040606" stroke-width="0.666667" stroke-miterlimit="10"/>
<path d="M329.083 309.391C325.712 322.405 318.393 334.491 314.647 347.599C310.617 361.696 305.991 376.524 307.175 391.367C308.425 407.056 318.741 414.471 333.545 417.289C348.12 420.067 362.923 421.648 377.756 422.015C390.313 422.325 404.519 421.008 412.483 411.295C414.501 408.835 416.007 405.872 416.327 402.707C416.921 396.833 413.336 391.193 408.673 387.575C400.137 380.948 394.781 383.735 385.42 384.065C373.763 384.477 361.944 382.267 350.485 380.415C348.109 380.032 345.417 379.437 344.24 377.34C343.6 376.2 343.553 374.833 343.552 373.527C343.545 363.015 342.16 352.084 343.396 341.649C344.033 336.28 344.671 330.909 345.307 325.54C346.177 318.196 347.032 310.624 345.009 303.511C342.987 296.397 337.336 289.784 329.985 288.983C327.633 288.725 325.1 289.129 323.28 290.64C320.432 293.007 320.157 297.468 321.64 300.86C323.032 304.048 325.785 307.881 329.221 308.852C329.176 309.031 329.129 309.211 329.083 309.391" fill="white"/>
<path d="M329.083 309.391C325.712 322.405 318.393 334.491 314.647 347.599C310.617 361.696 305.991 376.524 307.175 391.367C308.425 407.056 318.741 414.471 333.545 417.289C348.12 420.067 362.923 421.648 377.756 422.015C390.313 422.325 404.519 421.008 412.483 411.295C414.501 408.835 416.007 405.872 416.327 402.707C416.921 396.833 413.336 391.193 408.673 387.575C400.137 380.948 394.781 383.735 385.42 384.065C373.763 384.477 361.944 382.267 350.485 380.415C348.109 380.032 345.417 379.437 344.24 377.34C343.6 376.2 343.553 374.833 343.552 373.527C343.545 363.015 342.16 352.084 343.396 341.649C344.033 336.28 344.671 330.909 345.307 325.54C346.177 318.196 347.032 310.624 345.009 303.511C342.987 296.397 337.336 289.784 329.985 288.983C327.633 288.725 325.1 289.129 323.28 290.64C320.432 293.007 320.157 297.468 321.64 300.86C323.032 304.048 325.785 307.881 329.221 308.852C329.176 309.031 329.129 309.211 329.083 309.391V309.391Z" stroke="#171717" stroke-width="0.666667" stroke-miterlimit="10"/>
<path d="M564.476 581.417H308.98" stroke="#171717" stroke-width="0.666667" stroke-miterlimit="10"/>
<path d="M278.708 573.264H265.828" stroke="#171717" stroke-width="0.666667" stroke-miterlimit="10"/>
<path d="M577.9 573.264C482.389 573.333 386.389 573.333 291.001 573.264" stroke="#171717" stroke-width="0.666667" stroke-miterlimit="10"/>
<path d="M583.871 581.417H573.752" stroke="#171717" stroke-width="0.666667" stroke-miterlimit="10"/>
<path d="M412.343 395.188C412.221 394.536 412.117 393.883 412.024 393.232C411.076 386.727 410.188 378.589 417.268 376.535C421.939 375.18 430.117 375.781 433.232 371.439C434.232 370.045 434.516 368.28 434.771 366.583C435.137 364.161 435.503 361.74 435.868 359.317C422.293 361.648 416.632 349.497 414.917 338.129C413.169 326.532 413.533 312.057 423.749 304.288C430.261 299.337 439.381 298.153 447.032 301.047C454.684 303.94 460.681 310.736 462.847 318.624C464.448 324.459 462.548 326.585 462.201 332.607C461.809 339.425 462.419 351.212 462.039 358.031C461.784 362.617 462.175 367.963 464.661 371.967C465.792 373.787 467.193 375.339 469.123 376.332C470.52 377.051 474.173 376.663 475.043 377.62C480.013 383.081 484.661 388.868 490.063 393.887C477.327 399.227 464.007 403.052 450.397 405.387C440.848 407.025 421.567 412.675 414.977 402.517C413.553 400.323 412.82 397.775 412.343 395.188Z" fill="white"/>
<path d="M412.343 395.188C412.221 394.536 412.117 393.883 412.024 393.232C411.076 386.727 410.188 378.589 417.268 376.535C421.939 375.18 430.117 375.781 433.232 371.439C434.232 370.045 434.516 368.28 434.771 366.583C435.137 364.161 435.503 361.74 435.868 359.317C422.293 361.648 416.632 349.497 414.917 338.129C413.169 326.532 413.533 312.057 423.749 304.288C430.261 299.337 439.381 298.153 447.032 301.047C454.684 303.94 460.681 310.736 462.847 318.624C464.448 324.459 462.548 326.585 462.201 332.607C461.809 339.425 462.419 351.212 462.039 358.031C461.784 362.617 462.175 367.963 464.661 371.967C465.792 373.787 467.193 375.339 469.123 376.332C470.52 377.051 474.173 376.663 475.043 377.62C480.013 383.081 484.661 388.868 490.063 393.887C477.327 399.227 464.007 403.052 450.397 405.387C440.848 407.025 421.567 412.675 414.977 402.517C413.553 400.323 412.82 397.775 412.343 395.188Z" stroke="#040606" stroke-width="0.666667" stroke-miterlimit="10"/>
<path d="M525.181 427.327C523.819 410.497 516.284 393.276 500.959 384.86C495.312 381.76 489.127 379.913 482.889 378.429C479.683 377.667 476.453 377 473.239 376.272C469.633 375.455 468.908 376.305 466.464 379.019C461.401 384.637 453.395 387.129 445.872 386.352C441.104 385.859 436.533 384.144 432.443 381.679C428.007 379.004 426.459 375.713 420.845 376.029C403.844 376.989 386.875 378.527 369.979 380.637C371.219 395.364 372.217 416.255 375.288 430.712C384.231 429.815 404.021 427.845 404 430.551C403.968 434.703 404.057 438.856 404.199 443.005C404.475 451.105 404.981 459.195 405.308 467.292C405.657 475.889 406.293 484.473 407.061 493.044C407.933 502.797 409.432 512.38 411.608 521.867C433.713 529.228 458.937 527.433 482.641 525.297C489.401 524.688 496.415 523.999 502.259 520.551C518.704 510.849 519.405 482.181 521.752 465.493C523.569 452.587 526.248 440.508 525.181 427.327Z" fill="#E981C6"/>
<path d="M525.181 427.327C523.819 410.497 516.284 393.276 500.959 384.86C495.312 381.76 489.127 379.913 482.889 378.429C479.683 377.667 476.453 377 473.239 376.272C469.633 375.455 468.908 376.305 466.464 379.019C461.401 384.637 453.395 387.129 445.872 386.352C441.104 385.859 436.533 384.144 432.443 381.679C428.007 379.004 426.459 375.713 420.845 376.029C403.844 376.989 386.875 378.527 369.979 380.637C371.219 395.364 372.217 416.255 375.288 430.712C384.231 429.815 404.021 427.845 404 430.551C403.968 434.703 404.057 438.856 404.199 443.005C404.475 451.105 404.981 459.195 405.308 467.292C405.657 475.889 406.293 484.473 407.061 493.044C407.933 502.797 409.432 512.38 411.608 521.867C433.713 529.228 458.937 527.433 482.641 525.297C489.401 524.688 496.415 523.999 502.259 520.551C518.704 510.849 519.405 482.181 521.752 465.493C523.569 452.587 526.248 440.508 525.181 427.327Z" stroke="#040606" stroke-width="0.666667" stroke-miterlimit="10"/>
<path d="M355.611 594.917C355.899 594.495 356.2 594.083 356.515 593.681C362.24 586.338 372.131 581.552 380.211 577.237C389.127 572.477 399.124 568.561 409.407 569.155C418.679 569.691 431.557 575.981 433.477 585.798C433.693 586.905 433.788 588.091 433.344 589.129C432.24 591.708 428.755 591.94 425.949 591.965C413.977 592.072 402.459 595.753 391.289 599.731C385.533 601.779 379.815 603.934 373.996 605.802C368.795 607.469 356.159 614.779 352.517 607.191C350.527 603.044 353.304 598.308 355.611 594.917Z" fill="#040606"/>
<path d="M303.697 496.283C308.535 490.925 315.424 487.457 322.492 486.135C332.407 484.277 342.649 486.077 352.375 488.755C372.981 494.428 392.304 503.995 413.02 509.316C422.203 511.677 428.193 510.801 437.171 510.077C448.552 509.159 460.237 510.28 471.691 509.603C482.395 508.971 493.979 508.14 503.984 511.089C505.304 510.221 506.623 509.352 507.935 508.491C519.128 501.147 530.277 493.835 544.313 496.509C555.349 498.612 565.991 504.207 572.827 513.292C580.089 522.941 577.909 535.543 571.403 545.165C566.015 553.131 558.053 558.993 549.805 563.94C521.36 581.005 490.288 591.464 456.719 589.133C452.225 588.82 446.927 588.771 443.692 592.379C442.475 593.736 441.769 601.171 439.068 600.85C435.745 600.457 429.341 599.525 426.2 598.391C409.239 592.262 392.275 586.136 375.312 580.008C360.409 574.625 345.397 569.189 331.819 561.021C320.076 553.956 309.44 544.4 303.204 532.019C298.708 523.092 295.019 511.332 299.712 502.06C300.784 499.943 302.133 498.015 303.697 496.283" fill="#526ABC"/>
<path d="M303.697 496.283C308.535 490.925 315.424 487.457 322.492 486.135C332.407 484.277 342.649 486.077 352.375 488.755C372.981 494.428 392.304 503.995 413.02 509.316C422.203 511.677 428.193 510.801 437.171 510.077C448.552 509.159 460.237 510.28 471.691 509.603C482.395 508.971 493.979 508.14 503.984 511.089C505.304 510.221 506.623 509.352 507.935 508.491C519.128 501.147 530.277 493.835 544.313 496.509C555.349 498.612 565.991 504.207 572.827 513.292C580.089 522.941 577.909 535.543 571.403 545.165C566.015 553.131 558.053 558.993 549.805 563.94C521.36 581.005 490.288 591.464 456.719 589.133C452.225 588.82 446.927 588.771 443.692 592.379C442.475 593.736 441.769 601.171 439.068 600.85C435.745 600.457 429.341 599.525 426.2 598.391C409.239 592.262 392.275 586.136 375.312 580.008C360.409 574.625 345.397 569.189 331.819 561.021C320.076 553.956 309.44 544.4 303.204 532.019C298.708 523.092 295.019 511.332 299.712 502.06C300.784 499.943 302.133 498.015 303.697 496.283V496.283Z" stroke="#040606" stroke-width="0.666667" stroke-miterlimit="10"/>
<path d="M514.236 521.936C504.7 526.703 494.715 529.751 485.581 535.396C476.448 541.04 467.811 547.616 457.895 551.883C451.463 554.649 442.127 555.729 435.959 558.795" stroke="#040606" stroke-width="0.666667" stroke-miterlimit="10"/>
<path d="M443.939 591.025C444.832 588.964 445.724 586.901 446.616 584.838C448.387 580.747 450.157 576.653 451.928 572.561C455.916 574.56 459.753 576.161 464.375 575.781C466.829 575.579 469.244 574.879 471.707 574.92C476.603 575.004 478.719 578.816 480.756 582.679C484.36 589.507 490.84 594.481 496.1 599.962C502.691 606.829 506.509 613.288 505.449 623.109C505.076 626.573 503.677 630.545 500.324 631.491C497.233 632.361 494.184 630.196 491.697 628.162C484.959 622.646 478.217 617.133 471.477 611.617C468.404 609.101 465.279 605.75 461.781 603.861C458.908 602.309 455.491 601.336 452.763 599.519C451.027 598.785 449.245 598.152 447.436 597.62C446.267 597.277 443.236 597.159 442.393 596.337C441.351 595.321 443.431 592.2 443.904 591.108C443.915 591.081 443.927 591.053 443.939 591.025Z" fill="#040606"/>
<path d="M426.471 526.419C425.244 525.797 424.307 524.695 423.577 522.6C422.355 519.099 423.072 514.949 425.041 511.861C427.583 507.879 432.263 504.804 436.872 503.836C441.631 502.836 446.247 501.137 451.091 500.156C454.577 499.451 458.005 498.491 461.431 497.531C468.671 495.504 475.909 493.475 483.148 491.447C484.909 490.955 486.756 490.575 488.475 489.955C490.112 489.364 490.031 489.523 490.172 487.944C490.328 486.18 489.719 484.276 489.595 482.511C489.416 479.936 489.245 477.363 489.08 474.789C488.759 469.784 488.461 464.776 488.188 459.768C487.652 449.976 488.199 440.396 489.936 430.712C492.851 414.465 512.297 405.136 523.291 420.645C530.951 431.455 532.52 446.111 533.056 458.972C533.645 473.095 532.824 487.267 527.399 500.528C513.867 533.593 460.724 530.107 431.897 527.421C429.627 527.211 427.86 527.123 426.471 526.419" fill="white"/>
<path d="M426.471 526.419C425.244 525.797 424.307 524.695 423.577 522.6C422.355 519.099 423.072 514.949 425.041 511.861C427.583 507.879 432.263 504.804 436.872 503.836C441.631 502.836 446.247 501.137 451.091 500.156C454.577 499.451 458.005 498.491 461.431 497.531C468.671 495.504 475.909 493.475 483.148 491.447C484.909 490.955 486.756 490.575 488.475 489.955C490.112 489.364 490.031 489.523 490.172 487.944C490.328 486.18 489.719 484.276 489.595 482.511C489.416 479.936 489.245 477.363 489.08 474.789C488.759 469.784 488.461 464.776 488.188 459.768C487.652 449.976 488.199 440.396 489.936 430.712C492.851 414.465 512.297 405.136 523.291 420.645C530.951 431.455 532.52 446.111 533.056 458.972C533.645 473.095 532.824 487.267 527.399 500.528C513.867 533.593 460.724 530.107 431.897 527.421C429.627 527.211 427.86 527.123 426.471 526.419V526.419Z" stroke="#040606" stroke-width="0.666667" stroke-miterlimit="10"/>
<path d="M435.059 295.18C423.064 296.276 412.487 306.979 409.469 318.276C410.184 318.571 410.899 318.865 411.613 319.161C412.6 316.892 413.852 314.737 415.336 312.757C415.267 314.977 414.909 317.187 414.273 319.315C415.663 319.789 417.96 319.261 419.463 319.34C421.699 319.457 423.931 319.644 426.156 319.9C430.327 320.379 434.471 321.099 438.559 322.057C438.932 322.145 439.353 322.229 439.681 322.028C439.889 321.901 440.021 321.68 440.141 321.468C441.185 319.631 442.236 314.732 444.615 316.204C445.731 316.893 446.161 321.989 446.127 323.297C446.035 326.557 445.156 328.377 448.359 330.48C450.895 332.144 453.156 334.137 454.161 337.02C455.229 340.081 455.713 343.435 457.613 346.157C458.099 346.853 458.655 347.497 459.211 348.139C460.231 349.32 461.251 350.501 462.272 351.683C462.9 351.209 463.207 350.433 463.48 349.697C466.711 341.009 475.627 319.987 466.321 312.563C470.668 316.031 477.908 314.88 480.965 310.235C484.023 305.589 482.213 298.485 477.308 295.865C482.313 293.352 483.753 285.752 480.017 281.581C476.28 277.411 468.569 278.011 465.523 282.709C461.789 277.904 454.485 275.976 449.197 278.989C442.192 282.98 443.304 290.561 447.189 295.888C443.121 295.348 439.196 294.803 435.059 295.18" fill="#040606"/>
<path d="M349.908 505.411C369.004 514.045 384.372 529.048 401.759 540.751C417.996 551.68 435.973 559.708 453.851 567.681C452.916 569.731 452.536 571.751 451.603 573.802" stroke="#040606" stroke-width="0.666667" stroke-miterlimit="10"/>
<path d="M431.491 342.404C430.349 346.128 425.797 348.389 422.139 347.051" stroke="#171717" stroke-width="0.666667" stroke-miterlimit="10"/>
<path d="M450.759 341.32C457.799 343.081 462.181 335.664 460.041 330.827C457.064 324.093 447.621 325.211 445.895 332.288" fill="white"/>
<path d="M450.759 341.32C457.799 343.081 462.181 335.664 460.041 330.827C457.064 324.093 447.621 325.211 445.895 332.288" stroke="#040606" stroke-width="0.666667" stroke-miterlimit="10"/>
<path d="M454.361 330.256C453.037 329.892 451.511 330.111 450.401 330.824C449.293 331.537 448.637 332.724 448.697 333.9" stroke="#171717" stroke-width="0.666667" stroke-miterlimit="10"/>
<path d="M484.019 416.336C485.929 423.953 486.343 441.579 486.415 454.979C491.407 454.541 496.369 453.839 501.288 452.867C511.987 450.755 522.372 447.46 532.457 443.368C529.476 424.264 523.949 405.965 510.315 392.193" fill="#E981C6"/>
<path d="M484.019 416.336C485.929 423.953 486.343 441.579 486.415 454.979C491.407 454.541 496.369 453.839 501.288 452.867C511.987 450.755 522.372 447.46 532.457 443.368C529.476 424.264 523.949 405.965 510.315 392.193" stroke="#040606" stroke-width="0.666667" stroke-miterlimit="10"/>
<path d="M320.421 373.879L133.065 357.432L144.156 231.083L331.512 247.529L320.421 373.879" fill="white"/>
<path d="M320.421 373.879L133.065 357.432L144.156 231.083L331.512 247.529L320.421 373.879Z" stroke="#040606" stroke-width="0.666667" stroke-miterlimit="10"/>
<path d="M309.412 364.759L145.495 350.371L155.165 240.203L319.083 254.592L309.412 364.759" fill="white"/>
<path d="M309.412 364.759L145.495 350.371L155.165 240.203L319.083 254.592L309.412 364.759Z" stroke="#040606" stroke-width="0.666667" stroke-miterlimit="10"/>
<path d="M271.721 278.875C271.107 285.869 264.939 291.041 257.944 290.428C250.949 289.813 245.777 283.645 246.391 276.651C247.004 269.656 253.172 264.484 260.167 265.097C267.163 265.712 272.335 271.88 271.721 278.875Z" fill="#E981C6"/>
<path d="M271.721 278.875C271.107 285.869 264.939 291.041 257.944 290.428C250.949 289.813 245.777 283.645 246.391 276.651C247.004 269.656 253.172 264.484 260.167 265.097C267.163 265.712 272.335 271.88 271.721 278.875Z" stroke="#040606" stroke-width="0.666667" stroke-miterlimit="10"/>
<path d="M244.912 338.257C237.524 331.951 232.779 323.62 226.987 316.085C212.779 297.599 189.563 282.983 164.877 284.087C144.629 284.992 125.757 297.176 118.399 314.092C111.043 331.008 115.58 351.785 129.573 365.259C144.972 380.085 168.768 385.008 191.092 385.855C208.231 386.505 225.861 385.1 241.147 378.36C251.355 373.86 262.885 365.656 267.059 355.739C273.077 341.439 255.58 347.365 244.912 338.257" fill="#526ABC"/>
<path d="M244.912 338.257C237.524 331.951 232.779 323.62 226.987 316.085C212.779 297.599 189.563 282.983 164.877 284.087C144.629 284.992 125.757 297.176 118.399 314.092C111.043 331.008 115.58 351.785 129.573 365.259C144.972 380.085 168.768 385.008 191.092 385.855C208.231 386.505 225.861 385.1 241.147 378.36C251.355 373.86 262.885 365.656 267.059 355.739C273.077 341.439 255.58 347.365 244.912 338.257V338.257Z" stroke="#040606" stroke-width="0.666667" stroke-miterlimit="10"/>
<path d="M251.885 324.743C238.387 332.668 225.159 341.735 211.108 348.257C199.145 353.811 186.352 357.571 173.285 359.369C180.455 358.383 188.863 360.091 195.74 362.108C202.601 364.12 209.087 365.045 216.301 365.829C233.123 367.656 249.945 369.484 266.768 371.311C281.272 372.887 295.923 374.463 310.412 372.753C318.929 371.749 328.045 369.133 333.004 362.135C335.113 359.156 336.287 355.605 336.989 352.025C339.236 340.58 336.617 328.019 329.031 319.16C309.101 295.885 272.963 312.367 251.885 324.743" fill="#86D393"/>
<path d="M251.885 324.743C238.387 332.668 225.159 341.735 211.108 348.257C199.145 353.811 186.352 357.571 173.285 359.369C180.455 358.383 188.863 360.091 195.74 362.108C202.601 364.12 209.087 365.045 216.301 365.829C233.123 367.656 249.945 369.484 266.768 371.311C281.272 372.887 295.923 374.463 310.412 372.753C318.929 371.749 328.045 369.133 333.004 362.135C335.113 359.156 336.287 355.605 336.989 352.025C339.236 340.58 336.617 328.019 329.031 319.16C309.101 295.885 272.963 312.367 251.885 324.743V324.743Z" stroke="#040606" stroke-width="0.666667" stroke-miterlimit="10"/>
<path d="M309.412 364.759L145.495 350.371L155.165 240.203L319.083 254.592L309.412 364.759Z" stroke="#040606" stroke-width="0.666667" stroke-miterlimit="10"/>
<path d="M486.263 536.914H377.999C376.415 536.914 375.129 535.628 375.129 534.041C375.129 532.456 376.415 531.171 377.999 531.171H486.263C487.849 531.171 489.135 532.456 489.135 534.041C489.135 535.628 487.849 536.914 486.263 536.914Z" fill="#040606"/>
<path d="M470.203 533.019H375.451L355.771 484.417C355.129 482.835 356.293 481.107 358.001 481.107H447.56C448.54 481.107 449.423 481.701 449.791 482.611L470.203 533.019" fill="#040606"/>
<path d="M403.013 507.093C404.02 509.727 407.417 511.861 410.601 511.861C413.787 511.861 415.551 509.727 414.544 507.093C413.536 504.461 410.137 502.327 406.955 502.327C403.769 502.327 402.005 504.461 403.013 507.093Z" stroke="white" stroke-width="0.666667" stroke-miterlimit="10"/>
<path d="M435.152 359.065C435.327 360.875 435.173 362.697 435.009 364.511C435.127 364.477 435.248 364.452 435.364 364.415C439.087 363.263 442.171 360.224 443.731 356.652C441.107 358.104 438.145 358.915 435.152 359.065" fill="#040606"/>
<path d="M329.395 309.139C325.292 306.341 321.147 303.507 317.829 299.812C317.16 299.068 316.503 298.241 316.332 297.253C316.163 296.268 316.656 295.097 317.625 294.845C318.707 294.564 319.695 295.468 320.513 296.229C323.659 299.157 327.787 301.007 332.064 301.407" fill="white"/>
<path d="M329.395 309.139C325.292 306.341 321.147 303.507 317.829 299.812C317.16 299.068 316.503 298.241 316.332 297.253C316.163 296.268 316.656 295.097 317.625 294.845C318.707 294.564 319.695 295.468 320.513 296.229C323.659 299.157 327.787 301.007 332.064 301.407" stroke="#171717" stroke-width="0.666667" stroke-miterlimit="10"/>
<path d="M311.579 396.351C311.635 397.739 312.093 399.081 312.689 400.336C314.559 404.276 317.863 407.519 321.839 409.312" stroke="#171717" stroke-width="0.666667" stroke-miterlimit="10"/>
<path d="M459.028 607.395C460.127 604.728 462.388 602.565 465.101 601.586C465.801 601.335 466.687 601.198 467.197 601.738C467.927 602.505 467.211 603.725 466.585 604.58C465.451 606.133 464.619 607.908 464.149 609.774C463.971 610.492 463.871 611.338 464.359 611.896C464.867 612.479 465.817 612.459 466.497 612.085C467.176 611.714 467.663 611.08 468.179 610.503C469.445 609.088 471.005 607.937 472.731 607.146C473.041 607.004 473.395 606.869 473.72 606.979C474.665 607.295 474.067 608.7 473.467 609.496C472.243 611.114 471.645 613.193 471.823 615.212" stroke="#F2596D" stroke-width="1.33333" stroke-miterlimit="10"/>
<path d="M401.637 598.571C401.34 596.847 400.951 594.967 399.584 593.873C398.219 592.781 395.609 593.309 395.483 595.055C395.431 595.759 395.789 596.421 395.931 597.114C396.136 598.109 395.833 599.238 395.033 599.862C394.233 600.489 392.935 600.452 392.288 599.669C391.401 598.595 392.009 596.791 391.105 595.731C390.088 594.536 387.952 595.368 387.309 596.8C386.668 598.229 386.991 599.88 387.163 601.437C387.336 602.996 387.26 604.784 386.093 605.832" stroke="#F2596D" stroke-width="1.33333" stroke-miterlimit="10"/>
<path d="M456.792 338.017C456.792 339.225 455.812 340.204 454.605 340.204C453.397 340.204 452.417 339.225 452.417 338.017C452.417 336.808 453.397 335.829 454.605 335.829C455.812 335.829 456.792 336.808 456.792 338.017Z" fill="#040606"/>
<path d="M532.469 448.072C532.313 447.167 532.208 446.253 532.156 445.337C532.053 444.695 531.929 444.055 531.765 443.425C531.092 443.965 530.365 444.439 529.581 444.797C528.727 445.188 527.824 445.461 526.925 445.733C524.248 446.544 521.569 447.356 518.891 448.168C517.845 448.484 516.844 448.831 515.897 449.384C516.772 449.137 517.723 449.092 518.639 449.244C519.908 449.452 521.128 449.915 522.407 450.041C523.513 450.152 524.632 450.008 525.743 450.087C528.063 450.255 530.528 451.341 532.615 450.451C532.575 449.657 532.528 448.863 532.469 448.072Z" fill="#040606"/>
<path d="M569.144 523.764C568.137 525.785 568.652 528.296 567.703 530.344C567 531.861 565.588 532.917 564.635 534.292C563.145 536.431 562.912 539.467 564.319 541.66C565.728 543.853 568.823 544.888 571.156 543.726C573.025 542.796 574.092 540.793 574.839 538.843C576.383 534.805 577.996 528.487 576.669 524.184C575.592 520.687 571.047 519.949 569.144 523.764" fill="#040606"/>
<path d="M300.325 508.736C302.021 507.373 304.524 507.056 306.456 508.056C308.388 509.055 309.584 511.364 309.176 513.501C308.952 514.672 308.3 515.752 308.249 516.943C308.187 518.468 309.109 519.832 309.597 521.276C310.317 523.416 310.004 525.96 308.5 527.643C306.997 529.325 304.255 529.883 302.371 528.64C300.373 527.324 299.876 524.664 299.5 522.303C298.825 518.065 296.22 512.029 300.325 508.736" fill="#040606"/>
<path d="M525.532 497.884C524.36 501.86 522.204 505.54 519.315 508.512Z" fill="white"/>
<path d="M525.532 497.884C524.36 501.86 522.204 505.54 519.315 508.512" stroke="#040606" stroke-width="0.666667" stroke-miterlimit="10"/>
<path d="M517.12 510.635C516.083 511.44 515.047 512.247 514.012 513.052Z" fill="white"/>
<path d="M517.12 510.635C516.083 511.44 515.047 512.247 514.012 513.052" stroke="#040606" stroke-width="0.666667" stroke-miterlimit="10"/>
<path d="M518.317 506.133C517.735 506.699 517.149 507.267 516.567 507.833Z" fill="white"/>
<path d="M518.317 506.133C517.735 506.699 517.149 507.267 516.567 507.833" stroke="#040606" stroke-width="0.666667" stroke-miterlimit="10"/>
<path d="M527.469 441.729C524.705 442.765 521.943 443.801 519.181 444.837" stroke="#040606" stroke-width="0.666667" stroke-miterlimit="10"/>
<path d="M520.177 412.804C521.657 416.163 522.857 419.644 523.759 423.203" stroke="#040606" stroke-width="0.666667" stroke-miterlimit="10"/>
<path d="M524.333 425.275C524.576 426.347 524.816 427.417 525.057 428.491" stroke="#040606" stroke-width="0.666667" stroke-miterlimit="10"/>
<path d="M525.735 431.371C525.888 432.1 526.041 432.829 526.195 433.557" stroke="#040606" stroke-width="0.666667" stroke-miterlimit="10"/>
<path d="M459.437 354.592C459.457 357.86 459.651 361.129 460.019 364.376" stroke="#040606" stroke-width="0.666667" stroke-miterlimit="10"/>
<path d="M460.343 366.912C460.537 368.193 460.815 369.461 461.172 370.705" stroke="#040606" stroke-width="0.666667" stroke-miterlimit="10"/>
<path d="M301.967 91.0746H210.837C208.345 91.0746 206.325 89.0547 206.325 86.5627V86.2693C206.325 83.776 208.345 81.756 210.837 81.756H301.967C304.459 81.756 306.479 83.776 306.479 86.2693V86.5627C306.479 89.0547 304.459 91.0746 301.967 91.0746Z" fill="#86D393"/>
<path d="M362.163 91.0746H321.327C318.835 91.0746 316.815 89.0547 316.815 86.5627V86.2693C316.815 83.776 318.835 81.756 321.327 81.756H362.163C364.655 81.756 366.675 83.776 366.675 86.2693V86.5627C366.675 89.0547 364.655 91.0746 362.163 91.0746Z" fill="#86D393"/>
<path d="M459.261 91.0746H380.457C377.965 91.0746 375.944 89.0547 375.944 86.5627V86.2693C375.944 83.776 377.965 81.756 380.457 81.756H459.261C461.753 81.756 463.775 83.776 463.775 86.2693V86.5627C463.775 89.0547 461.753 91.0746 459.261 91.0746Z" fill="#86D393"/>
<path d="M464.013 111.092H210.837C208.345 111.092 206.325 109.072 206.325 106.58V106.285C206.325 103.793 208.345 101.773 210.837 101.773H464.013C466.505 101.773 468.527 103.793 468.527 106.285V106.58C468.527 109.072 466.505 111.092 464.013 111.092Z" fill="#86D393"/>
<path d="M264.465 131.109H210.837C208.345 131.109 206.325 129.088 206.325 126.596V126.303C206.325 123.811 208.345 121.789 210.837 121.789H264.465C266.957 121.789 268.977 123.811 268.977 126.303V126.596C268.977 129.088 266.957 131.109 264.465 131.109Z" fill="#86D393"/>
<path d="M458.724 131.109H286.525C284.032 131.109 282.012 129.088 282.012 126.596V126.303C282.012 123.811 284.032 121.789 286.525 121.789H458.724C461.216 121.789 463.236 123.811 463.236 126.303V126.596C463.236 129.088 461.216 131.109 458.724 131.109" fill="#86D393"/>
<path d="M375.337 151.125H210.837C208.345 151.125 206.325 149.105 206.325 146.613V146.319C206.325 143.828 208.345 141.807 210.837 141.807H375.337C377.829 141.807 379.851 143.828 379.851 146.319V146.613C379.851 149.105 377.829 151.125 375.337 151.125" fill="#86D393"/>
<path d="M461.264 151.125H394.197C391.705 151.125 389.687 149.105 389.687 146.613V146.319C389.687 143.828 391.705 141.807 394.197 141.807H461.264C463.756 141.807 465.777 143.828 465.777 146.319V146.613C465.777 149.105 463.756 151.125 461.264 151.125Z" fill="#86D393"/>
<path d="M312.409 171.143H210.837C208.345 171.143 206.325 169.123 206.325 166.631V166.336C206.325 163.844 208.345 161.824 210.837 161.824H312.409C314.901 161.824 316.921 163.844 316.921 166.336V166.631C316.921 169.123 314.901 171.143 312.409 171.143Z" fill="#86D393"/>
<path d="M408.031 171.143H335.631C333.139 171.143 331.119 169.123 331.119 166.631V166.336C331.119 163.844 333.139 161.824 335.631 161.824H408.031C410.524 161.824 412.544 163.844 412.544 166.336V166.631C412.544 169.123 410.524 171.143 408.031 171.143Z" fill="#86D393"/>
<path d="M301.967 194.672H210.837C208.345 194.672 206.325 192.652 206.325 190.16V189.865C206.325 187.373 208.345 185.353 210.837 185.353H301.967C304.459 185.353 306.479 187.373 306.479 189.865V190.16C306.479 192.652 304.459 194.672 301.967 194.672Z" fill="#86D393"/>
<path d="M362.163 194.672H321.327C318.835 194.672 316.815 192.652 316.815 190.16V189.865C316.815 187.373 318.835 185.353 321.327 185.353H362.163C364.655 185.353 366.675 187.373 366.675 189.865V190.16C366.675 192.652 364.655 194.672 362.163 194.672Z" fill="#86D393"/>
<path d="M459.261 194.672H380.457C377.965 194.672 375.944 192.652 375.944 190.16V189.865C375.944 187.373 377.965 185.353 380.457 185.353H459.261C461.753 185.353 463.775 187.373 463.775 189.865V190.16C463.775 192.652 461.753 194.672 459.261 194.672Z" fill="#86D393"/>
<path d="M344.884 214.689H210.837C208.345 214.689 206.325 212.668 206.325 210.176V209.883C206.325 207.389 208.345 205.369 210.837 205.369H344.884C347.376 205.369 349.396 207.389 349.396 209.883V210.176C349.396 212.668 347.376 214.689 344.884 214.689Z" fill="#86D393"/>
<path d="M125.266 105.549C124.775 107.667 124.549 109.905 124.336 112.044C123.262 122.791 121.28 133.672 116.108 143.152C120.12 143.744 123.08 144.404 127.086 143.111C130.492 142.013 133.593 139.856 135.505 136.796C136.643 134.972 137.347 132.915 137.935 130.848C139.095 126.771 140.233 122.833 138.375 118.792C137.953 117.876 137.223 117.14 136.699 116.279C134.425 112.544 134.957 108.212 135.1 104.132C135.159 102.491 135.064 100.756 134.188 99.3666C133.493 98.2653 132.761 97.0626 131.259 97.2586C130.375 97.3733 129.599 97.9026 128.945 98.508C126.942 100.364 125.89 102.86 125.266 105.549" fill="#040606"/>
<path d="M163.804 142.789C156.681 140.096 149.015 139.227 141.425 138.591C137.551 138.265 131.396 138.568 127.525 138.941C118.825 139.779 112.909 143.292 106.151 148.835C104.117 150.504 102.155 152.356 100.925 154.681C99.6932 157.008 99.2855 159.897 100.406 162.277C101.838 165.319 105.269 166.796 108.461 167.843C128.785 174.512 151.365 174.071 171.413 166.615C173.74 165.749 176.075 164.768 177.96 163.153C187.361 155.097 170.495 145.319 163.804 142.789" fill="#E981C6"/>
<path d="M163.804 142.789C156.681 140.096 149.015 139.227 141.425 138.591C137.551 138.265 131.396 138.568 127.525 138.941C118.825 139.779 112.909 143.292 106.151 148.835C104.117 150.504 102.155 152.356 100.925 154.681C99.6932 157.008 99.2855 159.897 100.406 162.277C101.838 165.319 105.269 166.796 108.461 167.843C128.785 174.512 151.365 174.071 171.413 166.615C173.74 165.749 176.075 164.768 177.96 163.153C187.361 155.097 170.495 145.319 163.804 142.789V142.789Z" stroke="#040606" stroke-width="0.666667" stroke-miterlimit="10"/>
<path d="M148.595 145.485C147.107 146.592 145.647 147.739 144.219 148.923C142.175 150.616 140.28 152.661 137.399 152.164C136.005 151.923 134.725 151.252 133.515 150.521C129.134 147.879 124.904 144.517 123.112 139.725C124.877 139.039 129.299 138.703 129.518 136.495C129.762 134.025 129.909 131.543 129.937 129.061C129.95 127.967 130.01 127.664 129.229 127.004C125.339 123.715 124.105 119.831 124.159 114.735C124.209 110.092 124.599 105.455 125.326 100.869C130.299 100.3 137.107 98.56 141.241 101.852C144.343 104.323 146.656 107.667 148.005 111.337C149.547 115.528 148.619 115.649 147.731 119.947C146.924 123.852 146.468 128.013 147.048 131.981C147.333 133.927 147.896 135.964 149.177 137.504C150.864 139.532 154.008 140.025 156.411 140.796C154.923 141.121 153.607 141.965 152.347 142.82C151.077 143.681 149.827 144.571 148.595 145.485" fill="white"/>
<path d="M148.595 145.485C147.107 146.592 145.647 147.739 144.219 148.923C142.175 150.616 140.28 152.661 137.399 152.164C136.005 151.923 134.725 151.252 133.515 150.521C129.134 147.879 124.904 144.517 123.112 139.725C124.877 139.039 129.299 138.703 129.518 136.495C129.762 134.025 129.909 131.543 129.937 129.061C129.95 127.967 130.01 127.664 129.229 127.004C125.339 123.715 124.105 119.831 124.159 114.735C124.209 110.092 124.599 105.455 125.326 100.869C130.299 100.3 137.107 98.56 141.241 101.852C144.343 104.323 146.656 107.667 148.005 111.337C149.547 115.528 148.619 115.649 147.731 119.947C146.924 123.852 146.468 128.013 147.048 131.981C147.333 133.927 147.896 135.964 149.177 137.504C150.864 139.532 154.008 140.025 156.411 140.796C154.923 141.121 153.607 141.965 152.347 142.82C151.077 143.681 149.827 144.571 148.595 145.485V145.485Z" stroke="#171717" stroke-width="0.666667" stroke-miterlimit="10"/>
<path d="M157.428 143.887C153.701 143.915 149.975 143.732 146.271 143.34C147.516 134.163 145.505 125.287 144.477 116.255C144.368 115.295 144.369 113.805 143.927 112.688C143.749 112.244 143.452 111.917 143.221 111.515C143.003 111.133 143.073 110.637 143.083 110.192C143.084 110.149 143.081 110.101 143.047 110.079C143.016 110.057 142.976 110.067 142.941 110.079C142.407 110.249 141.721 110.625 141.444 111.139C141.376 111.263 140.911 112.424 140.968 112.449C140.336 112.169 139.811 111.659 139.512 111.036C139.264 110.523 139.172 109.951 139.105 109.385C139.04 108.829 139.116 108.149 138.847 107.648C138.287 106.604 136.972 106.735 135.791 106.607C136.381 105.216 136.535 103.643 136.225 102.164C135.641 102.989 135.187 103.907 134.88 104.869C134.719 105.383 134.585 105.929 134.22 106.324C133.234 107.388 129.427 106.511 128.128 106.451C127.49 106.42 120.847 105.807 120.809 105.923C121.994 102.336 123.504 98.612 126.537 96.36C129.929 93.8427 134.468 93.7027 138.692 93.6654C142.709 93.628 147.535 94.9827 151.091 96.8253C157.444 100.115 159.633 107.557 161.516 113.901C162.047 115.685 162.12 117.568 162.364 119.413C162.821 122.857 163.879 126.188 164.939 129.497C166.235 133.539 167.715 137.829 171.081 140.416C166.953 143.501 162.397 143.849 157.428 143.887" fill="#040606"/>
<path d="M144.081 118.409C144.095 118.409 144.108 118.411 144.121 118.409C146.768 118.365 148.843 116.153 149.08 113.739C149.323 111.268 147.055 109.34 144.585 109.383C143.276 109.405 142.331 110 141.679 110.888" fill="white"/>
<path d="M144.081 118.409C144.095 118.409 144.108 118.411 144.121 118.409C146.768 118.365 148.843 116.153 149.08 113.739C149.323 111.268 147.055 109.34 144.585 109.383C143.276 109.405 142.331 110 141.679 110.888" stroke="#171717" stroke-width="0.666667" stroke-miterlimit="10"/>
<path d="M130.06 129.888C130.063 129.279 130.004 128.653 129.782 128.081C129.678 127.648 129.495 127.248 129.189 126.943L129.186 126.899C131.729 128.769 135.944 128.191 136.724 127.204C135.149 129.829 132.663 130.883 129.963 131.325C130.014 130.848 130.058 130.369 130.06 129.888" fill="#040606"/>
<path d="M145.388 111.724C144.472 111.776 143.6 112.321 143.151 113.12C142.701 113.92 142.688 114.948 143.117 115.757" stroke="#171717" stroke-width="0.666667" stroke-miterlimit="10"/>
<path d="M133.395 119.207C132.979 120.759 131.292 121.668 129.685 121.643C127.539 121.611 126.551 120.564 125.994 118.895L133.395 119.207" fill="#F2596D"/>
<path d="M133.395 119.207C132.979 120.759 131.292 121.668 129.685 121.643C127.539 121.611 126.551 120.564 125.994 118.895L133.395 119.207Z" stroke="#040606" stroke-width="0.666667" stroke-miterlimit="10"/>
<path d="M179.807 122.419C179.807 144.876 161.601 163.081 139.144 163.081C116.687 163.081 98.4817 144.876 98.4817 122.419C98.4817 99.9613 116.687 81.7559 139.144 81.7559C161.601 81.7559 179.807 99.9613 179.807 122.419V122.419Z" stroke="#171717" stroke-width="0.666667" stroke-miterlimit="10"/>
<path d="M187.289 407.783C190.596 403.24 194.379 398.921 197.741 395.292C204.979 387.48 213.421 381.149 222.257 375.828C227.011 393.36 222.399 412.745 213.621 428.215C208.016 438.097 200.821 446.691 193.175 454.627C188.895 459.068 184.429 463.129 179.989 467.46C179.611 467.829 179.088 468.22 178.645 467.952C178.304 467.744 178.215 467.251 178.163 466.819C176.143 450.287 174.301 432.505 181.233 417.727C182.789 414.412 184.916 411.039 187.289 407.783" fill="#86D393"/>
<path d="M187.289 407.783C190.596 403.24 194.379 398.921 197.741 395.292C204.979 387.48 213.421 381.149 222.257 375.828C227.011 393.36 222.399 412.745 213.621 428.215C208.016 438.097 200.821 446.691 193.175 454.627C188.895 459.068 184.429 463.129 179.989 467.46C179.611 467.829 179.088 468.22 178.645 467.952C178.304 467.744 178.215 467.251 178.163 466.819C176.143 450.287 174.301 432.505 181.233 417.727C182.789 414.412 184.916 411.039 187.289 407.783V407.783Z" stroke="#040606" stroke-width="0.666667" stroke-miterlimit="10"/>
<path d="M123.197 427.503C123.283 438.711 123.529 450.083 126.414 460.816C129.299 471.551 135.176 481.741 144.051 486.959C148.861 489.787 154.275 491.024 159.388 493.084C164.525 495.153 169.072 498.256 172.175 503.348C173.791 488.079 166.964 471.639 159.643 459.173C151.048 444.539 138.135 432.967 123.197 427.503" fill="#86D393"/>
<path d="M123.197 427.503C123.283 438.711 123.529 450.083 126.414 460.816C129.299 471.551 135.176 481.741 144.051 486.959C148.861 489.787 154.275 491.024 159.388 493.084C164.525 495.153 169.072 498.256 172.175 503.348C173.791 488.079 166.964 471.639 159.643 459.173C151.048 444.539 138.135 432.967 123.197 427.503V427.503Z" stroke="#040606" stroke-width="0.666667" stroke-miterlimit="10"/>
<path d="M206.429 460.828C219.124 451.373 234.313 447.231 249.199 443.505C244.844 457.084 240.284 471.049 231.577 481.695C223.449 491.635 212.164 497.944 200.4 500.847C198.177 501.395 184.288 507.36 183.408 506.815C181.241 505.472 184.645 496.815 185.135 494.749C188.493 480.536 195.348 469.083 206.429 460.828" fill="#86D393"/>
<path d="M206.429 460.828C219.124 451.373 234.313 447.231 249.199 443.505C244.844 457.084 240.284 471.049 231.577 481.695C223.449 491.635 212.164 497.944 200.4 500.847C198.177 501.395 184.288 507.36 183.408 506.815C181.241 505.472 184.645 496.815 185.135 494.749C188.493 480.536 195.348 469.083 206.429 460.828V460.828Z" stroke="#040606" stroke-width="0.666667" stroke-miterlimit="10"/>
<path d="M178.752 531.044L178.088 530.987C178.899 521.781 179.816 511.348 184.829 503.053C187.879 498.009 192.181 494.195 196.341 490.505L220.063 469.471L220.505 469.971L196.784 491.005C192.66 494.66 188.397 498.44 185.4 503.397C180.467 511.56 179.556 521.912 178.752 531.044" fill="#130A0A"/>
<path d="M174.471 547.768C173.264 541.239 173.527 534.461 173.783 527.907C173.957 523.385 174.139 518.712 173.839 514.156C172.516 494.105 162.169 476.527 152.577 461.623L153.137 461.26C162.775 476.235 173.169 493.903 174.503 514.112C174.807 518.703 174.625 523.395 174.448 527.932C174.195 534.449 173.933 541.191 175.127 547.648L174.471 547.768" fill="#130A0A"/>
<path d="M176.523 539.655L175.856 539.644L176.392 503.175C176.533 493.537 176.683 483.573 178.172 473.904C181.027 455.371 188.64 438.351 196.005 421.891L196.615 422.164C189.268 438.584 181.672 455.561 178.831 474.005C177.348 483.629 177.2 493.571 177.059 503.185L176.523 539.655" fill="#130A0A"/>
<path d="M153.415 581.512C153.415 581.512 201.915 581.802 201.937 581.512L205.017 530.805H149.567C149.567 530.805 153.405 581.417 153.415 581.512" fill="#F2596D"/>
<path d="M153.415 581.512C153.415 581.512 201.915 581.802 201.937 581.512L205.017 530.805H149.567C149.567 530.805 153.405 581.417 153.415 581.512V581.512Z" stroke="#040606" stroke-width="0.666667" stroke-miterlimit="10"/>
<path d="M153.133 546.462C157.313 544.434 160.715 542.357 166.043 542.949C168.356 543.207 170.983 543.802 172.792 542.337C173.491 541.773 173.949 540.973 174.448 540.226C176.623 536.974 179.905 534.505 183.583 533.196C185.863 532.384 190.837 530.805 193.176 530.805H149.567L151.056 547.419C151.776 547.109 152.464 546.786 153.133 546.462Z" fill="#130A0A"/>
<path d="M207.289 521.599L149.325 521.677C148.828 521.677 148.348 521.731 147.881 521.813V535.217C148.352 535.303 148.832 535.357 149.325 535.357L206.081 535.24L207.289 521.599Z" fill="#F2596D"/>
<path d="M207.289 521.599L149.325 521.677C148.828 521.677 148.348 521.731 147.881 521.813V535.217C148.352 535.303 148.832 535.357 149.325 535.357L206.081 535.24L207.289 521.599Z" stroke="#040606" stroke-width="0.666667" stroke-miterlimit="10"/>
<path d="M125.966 581.512H213.467" stroke="#171717" stroke-width="0.666667" stroke-miterlimit="10"/>
<path d="M217.36 581.512H230.713" stroke="#171717" stroke-width="0.666667" stroke-miterlimit="10"/>
<path d="M241.304 459.959C239.943 463.857 238.327 467.667 236.469 471.355" stroke="#171717" stroke-width="0.666667" stroke-miterlimit="10"/>
<path d="M234.915 473.425C234.083 474.753 233.16 476.025 232.152 477.225" stroke="#171717" stroke-width="0.666667" stroke-miterlimit="10"/>
<path d="M219.408 398.152C218.187 404.459 216.191 410.613 213.48 416.436" stroke="#171717" stroke-width="0.666667" stroke-miterlimit="10"/>
<path d="M212.453 419.547C211.259 421.684 210.063 423.821 208.868 425.959" stroke="#171717" stroke-width="0.666667" stroke-miterlimit="10"/>
<path d="M216.285 416.631C215.536 418.068 214.787 419.507 214.037 420.945" stroke="#171717" stroke-width="0.666667" stroke-miterlimit="10"/>
<path d="M134.713 473.2C137.149 478.457 141.973 482.549 147.557 484.096" stroke="#171717" stroke-width="0.666667" stroke-miterlimit="10"/>
<path d="M201.419 542.491C201.207 548.712 200.852 554.929 200.357 561.137" stroke="#171717" stroke-width="0.666667" stroke-miterlimit="10"/>
<path d="M200.507 563.379C200.409 564.704 200.311 566.028 200.213 567.355" stroke="#171717" stroke-width="0.666667" stroke-miterlimit="10"/>
<path d="M409.797 432.536C410.084 433.811 409.783 435.173 409.145 436.313C408.529 437.417 407.611 438.353 407.152 439.531C406.621 440.895 406.768 442.415 406.62 443.868C406.377 446.236 405.351 448.44 404.339 450.592C405.191 449.315 404.081 444.051 404.019 442.435C403.909 439.644 403.771 436.853 403.689 434.061C403.64 432.388 403.395 430.599 405.181 429.82C407.221 428.931 409.352 430.56 409.797 432.536" fill="#040606"/>
<path d="M525.763 312.46C523.165 313.244 521.256 316.913 521.256 316.913C521.256 316.913 519.332 313.276 516.731 312.536C509.197 310.391 505.832 317.184 508.716 323.453C511.497 329.501 521.3 336.777 521.3 336.777C521.3 336.777 531.069 329.339 533.825 323.244C536.683 316.927 533.287 310.191 525.763 312.46Z" fill="#F2596D"/>
<path d="M525.763 312.46C523.165 313.244 521.256 316.913 521.256 316.913C521.256 316.913 519.332 313.276 516.731 312.536C509.197 310.391 505.832 317.184 508.716 323.453C511.497 329.501 521.3 336.777 521.3 336.777C521.3 336.777 531.069 329.339 533.825 323.244C536.683 316.927 533.287 310.191 525.763 312.46Z" stroke="#040606" stroke-width="0.666667" stroke-miterlimit="10"/>
<path d="M539.531 278.211C536.933 278.995 535.025 282.664 535.025 282.664C535.025 282.664 533.099 279.027 530.499 278.287C522.967 276.141 519.6 282.935 522.483 289.204C525.265 295.252 535.068 302.528 535.068 302.528C535.068 302.528 544.837 295.089 547.592 288.996C550.449 282.677 547.053 275.941 539.531 278.211" fill="#F2596D"/>
<path d="M539.531 278.211C536.933 278.995 535.025 282.664 535.025 282.664C535.025 282.664 533.099 279.027 530.499 278.287C522.967 276.141 519.6 282.935 522.483 289.204C525.265 295.252 535.068 302.528 535.068 302.528C535.068 302.528 544.837 295.089 547.592 288.996C550.449 282.677 547.053 275.941 539.531 278.211V278.211Z" stroke="#040606" stroke-width="0.666667" stroke-miterlimit="10"/>
<path d="M553.3 243.963C550.7 244.747 548.792 248.415 548.792 248.415C548.792 248.415 546.867 244.777 544.265 244.037C536.733 241.892 533.367 248.687 536.251 254.956C539.033 261.004 548.835 268.279 548.835 268.279C548.835 268.279 558.605 260.84 561.36 254.747C564.217 248.429 560.821 241.692 553.3 243.963" fill="#F2596D"/>
<path d="M553.3 243.963C550.7 244.747 548.792 248.415 548.792 248.415C548.792 248.415 546.867 244.777 544.265 244.037C536.733 241.892 533.367 248.687 536.251 254.956C539.033 261.004 548.835 268.279 548.835 268.279C548.835 268.279 558.605 260.84 561.36 254.747C564.217 248.429 560.821 241.692 553.3 243.963V243.963Z" stroke="#040606" stroke-width="0.666667" stroke-miterlimit="10"/>
<path d="M567.067 209.713C564.469 210.497 562.56 214.165 562.56 214.165C562.56 214.165 560.635 210.528 558.033 209.788C550.501 207.644 547.136 214.437 550.019 220.707C552.801 226.755 562.603 234.031 562.603 234.031C562.603 234.031 572.372 226.591 575.128 220.497C577.984 214.18 574.588 207.443 567.067 209.713" fill="#F2596D"/>
<path d="M567.067 209.713C564.469 210.497 562.56 214.165 562.56 214.165C562.56 214.165 560.635 210.528 558.033 209.788C550.501 207.644 547.136 214.437 550.019 220.707C552.801 226.755 562.603 234.031 562.603 234.031C562.603 234.031 572.372 226.591 575.128 220.497C577.984 214.18 574.588 207.443 567.067 209.713V209.713Z" stroke="#040606" stroke-width="0.666667" stroke-miterlimit="10"/>
<path d="M532.327 317.243C532.567 318.6 532.248 319.999 531.747 321.281C530.543 324.36 528.331 326.917 526.16 329.411" stroke="#171717" stroke-width="0.666667" stroke-miterlimit="10"/>
<path d="M525.051 330.631C524.571 331.295 524.051 331.928 523.496 332.531" stroke="#171717" stroke-width="0.666667" stroke-miterlimit="10"/>
<path d="M526.08 326.655C525.593 327.232 525.108 327.811 524.621 328.388" stroke="#171717" stroke-width="0.666667" stroke-miterlimit="10"/>
<path d="M536.852 298.648C540.404 296.311 543.283 292.961 545.06 289.097" stroke="#171717" stroke-width="0.666667" stroke-miterlimit="10"/>
<path d="M559.945 251.469C559.752 252.665 559.299 253.819 558.62 254.824" stroke="#171717" stroke-width="0.666667" stroke-miterlimit="10"/>
<path d="M557.851 256.673C556.261 258.749 554.54 260.725 552.7 262.584" stroke="#171717" stroke-width="0.666667" stroke-miterlimit="10"/>
<path d="M574.691 216.069C574.231 217.564 573.623 219.012 572.879 220.387" stroke="#171717" stroke-width="0.666667" stroke-miterlimit="10"/>
<path d="M571.237 222.113C570.92 222.573 570.604 223.033 570.288 223.495" stroke="#171717" stroke-width="0.666667" stroke-miterlimit="10"/>
<path d="M568.581 225.583C567.353 226.999 566.077 228.373 564.753 229.703" stroke="#171717" stroke-width="0.666667" stroke-miterlimit="10"/>
<path d="M568.043 422.225H568.563C568.563 428.295 573.483 433.215 579.552 433.215V433.735C573.483 433.735 568.563 438.653 568.563 444.723H568.043C568.043 438.653 563.124 433.735 557.055 433.735V433.215C563.124 433.215 568.043 428.295 568.043 422.225Z" fill="#E981C6"/>
<path d="M589.023 449.405C589.023 454.339 593.021 458.337 597.955 458.337C593.021 458.337 589.023 462.336 589.023 467.269C589.023 462.336 585.024 458.337 580.091 458.337C585.024 458.337 589.023 454.339 589.023 449.405Z" fill="#526ABC"/>
<path d="M584.879 99.9386C584.879 104.872 588.877 108.871 593.809 108.871C588.877 108.871 584.879 112.869 584.879 117.803C584.879 112.869 580.88 108.871 575.947 108.871C580.88 108.871 584.879 104.872 584.879 99.9386Z" fill="#526ABC"/>
<path d="M89.9088 513.121H90.2995C90.2995 518.885 94.9719 523.557 100.736 523.557V523.949C94.9719 523.949 90.2995 528.621 90.2995 534.385H89.9084C89.9084 528.621 85.236 523.949 79.4719 523.949V523.557C85.2364 523.557 89.9088 518.885 89.9088 513.121Z" fill="#526ABC"/>
<path d="M511.733 168.321H513.811C513.811 174.389 518.732 179.309 524.8 179.309V181.388C518.732 181.388 513.811 186.307 513.811 192.376H511.733C511.733 186.307 506.813 181.388 500.745 181.388V179.309C506.813 179.309 511.733 174.389 511.733 168.321Z" fill="#E981C6"/>
<path d="M492.577 137.584H493.096C493.096 143.652 498.017 148.572 504.085 148.572V149.092C498.017 149.092 493.096 154.012 493.096 160.081H492.577C492.577 154.012 487.657 149.092 481.588 149.092V148.572C487.657 148.572 492.577 143.652 492.577 137.584Z" fill="#526ABC"/>
<path d="M475.756 205.98C475.756 211.852 480.517 216.611 486.389 216.611C480.517 216.611 475.756 221.371 475.756 227.243C475.756 221.371 470.997 216.611 465.125 216.611C470.997 216.611 475.756 211.852 475.756 205.98Z" fill="#E981C6"/>
</g>
<defs>
<filter id="filter0_d" x="67.4745" y="52.9746" width="545.48" height="593.714" filterUnits="userSpaceOnUse" color-interpolation-filters="sRGB">
<feFlood flood-opacity="0" result="BackgroundImageFix"/>
<feColorMatrix in="SourceAlpha" type="matrix" values="0 0 0 0 0 0 0 0 0 0 0 0 0 0 0 0 0 0 127 0" result="hardAlpha"/>
<feOffset dx="5" dy="5"/>
<feGaussianBlur stdDeviation="5"/>
<feColorMatrix type="matrix" values="0 0 0 0 0 0 0 0 0 0 0 0 0 0 0 0 0 0 0.25 0"/>
<feBlend mode="normal" in2="BackgroundImageFix" result="effect1_dropShadow"/>
<feBlend mode="normal" in="SourceGraphic" in2="effect1_dropShadow" result="shape"/>
</filter>
</defs>
</svg>
