<svg width="87" height="59" viewBox="0 0 87 59" fill="none" xmlns="http://www.w3.org/2000/svg">
<path d="M49.7558 1.13952C50.7045 0.158572 52.2429 0.158572 53.1921 1.13952L85.9768 35.0413C86.9256 36.0221 86.9256 37.6131 85.9768 38.5947L82.9792 41.6938L46.7588 4.23986L49.7558 1.13952Z" fill="#3E454F"/>
<path d="M56.6508 22.0852L36.6876 1.45163C35.7388 0.470686 34.1989 0.470685 33.2512 1.45278L0.883322 34.9384C-0.0654588 35.92 -0.0654588 37.511 0.884431 38.4919L19.131 57.3502C20.0798 58.3305 21.6159 58.3317 22.5663 57.3512L43.3931 35.8601L64.2813 57.3638C65.2284 58.3391 66.7584 58.3402 67.7078 57.3661L79.1153 45.6593L56.6508 22.0852ZM27.3549 36.3622C23.5967 36.3622 20.672 33.1986 20.672 29.4528C20.672 25.7053 23.5967 22.5429 27.3549 22.5429C31.113 22.5429 34.0378 25.7059 34.0378 29.4528C34.0366 33.1997 31.112 36.3622 27.3549 36.3622Z" fill="#3E454F"/>
<path d="M29.7502 30.0499C29.7435 29.7258 29.6166 29.4354 29.3688 29.1792C29.1839 28.9874 28.9841 28.8755 28.7711 28.843C28.5541 28.8077 28.3471 28.8203 28.1495 28.8818C27.9547 28.9406 27.7086 29.0359 27.4105 29.1689C27.1373 29.295 26.9287 29.3846 26.7846 29.4366C26.64 29.4816 26.513 29.4993 26.4033 29.4902C26.2967 29.477 26.1962 29.4217 26.1018 29.3247C25.97 29.1882 25.9136 29.0359 25.9324 28.867C25.9512 28.6981 25.9892 28.5167 26.3027 28.1919L26.9264 27.5471L26.5125 27.1191L26.0549 27.5922C26.0328 27.6019 26.0157 27.6002 26.0031 27.5876L25.6592 27.2126C25.6437 27.1967 25.6249 27.1899 25.6024 27.1933C25.5803 27.1899 25.5615 27.1967 25.546 27.2126L25.1784 27.5922C25.163 27.6088 25.1553 27.6293 25.1553 27.6556C25.1553 27.6749 25.163 27.6926 25.1784 27.7092L25.5361 28.0596C25.5483 28.0727 25.5499 28.0904 25.5405 28.1132C25.3269 28.4116 25.2237 28.7169 25.2298 29.0285C25.2391 29.3366 25.3634 29.6139 25.6018 29.8605C25.7867 30.0523 25.9865 30.1675 26.1995 30.2057C26.4099 30.2417 26.6168 30.2286 26.8205 30.1675C27.0247 30.1059 27.2725 30.0083 27.5644 29.8754C27.8311 29.7617 28.0369 29.6819 28.181 29.6368C28.3256 29.5848 28.4543 29.5655 28.5673 29.578C28.6772 29.5878 28.776 29.638 28.8638 29.7292C28.9923 29.8617 29.0503 30.0197 29.0376 30.2012C29.0282 30.3792 28.9549 30.5921 28.7694 30.7832L27.8598 31.6901L28.2528 32.1277L28.8775 31.5451C28.8996 31.5353 28.9167 31.5371 28.9295 31.5502L29.2402 31.8812C29.2556 31.8971 29.2733 31.9052 29.292 31.9052C29.3169 31.9052 29.3379 31.8971 29.3533 31.8812L29.7209 31.5017C29.7364 31.4851 29.743 31.4664 29.7397 31.4429C29.7424 31.4201 29.7364 31.4007 29.7209 31.3841L29.4058 31.0674C29.393 31.0549 29.3914 31.0366 29.4008 31.0138C29.6404 30.6953 29.7568 30.3741 29.7502 30.0499Z" fill="#3E454F"/>
</svg>
