<svg id="Layer_1_1_" enable-background="new 0 0 64 64" height="512" viewBox="0 0 64 64" width="512" xmlns="http://www.w3.org/2000/svg"><path d="m13.65 33.56-9.774 5.87 26.631 1.839.15-1.332z" fill="#32719c"/><path d="m37.901 33.976-8.944 21.024 21.393-8.022z" fill="#459ed9"/><path d="m30.657 39.937-.15 1.332-1.55 13.731 8.944-21.024-5.44-10.02-1.031 9.134z" fill="#4aa9e8"/><path d="m30.657 39.937.773-6.847-5.331-12.532-12.449 13.002z" fill="#459ed9"/><path d="m28.957 55 31.167-2.152-9.774-5.87z" fill="#32719c"/><path d="m54.023 40.692 6.977 4.395-4.088-7.161-9.682-10.112-6.977-4.396 4.088 7.162z" fill="#4caff0"/><path d="m19.659 17.162 4.088-7.162-6.977 4.395-9.682 10.113-4.088 7.161 6.977-4.395z" fill="#4caff0"/><path d="m54.023 40.692-9.682-10.112-6.44 3.396 12.449 13.002z" fill="#47a2de"/><path d="m44.341 30.58-4.088-7.162-7.792.538 5.44 10.02z" fill="#4caff0"/><path d="m50.35 46.978 9.774 5.87.876-7.761-6.977-4.395z" fill="#4398d1"/><path d="m9.977 27.274 3.673 6.286 12.449-13.002-6.44-3.396z" fill="#47a2de"/><path d="m26.099 20.558 5.599-10.075-7.951-.483-4.088 7.162z" fill="#4aa9e8"/><path d="m13.65 33.56-3.673-6.286-6.977 4.395.876 7.761z" fill="#4398d1"/><path d="m31.698 10.483-5.599 10.075 5.331 12.532 1.031-9.134.795-.055z" fill="#4aa9e8"/><path d="m2.882 39.542c.038.338.246.634.551.784.119.059.247.079.375.088l-.001.013 25.589 1.766-1.433 12.693v.002c-.014.13.005.258.041.383.009.031.018.058.03.088.047.12.108.235.201.331.095.099.208.176.332.229.123.054.256.081.39.081.023 0 .046-.001.069-.002l31.167-2.151-.001-.013c.128-.009.256-.029.375-.088.305-.15.513-.446.551-.784l.876-7.761c.024-.215-.028-.423-.131-.604l.006-.004-4.088-7.162c-.041-.071-.09-.137-.146-.196l-9.682-10.112c-.057-.059-.12-.111-.189-.155l-6.977-4.395-.004.006c-.175-.11-.38-.171-.598-.157l-6.249.431-1.402-12.426-.008.001c-.014-.128-.046-.254-.11-.37-.164-.298-.468-.493-.808-.516l-7.792-.538c-.216-.015-.422.046-.598.156l-.004-.006-6.977 4.396c-.069.043-.132.096-.189.155l-9.682 10.111c-.057.059-.106.125-.146.196l-4.088 7.162.006.004c-.103.181-.156.389-.131.604zm16.978-21.144 4.6 2.427-10.615 11.085-2.624-4.49zm24.28 13.418 8.639 9.023-2.624 4.489-10.614-11.086zm-30.389 2.85 14.525 5.447-21.161-1.462zm36.497 13.418 6.637 3.986-21.162 1.461zm9.057 3.106-7.593-4.561 2.653-4.539 5.572 3.51zm-10.726-4.616-17.788 6.671 7.437-17.481zm-17.86 1.728 2.379-21.077 3.694 6.803zm.865-24.827c-.064.116-.095.242-.11.37l-.008-.001-.605 5.357-3.655-8.59 3.694-6.803 1.049 9.292c-.149.09-.278.216-.365.375zm-1.177 9.765-.599 5.31-14.386-5.395 10.351-10.81zm-20.771-4.569 2.653 4.54-7.593 4.56-.631-5.59zm46.468 9.857 2.044 3.581-3.488-2.197-9.512-9.935-2.044-3.581 3.488 2.197zm-16.408-14.069 3.264 5.718-4.651 2.453-4.226-7.784zm-9.779-13.03-4.226 7.784-4.651-2.453 3.264-5.719zm-22.021 13.681 9.512-9.935 3.488-2.197-2.044 3.581-9.512 9.935-3.488 2.197z"/><path d="m40 13h2v2h-2z"/><path d="m42 11h2v2h-2z"/><path d="m44 13h2v2h-2z"/><path d="m42 15h2v2h-2z"/><path d="m45 19h2v2h-2z"/><path d="m8 49h2v2h-2z"/><path d="m10 51h2v2h-2z"/><path d="m12 49h2v2h-2z"/><path d="m10 47h2v2h-2z"/><path d="m13 43h2v2h-2z"/><path d="m57 25h2v2h-2z"/></svg>