<svg width="65" height="66" viewBox="0 0 65 66" fill="none" xmlns="http://www.w3.org/2000/svg">
<path d="M0 33.3118C0 41.9313 3.4241 50.1978 9.519 56.2928C15.614 62.3877 23.8804 65.8118 32.5 65.8118C41.1196 65.8118 49.386 62.3877 55.481 56.2928C61.5759 50.1978 65 41.9313 65 33.3118C65 24.6922 61.5759 16.4258 55.481 10.3308C49.386 4.23587 41.1196 0.811768 32.5 0.811768C23.8804 0.811768 15.614 4.23587 9.519 10.3308C3.4241 16.4258 0 24.6922 0 33.3118Z" fill="#00B389"/>
<path d="M32.4963 62.1526C48.4274 62.1526 61.3409 49.2391 61.3409 33.308C61.3409 17.377 48.4274 4.46353 32.4963 4.46353C16.5654 4.46353 3.65186 17.377 3.65186 33.308C3.65186 49.2391 16.5654 62.1526 32.4963 62.1526ZM32.4963 6.68234C47.1782 6.68234 59.1221 18.6262 59.1221 33.308C59.1221 36.4232 58.5562 39.4031 57.5689 42.1833H32.4963C27.6017 42.1833 23.6211 38.2028 23.6211 33.308C23.6211 28.4133 27.6017 24.4328 32.4963 24.4328C37.3911 24.4328 41.3716 28.4133 41.3716 33.308H43.5904C43.5904 27.1908 38.6136 22.214 32.4963 22.214C26.3792 22.214 21.4023 27.1908 21.4023 33.308C21.4023 39.4253 26.3792 44.4021 32.4963 44.4021H56.6703C55.5454 46.845 54.0632 49.0816 52.286 51.0586H32.4963C22.7092 51.0586 14.7459 43.0952 14.7459 33.308C14.7459 23.5209 22.7092 15.5575 32.4963 15.5575C42.2836 15.5575 50.2469 23.5209 50.2469 33.308H52.4656C52.4656 22.2984 43.5084 13.3388 32.4963 13.3388C21.4844 13.3388 12.5271 22.2984 12.5271 33.308C12.5271 44.3178 21.4844 53.2773 32.4963 53.2773H50.0494C45.3588 57.4065 39.2238 59.9338 32.4963 59.9338C17.8145 59.9338 5.87067 47.9899 5.87067 33.308C5.87067 18.6262 17.8145 6.68234 32.4963 6.68234Z" fill="white"/>
</svg>
