<svg width="313" height="72" viewBox="0 0 313 72" fill="none" xmlns="http://www.w3.org/2000/svg">
<path d="M89.8035 34.65H87.3535C86.8535 34.65 86.6035 33.55 86.6035 31.35C86.6035 29.1167 86.8535 28 87.3535 28H89.8035V26.9C89.8035 23.3667 90.5368 20.9333 92.0035 19.6C93.5035 18.2333 95.5868 17.55 98.2535 17.55C100.92 17.55 103.27 18.0333 105.304 19C105.57 19.1 105.704 19.4667 105.704 20.1C105.704 20.7 105.42 21.6833 104.854 23.05C104.287 24.4167 103.804 25.2 103.404 25.4C102.27 24.7 101.104 24.35 99.9035 24.35C98.6035 24.35 97.9535 25.2167 97.9535 26.95V28H102.104C102.704 28 103.004 29.0667 103.004 31.2C103.004 33.5333 102.62 34.7 101.854 34.7H98.6535V52.4C98.6535 52.8 97.1702 53 94.2035 53C91.2702 53 89.8035 52.8 89.8035 52.4V34.65ZM108.24 34.85C107.307 33.1833 106.84 31.8333 106.84 30.8C106.84 29.7333 107.123 29.05 107.69 28.75C109.59 27.9167 112.19 27.5 115.49 27.5C118.823 27.5 121.173 28.2833 122.54 29.85C123.907 31.3833 124.59 33.6667 124.59 36.7V44.6H126.29C126.857 44.6 127.29 44.9333 127.59 45.6C127.923 46.2667 128.09 47.1833 128.09 48.35C128.09 49.5167 127.79 50.6667 127.19 51.8C126.623 52.9333 125.84 53.5 124.84 53.5C123.04 53.5 121.59 53.0167 120.49 52.05C119.99 51.65 119.607 51.1667 119.34 50.6C117.807 52.5333 115.423 53.5 112.19 53.5C109.757 53.5 107.707 52.6333 106.04 50.9C104.373 49.1667 103.54 47.1167 103.54 44.75C103.54 39.3167 106.79 36.6 113.29 36.6H116.04V36.1C116.04 35.2333 115.89 34.6833 115.59 34.45C115.323 34.1833 114.673 34.05 113.64 34.05C112.373 34.05 110.573 34.3167 108.24 34.85ZM112.24 44.05C112.24 44.7833 112.44 45.35 112.84 45.75C113.24 46.1167 113.74 46.3 114.34 46.3C114.973 46.3 115.54 46.05 116.04 45.55V41.7H114.64C113.04 41.7 112.24 42.4833 112.24 44.05ZM130.92 18.4C130.92 17.8667 132.437 17.6 135.47 17.6C138.303 17.7 139.72 17.9167 139.72 18.25V37.45L144.67 28.3C144.903 27.8 146.32 27.55 148.92 27.55C151.52 27.55 153.187 27.7167 153.92 28.05L147.42 38.65L154.92 52.7C154.987 52.8333 154.353 52.9333 153.02 53C151.72 53.1 150.637 53.15 149.77 53.15C146.57 53.15 144.853 53 144.62 52.7L139.67 41.6V52.65C139.67 53.0833 138.203 53.3 135.27 53.3C132.37 53.3 130.92 53.1 130.92 52.7V18.4ZM175.113 51.65C173.013 52.8833 170.313 53.5 167.013 53.5C163.713 53.5 160.93 52.3833 158.663 50.15C156.396 47.8833 155.263 44.7667 155.263 40.8C155.263 36.8 156.346 33.5833 158.513 31.15C160.713 28.7167 163.48 27.5 166.813 27.5C170.146 27.5 172.713 28.35 174.513 30.05C176.346 31.75 177.263 33.8167 177.263 36.25C177.263 41.65 174.163 44.35 167.963 44.35H164.513C164.513 45.35 164.78 46.05 165.313 46.45C165.88 46.8167 166.696 47 167.763 47C170.096 47 172.313 46.4667 174.413 45.4C174.446 45.3667 174.596 45.6 174.863 46.1C175.663 47.5333 176.063 48.75 176.063 49.75C176.063 50.7167 175.746 51.35 175.113 51.65ZM168.863 37.2C168.863 35.8 168.18 35.1 166.813 35.1C166.18 35.1 165.63 35.3 165.163 35.7C164.73 36.0667 164.513 36.6167 164.513 37.35V38.9H167.213C168.313 38.9 168.863 38.3333 168.863 37.2ZM191.003 44C193.703 45.6333 195.836 46.45 197.403 46.45C198.403 46.45 198.903 46.1 198.903 45.4C198.903 44.9 198.036 44.25 196.303 43.45C192.136 41.75 190.053 38.9667 190.053 35.1C190.053 32.6333 190.953 30.75 192.753 29.45C194.553 28.15 196.703 27.5 199.203 27.5C201.736 27.5 203.87 27.7667 205.603 28.3C207.37 28.8333 208.253 29.5333 208.253 30.4C208.253 31.1333 207.886 32.1 207.153 33.3C206.453 34.5 205.97 35.15 205.703 35.25C204.27 34.45 202.72 34.05 201.053 34.05C200.153 34.05 199.703 34.3667 199.703 35C199.703 35.4 199.87 35.75 200.203 36.05C200.57 36.3167 201.22 36.6667 202.153 37.1C203.086 37.5 203.853 37.8667 204.453 38.2C205.086 38.5333 205.786 39 206.553 39.6C208.153 40.8667 208.953 42.5167 208.953 44.55C208.953 47.2167 208.07 49.3833 206.303 51.05C204.536 52.6833 201.87 53.5 198.303 53.5C195.936 53.5 193.786 53.1 191.853 52.3C189.92 51.5 188.953 50.4 188.953 49C188.953 48.0667 189.17 47.0833 189.603 46.05C190.07 45.0167 190.536 44.3333 191.003 44ZM223.963 52.7C223.963 53.1 222.563 53.3 219.763 53.3C216.43 53.1667 214.763 52.95 214.763 52.65V34.95H212.213C211.546 34.95 211.213 33.8 211.213 31.5C211.213 30.9 211.263 30.1667 211.363 29.3C211.496 28.4333 211.746 28 212.113 28H214.763V23.6C214.763 22.9333 216.163 22.6 218.963 22.6C221.796 22.6 223.213 22.8667 223.213 23.4V26.6L223.263 28H227.513C228.08 28 228.363 29.1667 228.363 31.5C228.363 33.8333 228.08 35 227.513 35H223.963V52.7ZM233.021 50.05C230.954 47.75 229.921 44.5667 229.921 40.5C229.921 36.4333 230.954 33.25 233.021 30.95C235.121 28.65 237.938 27.5 241.471 27.5C245.004 27.5 247.804 28.65 249.871 30.95C251.938 33.25 252.971 36.4333 252.971 40.5C252.971 44.5667 251.938 47.75 249.871 50.05C247.804 52.35 245.004 53.5 241.471 53.5C237.938 53.5 235.121 52.35 233.021 50.05ZM241.471 35.85C239.604 35.85 238.671 37.3833 238.671 40.45C238.671 43.5167 239.604 45.05 241.471 45.05C243.371 45.05 244.321 43.5167 244.321 40.45C244.321 37.3833 243.371 35.85 241.471 35.85ZM267.456 52.95C267.456 53.1833 265.939 53.3 262.906 53.3C259.873 53.2333 258.356 53.1 258.356 52.9V36.3H257.006C256.473 36.3 256.039 35.9833 255.706 35.35C255.406 34.6833 255.256 33.8667 255.256 32.9C255.256 29.3 256.323 27.5 258.456 27.5C259.956 27.5 261.206 27.9667 262.206 28.9C263.206 29.8 263.706 30.8333 263.706 32C264.406 30.6333 265.339 29.55 266.506 28.75C267.706 27.9167 268.923 27.5 270.156 27.5C272.089 27.5 273.256 28 273.656 29C273.756 29.2667 273.806 29.6667 273.806 30.2C273.806 30.7 273.639 31.6167 273.306 32.95C273.006 34.2833 272.689 35.25 272.356 35.85C272.023 36.45 271.823 36.75 271.756 36.75C271.689 36.75 271.373 36.6333 270.806 36.4C270.273 36.1333 269.789 36 269.356 36C268.089 36 267.456 37 267.456 39V52.95ZM295.23 51.65C293.13 52.8833 290.43 53.5 287.13 53.5C283.83 53.5 281.047 52.3833 278.78 50.15C276.513 47.8833 275.38 44.7667 275.38 40.8C275.38 36.8 276.463 33.5833 278.63 31.15C280.83 28.7167 283.597 27.5 286.93 27.5C290.263 27.5 292.83 28.35 294.63 30.05C296.463 31.75 297.38 33.8167 297.38 36.25C297.38 41.65 294.28 44.35 288.08 44.35H284.63C284.63 45.35 284.897 46.05 285.43 46.45C285.997 46.8167 286.813 47 287.88 47C290.213 47 292.43 46.4667 294.53 45.4C294.563 45.3667 294.713 45.6 294.98 46.1C295.78 47.5333 296.18 48.75 296.18 49.75C296.18 50.7167 295.863 51.35 295.23 51.65ZM288.98 37.2C288.98 35.8 288.297 35.1 286.93 35.1C286.297 35.1 285.747 35.3 285.28 35.7C284.847 36.0667 284.63 36.6167 284.63 37.35V38.9H287.33C288.43 38.9 288.98 38.3333 288.98 37.2Z" fill="#3E454F"/>
<path d="M0 35.5991C0 45.0406 3.75061 54.0953 10.4267 60.7715C17.1029 67.4476 26.1576 71.1982 35.5991 71.1982C45.0406 71.1982 54.0953 67.4476 60.7715 60.7715C67.4476 54.0953 71.1982 45.0406 71.1982 35.5991C71.1982 26.1576 67.4476 17.1029 60.7715 10.4267C54.0953 3.75061 45.0406 0 35.5991 0C26.1576 0 17.1029 3.75061 10.4267 10.4267C3.75061 17.1029 0 26.1576 0 35.5991" fill="#00B389"/>
<path d="M35.595 67.1901C53.0452 67.1901 67.1901 53.0452 67.1901 35.595C67.1901 18.1449 53.0452 4 35.595 4C18.1449 4 4 18.1449 4 35.595C4 53.0452 18.1449 67.1901 35.595 67.1901ZM35.595 6.43039C51.6769 6.43039 64.7597 19.5132 64.7597 35.595C64.7597 39.0073 64.1399 42.2713 63.0584 45.3166H35.595C30.2336 45.3166 25.8735 40.9565 25.8735 35.595C25.8735 30.2336 30.2336 25.8735 35.595 25.8735C40.9565 25.8735 45.3166 30.2336 45.3166 35.595H47.747C47.747 28.8945 42.2956 23.4431 35.595 23.4431C28.8945 23.4431 23.4431 28.8945 23.4431 35.595C23.4431 42.2956 28.8945 47.747 35.595 47.747H62.0741C60.8419 50.4228 59.2184 52.8727 57.2717 55.0382H35.595C24.8746 55.0382 16.1519 46.3155 16.1519 35.595C16.1519 24.8746 24.8746 16.1519 35.595 16.1519C46.3155 16.1519 55.0382 24.8746 55.0382 35.595H57.4685C57.4685 23.5355 47.6571 13.7216 35.595 13.7216C23.533 13.7216 13.7216 23.5355 13.7216 35.595C13.7216 47.6546 23.533 57.4685 35.595 57.4685H54.8219C49.684 61.9915 42.964 64.7597 35.595 64.7597C19.5132 64.7597 6.43039 51.6769 6.43039 35.595C6.43039 19.5132 19.5132 6.43039 35.595 6.43039Z" fill="white"/>
</svg>