<svg width="128" height="208" viewBox="0 0 128 208" fill="none" xmlns="http://www.w3.org/2000/svg">
<path d="M65.0921 32.9547C68.3988 28.412 72.1814 24.0933 75.5441 20.464C82.7814 12.652 91.2241 6.32131 100.06 0.999985C104.813 18.532 100.201 37.9173 91.4241 53.3866C85.8188 63.2693 78.6241 71.8626 70.9774 79.7986C66.6974 84.24 62.2321 88.3013 57.7921 92.632C57.4134 93.0013 56.8908 93.392 56.4481 93.124C56.1068 92.916 56.0174 92.4226 55.9654 91.9906C53.9454 75.4587 52.1041 57.6773 59.0361 42.8986C60.5921 39.584 62.7188 36.2107 65.0921 32.9547Z" fill="#86D393"/>
<path d="M65.0921 32.9547C68.3988 28.412 72.1814 24.0933 75.5441 20.464C82.7814 12.652 91.2241 6.32131 100.06 0.999981C104.813 18.532 100.201 37.9173 91.4241 53.3866C85.8188 63.2693 78.6241 71.8626 70.9774 79.7986C66.6974 84.24 62.2321 88.3013 57.7921 92.632C57.4134 93.0013 56.8908 93.392 56.4481 93.124C56.1068 92.916 56.0174 92.4226 55.9654 91.9906C53.9454 75.4587 52.1041 57.6773 59.0361 42.8986C60.5921 39.584 62.7188 36.2107 65.0921 32.9547V32.9547Z" stroke="#040606" stroke-width="0.666667" stroke-miterlimit="10"/>
<path d="M1 52.6747C1.086 63.8827 1.33187 75.2547 4.21667 85.988C7.1016 96.7227 12.9787 106.913 21.8533 112.131C26.664 114.959 32.0773 116.196 37.1907 118.256C42.328 120.325 46.8747 123.428 49.9773 128.52C51.5933 113.251 44.7667 96.8107 37.4453 84.3454C28.8507 69.7107 15.9373 58.1387 1 52.6747Z" fill="#86D393"/>
<path d="M1 52.6747C1.086 63.8827 1.33187 75.2547 4.21667 85.988C7.1016 96.7227 12.9787 106.913 21.8533 112.131C26.664 114.959 32.0773 116.196 37.1907 118.256C42.328 120.325 46.8747 123.428 49.9773 128.52C51.5933 113.251 44.7667 96.8107 37.4453 84.3454C28.8507 69.7107 15.9373 58.1387 1 52.6747V52.6747Z" stroke="#040606" stroke-width="0.666667" stroke-miterlimit="10"/>
<path d="M84.2321 85.9999C96.9267 76.5452 112.116 72.4025 127.001 68.6772C122.647 82.2559 118.087 96.2212 109.38 106.867C101.252 116.807 89.9667 123.116 78.2027 126.019C75.9801 126.567 62.0907 132.532 61.2107 131.987C59.0441 130.644 62.4481 121.987 62.9374 119.921C66.2961 105.708 73.1507 94.2545 84.2321 85.9999Z" fill="#86D393"/>
<path d="M84.2321 85.9999C96.9267 76.5452 112.116 72.4026 127.001 68.6772C122.647 82.2559 118.087 96.2212 109.38 106.867C101.252 116.807 89.9667 123.116 78.2027 126.019C75.9801 126.567 62.0907 132.532 61.2107 131.987C59.0441 130.644 62.4481 121.987 62.9374 119.921C66.2961 105.708 73.1507 94.2545 84.2321 85.9999V85.9999Z" stroke="#040606" stroke-width="0.666667" stroke-miterlimit="10"/>
<path d="M56.5547 156.216L55.8907 156.158C56.7014 146.953 57.6187 136.52 62.6321 128.225C65.6814 123.181 69.9841 119.366 74.1441 115.677L97.8654 94.6425L98.3081 95.1425L74.5867 116.177C70.4627 119.832 66.2001 123.612 63.2027 128.569C58.2694 136.732 57.3587 147.084 56.5547 156.216Z" fill="#130A0A"/>
<path d="M52.2735 172.94C51.0668 166.41 51.3295 159.633 51.5855 153.079C51.7601 148.557 51.9415 143.884 51.6415 139.328C50.3188 119.277 39.9721 101.699 30.3801 86.7946L30.9401 86.432C40.5775 101.407 50.9721 119.075 52.3055 139.284C52.6095 143.875 52.4281 148.567 52.2508 153.104C51.9975 159.621 51.7361 166.363 52.9295 172.82L52.2735 172.94Z" fill="#130A0A"/>
<path d="M54.3254 164.827L53.6587 164.816L54.1947 128.347C54.336 118.709 54.4854 108.745 55.9747 99.076C58.8294 80.5427 66.4427 63.5227 73.808 47.0627L74.4174 47.336C67.0707 63.756 59.4747 80.7333 56.6333 99.1773C55.1507 108.801 55.0027 118.743 54.8613 128.357L54.3254 164.827Z" fill="#130A0A"/>
<path d="M31.2174 206.684C31.2174 206.684 79.7174 206.974 79.7401 206.684L82.8201 155.977H27.3694C27.3694 155.977 31.208 206.589 31.2174 206.684Z" fill="#F2596D"/>
<path d="M31.2174 206.684C31.2174 206.684 79.7174 206.974 79.7401 206.684L82.8201 155.977H27.3694C27.3694 155.977 31.208 206.589 31.2174 206.684V206.684Z" stroke="#040606" stroke-width="0.666667" stroke-miterlimit="10"/>
<path d="M30.9361 171.635C35.1161 169.606 38.5174 167.529 43.8454 168.121C46.1587 168.379 48.7854 168.974 50.5947 167.509C51.2934 166.945 51.752 166.145 52.2507 165.399C54.4254 162.147 57.708 159.677 61.3854 158.368C63.6654 157.556 68.64 155.977 70.9787 155.977H27.3694L28.8587 172.591C29.5787 172.281 30.2667 171.958 30.9361 171.635Z" fill="#130A0A"/>
<path d="M85.0921 146.771L27.1281 146.849C26.6307 146.849 26.1507 146.903 25.6841 146.985V160.389C26.1547 160.475 26.6347 160.529 27.1281 160.529L83.8841 160.412L85.0921 146.771Z" fill="#F2596D"/>
<path d="M85.0921 146.771L27.1281 146.849C26.6307 146.849 26.1507 146.903 25.6841 146.985V160.389C26.1547 160.475 26.6347 160.529 27.1281 160.529L83.8841 160.412L85.0921 146.771Z" stroke="#040606" stroke-width="0.666667" stroke-miterlimit="10"/>
<path d="M3.76831 206.684H91.2694" stroke="#171717" stroke-width="0.666667" stroke-miterlimit="10"/>
<path d="M95.1627 206.684H108.516" stroke="#171717" stroke-width="0.666667" stroke-miterlimit="10"/>
<path d="M119.107 85.1306C117.745 89.0293 116.129 92.8386 114.272 96.5266" stroke="#171717" stroke-width="0.666667" stroke-miterlimit="10"/>
<path d="M112.717 98.5972C111.885 99.9252 110.963 101.197 109.955 102.397" stroke="#171717" stroke-width="0.666667" stroke-miterlimit="10"/>
<path d="M97.2107 23.3239C95.9894 29.6306 93.9934 35.7852 91.2827 41.6079" stroke="#171717" stroke-width="0.666667" stroke-miterlimit="10"/>
<path d="M90.2561 44.7186C89.0614 46.856 87.8654 48.9933 86.6708 51.1306" stroke="#171717" stroke-width="0.666667" stroke-miterlimit="10"/>
<path d="M94.0881 41.8028C93.3388 43.2401 92.5894 44.6788 91.8401 46.1174" stroke="#171717" stroke-width="0.666667" stroke-miterlimit="10"/>
<path d="M12.5161 98.3718C14.9521 103.629 19.7761 107.721 25.3601 109.268" stroke="#171717" stroke-width="0.666667" stroke-miterlimit="10"/>
<path d="M79.2214 167.663C79.0094 173.884 78.6547 180.101 78.16 186.309" stroke="#171717" stroke-width="0.666667" stroke-miterlimit="10"/>
<path d="M78.3095 188.551C78.2121 189.876 78.1134 191.2 78.0161 192.527" stroke="#171717" stroke-width="0.666667" stroke-miterlimit="10"/>
</svg>
