<svg width="194" height="157" viewBox="0 0 194 157" fill="none" xmlns="http://www.w3.org/2000/svg">
<path d="M112.07 59.3321C111.355 62.3872 111.026 65.6174 110.714 68.7033C109.148 84.2099 106.257 99.9107 98.7125 113.59C104.565 114.444 108.882 115.396 114.726 113.53C119.694 111.947 124.218 108.834 127.007 104.418C128.666 101.787 129.693 98.818 130.551 95.836C132.243 89.9527 133.904 84.2714 131.193 78.4401C130.578 77.1184 129.513 76.0564 128.748 74.8135C125.432 69.4247 126.208 63.1741 126.416 57.287C126.502 54.9187 126.364 52.4156 125.086 50.4109C124.072 48.8218 123.004 47.0865 120.813 47.3693C119.524 47.5347 118.392 48.2985 117.437 49.172C114.515 51.85 112.981 55.4516 112.07 59.3321" fill="#040606"/>
<path d="M168.288 113.066C157.897 109.18 146.714 107.926 135.643 107.008C129.991 106.538 121.013 106.975 115.366 107.514C102.675 108.722 94.0452 113.792 84.1875 121.789C81.2198 124.198 78.3578 126.87 76.5634 130.225C74.7672 133.583 74.1724 137.752 75.8074 141.186C77.8959 145.574 82.9005 147.706 87.5577 149.216C117.205 158.839 150.143 158.203 179.387 147.444C182.781 146.196 186.187 144.78 188.937 142.45C202.651 130.826 178.047 116.716 168.288 113.066" fill="#E981C6"/>
<path d="M168.288 113.066C157.897 109.18 146.714 107.926 135.643 107.008C129.991 106.538 121.013 106.975 115.366 107.514C102.675 108.722 94.0452 113.792 84.1875 121.789C81.2198 124.198 78.3578 126.87 76.5634 130.225C74.7672 133.583 74.1724 137.752 75.8074 141.186C77.8959 145.574 82.9005 147.706 87.5577 149.216C117.205 158.839 150.143 158.203 179.387 147.444C182.781 146.196 186.187 144.78 188.937 142.45C202.651 130.826 178.047 116.716 168.288 113.066V113.066Z" stroke="#040606" stroke-width="0.666667" stroke-miterlimit="10"/>
<path d="M146.101 116.956C143.931 118.553 141.801 120.208 139.718 121.916C136.736 124.359 133.972 127.311 129.769 126.593C127.737 126.245 125.87 125.277 124.104 124.223C117.714 120.41 111.543 115.56 108.929 108.645C111.504 107.654 117.954 107.169 118.273 103.984C118.629 100.42 118.844 96.8382 118.885 93.2578C118.904 91.6783 118.992 91.2416 117.852 90.2893C112.177 85.543 110.377 79.9387 110.457 72.5856C110.53 65.8866 111.099 59.1954 112.159 52.5791C119.413 51.7576 129.343 49.2469 135.375 53.997C139.899 57.562 143.273 62.387 145.242 67.6835C147.49 73.7303 146.136 73.9054 144.841 80.1061C143.664 85.7412 142.999 91.7457 143.845 97.4712C144.261 100.278 145.082 103.218 146.951 105.44C149.412 108.366 153.998 109.078 157.503 110.19C155.332 110.659 153.412 111.877 151.574 113.11C149.723 114.353 147.898 115.637 146.101 116.956" fill="white"/>
<path d="M146.101 116.956C143.931 118.553 141.801 120.208 139.718 121.916C136.736 124.359 133.972 127.311 129.769 126.593C127.737 126.245 125.87 125.277 124.104 124.223C117.714 120.41 111.543 115.56 108.929 108.645C111.504 107.654 117.954 107.169 118.273 103.984C118.629 100.42 118.844 96.8382 118.885 93.2578C118.904 91.6783 118.992 91.2416 117.852 90.2893C112.177 85.543 110.377 79.9387 110.457 72.5856C110.53 65.8866 111.099 59.1954 112.159 52.5791C119.413 51.7576 129.343 49.2469 135.375 53.997C139.899 57.562 143.273 62.387 145.242 67.6835C147.49 73.7303 146.136 73.9054 144.841 80.1061C143.664 85.7412 142.999 91.7457 143.845 97.4712C144.261 100.278 145.082 103.218 146.951 105.44C149.412 108.366 153.998 109.078 157.503 110.19C155.332 110.659 153.412 111.877 151.574 113.11C149.723 114.353 147.898 115.637 146.101 116.956V116.956Z" stroke="#171717" stroke-width="0.666667" stroke-miterlimit="10"/>
<path d="M158.987 114.65C153.55 114.69 148.114 114.426 142.711 113.861C144.528 100.619 141.595 87.8113 140.095 74.7789C139.936 73.3937 139.938 71.2447 139.292 69.6325C139.033 68.9918 138.599 68.5204 138.263 67.9394C137.944 67.3892 138.047 66.6735 138.061 66.0309C138.063 65.9693 138.059 65.9001 138.008 65.8674C137.963 65.8366 137.905 65.85 137.855 65.8674C137.075 66.1136 136.075 66.6562 135.67 67.3969C135.571 67.5758 134.892 69.2515 134.976 69.2881C134.054 68.8841 133.288 68.1472 132.852 67.2487C132.49 66.508 132.356 65.6827 132.259 64.867C132.164 64.0647 132.274 63.0835 131.882 62.3601C131.065 60.8537 129.147 61.0422 127.424 60.8575C128.285 58.8509 128.509 56.5808 128.058 54.4472C127.206 55.6381 126.543 56.9617 126.095 58.3507C125.86 59.0914 125.665 59.8803 125.132 60.4497C123.694 61.985 118.141 60.719 116.246 60.6325C115.315 60.5882 105.625 59.7032 105.57 59.8706C107.298 54.6953 109.5 49.322 113.925 46.0725C118.873 42.4402 125.494 42.2382 131.656 42.1843C137.516 42.1305 144.555 44.0851 149.742 46.7439C159.01 51.4901 162.204 62.2293 164.95 71.3831C165.724 73.9573 165.831 76.6739 166.187 79.3366C166.854 84.306 168.396 89.1118 169.943 93.8869C171.833 99.7182 173.992 105.909 178.903 109.642C172.882 114.094 166.236 114.596 158.987 114.65" fill="#040606"/>
<path d="M139.517 77.8878C139.537 77.8878 139.556 77.8897 139.576 77.8878C143.437 77.8243 146.463 74.6326 146.809 71.1485C147.163 67.5835 143.855 64.8016 140.253 64.8631C138.343 64.8958 136.964 65.7539 136.013 67.0352" fill="white"/>
<path d="M139.517 77.8878C139.537 77.8878 139.556 77.8897 139.576 77.8878C143.437 77.8243 146.463 74.6326 146.809 71.1485C147.163 67.5835 143.855 64.8016 140.253 64.8631C138.343 64.8958 136.964 65.7539 136.013 67.0352" stroke="#171717" stroke-width="0.666667" stroke-miterlimit="10"/>
<path d="M119.064 94.4505C119.068 93.5712 118.982 92.669 118.659 91.8436C118.506 91.2184 118.24 90.6412 117.794 90.2006L117.789 90.1371C121.499 92.8363 127.647 92.0014 128.785 90.5777C126.488 94.3658 122.861 95.8857 118.922 96.5244C118.996 95.8357 119.062 95.145 119.064 94.4505" fill="#040606"/>
<path d="M141.424 68.2415C140.087 68.3165 138.815 69.1034 138.16 70.2558C137.504 71.4101 137.485 72.8935 138.111 74.0613" stroke="#171717" stroke-width="0.666667" stroke-miterlimit="10"/>
<path d="M123.929 79.0382C123.322 81.2776 120.862 82.5898 118.518 82.5532C115.387 82.507 113.946 80.9968 113.133 78.5881L123.929 79.0382" fill="#F2596D"/>
<path d="M123.929 79.0382C123.322 81.2776 120.862 82.5898 118.518 82.5532C115.387 82.507 113.946 80.9968 113.133 78.5881L123.929 79.0382Z" stroke="#040606" stroke-width="0.666667" stroke-miterlimit="10"/>
<path d="M191.631 83.6728C191.631 116.077 165.074 142.346 132.315 142.346C99.5565 142.346 73 116.077 73 83.6728C73 51.2687 99.5565 24.9999 132.315 24.9999C165.074 24.9999 191.631 51.2687 191.631 83.6728V83.6728Z" stroke="#171717" stroke-width="0.666667" stroke-miterlimit="10"/>
<path d="M65.0874 15.9999H67.2111C67.2111 20.4661 70.8333 24.0873 75.2994 24.0873V26.212C70.8333 26.212 67.2111 29.8331 67.2111 34.2993H65.0874C65.0874 29.8331 61.4672 26.212 57 26.212V24.0873C61.4672 24.0873 65.0874 20.4661 65.0874 15.9999Z" fill="#8198E9"/>
<path d="M48.0874 57H49.0256C49.0256 61.4672 52.6478 65.0884 57.1149 65.0884V66.0276C52.6478 66.0276 49.0256 69.6478 49.0256 74.115H48.0874C48.0874 69.6478 44.4672 66.0276 40 66.0276V65.0884C44.4672 65.0884 48.0874 61.4672 48.0874 57Z" fill="#BB81E9"/>
<path d="M31.0874 104H32.0256C32.0256 108.467 35.6478 112.088 40.1149 112.088V113.028C35.6478 113.028 32.0256 116.648 32.0256 121.115H31.0874C31.0874 116.648 27.4672 113.028 23 113.028V112.088C27.4672 112.088 31.0874 108.467 31.0874 104Z" fill="#E781E9"/>
<path d="M121.087 -5.45246e-07C121.087 4.46715 124.709 8.08837 129.176 8.08837C124.709 8.08837 121.087 11.7096 121.087 16.1758C121.087 11.7096 117.466 8.08837 113 8.08837C117.466 8.08837 121.087 4.46715 121.087 -5.45246e-07Z" fill="#9C81E9"/>
<path d="M8.08739 67C8.08739 71.4672 11.7086 75.0884 16.1758 75.0884C11.7086 75.0884 8.08739 78.7096 8.08739 83.1758C8.08739 78.7096 4.46617 75.0884 0 75.0884C4.46617 75.0884 8.08739 71.4672 8.08739 67Z" fill="#6783E6"/>
</svg>
