<svg width="60" height="60" viewBox="0 0 60 60" fill="none" xmlns="http://www.w3.org/2000/svg">
<path d="M58.1997 0H1.80102C0.945121 0 0.251465 0.693656 0.251465 1.54956V58.4504C0.251465 59.3064 0.945121 60 1.80102 60H20.5497V59.9864C21.3959 59.9767 22.0442 59.5029 22.074 58.7013C22.1509 56.6178 22.0966 54.5299 22.0966 52.5156C20.5866 52.586 19.1449 52.7768 17.7196 52.6946C14.5759 52.5135 12.1602 51.1722 10.9074 48.0939C10.1652 46.2702 9.04696 44.7104 7.30537 43.6696C6.98015 43.475 6.6958 43.1885 6.44694 42.8976C6.12171 42.5182 6.18255 42.1285 6.69643 42.0243C7.21485 41.9189 7.78123 41.8453 8.29246 41.9409C10.3003 42.3177 11.6888 43.577 12.7516 45.252C14.8532 48.5656 18.088 49.58 21.7274 48.0497C21.9303 47.9644 22.1883 47.7576 22.2265 47.5688C22.52 46.102 23.0682 44.7645 24.1729 43.5919C22.9447 43.3644 21.807 43.197 20.6912 42.9383C17.4784 42.1949 14.5921 40.8574 12.4814 38.2011C10.7594 36.0343 9.97194 33.4977 9.60995 30.7981C9.04305 26.5697 9.55049 22.6117 12.4543 19.2327C12.601 19.062 12.6805 18.7122 12.6153 18.4996C11.888 16.1233 11.9991 13.767 12.7199 11.4172C13.0982 10.1831 13.2035 10.1216 14.4628 10.2936C14.5398 10.304 14.6147 10.3233 14.6911 10.3363C17.2153 10.7539 19.3881 11.9763 21.5284 13.2886C21.8162 13.4651 22.2544 13.5749 22.5706 13.498C27.6826 12.2575 32.7849 12.2627 37.8964 13.5026C38.1931 13.5743 38.5894 13.4722 38.8731 13.3235C40.0367 12.7152 41.1505 12.008 42.329 11.4313C43.7001 10.761 45.1442 10.2567 46.6989 10.2845C46.971 10.2897 47.392 10.5495 47.483 10.7901C48.4184 13.2685 48.6157 15.7942 47.8702 18.3735C47.7907 18.6488 47.909 19.0413 48.0571 19.3127C48.7928 20.6625 49.8199 21.9082 50.2854 23.34C51.7044 27.7041 51.1873 32.0256 49.2556 36.1272C47.4856 39.8869 44.2031 41.792 40.3173 42.7747C39.005 43.1064 37.6605 43.308 36.2448 43.586C38.1 45.5241 38.3909 47.8893 38.358 50.3665C38.3237 52.9218 38.3328 55.4779 38.3314 58.0338C38.3308 59.2718 38.8712 59.9557 39.8143 59.9958C39.8137 59.9997 59.7487 59.9997 59.7487 59.9997V1.54956C59.7485 0.693656 59.0549 0 58.1997 0Z" fill="#3E454F"/>
</svg>
