<svg width="46" height="48" viewBox="0 0 46 48" fill="none" xmlns="http://www.w3.org/2000/svg">
<g clip-path="url(#clip0)">
<path d="M44.4801 0H1.37653C0.722398 0 0.192261 0.554289 0.192261 1.23822V46.7068C0.192261 47.3908 0.722398 47.945 1.37653 47.945H15.7055V47.9341C16.3522 47.9264 16.8477 47.5478 16.8705 46.9073C16.9293 45.2424 16.8878 43.5739 16.8878 41.9643C15.7337 42.0206 14.6319 42.1731 13.5426 42.1074C11.14 41.9627 9.29372 40.8909 8.33622 38.431C7.76902 36.9738 6.91436 35.7274 5.58333 34.8956C5.33477 34.7402 5.11745 34.5113 4.92725 34.2788C4.67869 33.9756 4.72519 33.6642 5.11793 33.5809C5.51414 33.4967 5.947 33.4379 6.33772 33.5143C7.87227 33.8154 8.93344 34.8217 9.74572 36.1601C11.3519 38.808 13.8242 39.6185 16.6056 38.3958C16.7607 38.3276 16.9578 38.1623 16.9871 38.0115C17.2113 36.8393 17.6303 35.7706 18.4746 34.8336C17.5359 34.6518 16.6664 34.518 15.8137 34.3113C13.3582 33.7173 11.1523 32.6485 9.53922 30.5259C8.22312 28.7944 7.62129 26.7675 7.34464 24.6103C6.91137 21.2315 7.29919 18.0686 9.51847 15.3685C9.6306 15.2321 9.69139 14.9526 9.6415 14.7827C9.08569 12.8839 9.17061 11.001 9.7215 9.12327C10.0106 8.13717 10.0911 8.08805 11.0535 8.22546C11.1124 8.23373 11.1696 8.24917 11.228 8.25956C13.1572 8.59329 14.8177 9.57003 16.4535 10.6187C16.6734 10.7597 17.0084 10.8475 17.25 10.7861C21.157 9.7948 25.0565 9.79894 28.963 10.7897C29.1897 10.847 29.4926 10.7654 29.7095 10.6466C30.5988 10.1605 31.45 9.59544 32.3507 9.13458C33.3986 8.59895 34.5023 8.196 35.6905 8.2182C35.8984 8.22233 36.2201 8.42997 36.2897 8.62216C37.0047 10.6026 37.1554 12.6209 36.5857 14.6819C36.5249 14.902 36.6153 15.2156 36.7285 15.4325C37.2908 16.5111 38.0757 17.5065 38.4315 18.6506C39.516 22.1379 39.1208 25.5912 37.6445 28.8687C36.2918 31.873 33.783 33.3953 30.8133 34.1806C29.8103 34.4456 28.7827 34.6067 27.7007 34.8289C29.1186 36.3775 29.341 38.2675 29.3158 40.247C29.2896 42.2889 29.2966 44.3315 29.2955 46.3739C29.295 47.3631 29.708 47.9097 30.4288 47.9417C30.4284 47.9448 45.664 47.9448 45.664 47.9448V1.23822C45.6638 0.554289 45.1338 0 44.4801 0Z" fill="white"/>
</g>
<defs>
<clipPath id="clip0">
<rect width="45.856" height="47.945" rx="10" fill="white"/>
</clipPath>
</defs>
</svg>
