<svg width="60" height="60" viewBox="0 0 60 60" fill="none" xmlns="http://www.w3.org/2000/svg">
<path d="M29.9993 24.034C26.7106 24.034 24.0326 26.7106 24.0326 29.9993C24.0326 33.2894 26.7106 35.9674 29.9993 35.9674C33.2894 35.9674 35.966 33.2894 35.966 29.9993C35.966 26.7106 33.2894 24.034 29.9993 24.034ZM29.9993 24.034C26.7106 24.034 24.0326 26.7106 24.0326 29.9993C24.0326 33.2894 26.7106 35.9674 29.9993 35.9674C33.2894 35.9674 35.966 33.2894 35.966 29.9993C35.966 26.7106 33.2894 24.034 29.9993 24.034ZM39.9394 14.3058H20.0606C16.8876 14.3058 14.3058 16.8876 14.3058 20.0606V39.9394C14.3058 43.1124 16.8876 45.6942 20.0606 45.6942H39.9394C43.1124 45.6942 45.6942 43.1124 45.6942 39.9394V20.0606C45.6942 16.8876 43.1124 14.3058 39.9394 14.3058ZM29.9993 40.3331C24.3025 40.3331 19.6669 35.6975 19.6669 29.9993C19.6669 24.3025 24.3025 19.6669 29.9993 19.6669C35.6975 19.6669 40.3331 24.3025 40.3331 29.9993C40.3331 35.6975 35.6975 40.3331 29.9993 40.3331ZM40.6649 21.8037C39.3167 21.8037 38.22 20.707 38.22 19.3588C38.22 18.0107 39.3167 16.914 40.6649 16.914C42.013 16.914 43.1097 18.0107 43.1097 19.3588C43.1097 20.707 42.013 21.8037 40.6649 21.8037ZM29.9993 24.034C26.7106 24.034 24.0326 26.7106 24.0326 29.9993C24.0326 33.2894 26.7106 35.9674 29.9993 35.9674C33.2894 35.9674 35.966 33.2894 35.966 29.9993C35.966 26.7106 33.2894 24.034 29.9993 24.034ZM39.9394 14.3058H20.0606C16.8876 14.3058 14.3058 16.8876 14.3058 20.0606V39.9394C14.3058 43.1124 16.8876 45.6942 20.0606 45.6942H39.9394C43.1124 45.6942 45.6942 43.1124 45.6942 39.9394V20.0606C45.6942 16.8876 43.1124 14.3058 39.9394 14.3058ZM29.9993 40.3331C24.3025 40.3331 19.6669 35.6975 19.6669 29.9993C19.6669 24.3025 24.3025 19.6669 29.9993 19.6669C35.6975 19.6669 40.3331 24.3025 40.3331 29.9993C40.3331 35.6975 35.6975 40.3331 29.9993 40.3331ZM40.6649 21.8037C39.3167 21.8037 38.22 20.707 38.22 19.3588C38.22 18.0107 39.3167 16.914 40.6649 16.914C42.013 16.914 43.1097 18.0107 43.1097 19.3588C43.1097 20.707 42.013 21.8037 40.6649 21.8037ZM29.9993 24.034C26.7106 24.034 24.0326 26.7106 24.0326 29.9993C24.0326 33.2894 26.7106 35.9674 29.9993 35.9674C33.2894 35.9674 35.966 33.2894 35.966 29.9993C35.966 26.7106 33.2894 24.034 29.9993 24.034ZM0 0V60H60V0H0ZM50.0599 39.9394C50.0599 45.5204 45.5204 50.0599 39.9394 50.0599H20.0606C14.4796 50.0599 9.9401 45.5204 9.9401 39.9394V20.0606C9.9401 14.4796 14.4796 9.9401 20.0606 9.9401H39.9394C45.5204 9.9401 50.0599 14.4796 50.0599 20.0606V39.9394ZM39.9394 14.3058H20.0606C16.8876 14.3058 14.3058 16.8876 14.3058 20.0606V39.9394C14.3058 43.1124 16.8876 45.6942 20.0606 45.6942H39.9394C43.1124 45.6942 45.6942 43.1124 45.6942 39.9394V20.0606C45.6942 16.8876 43.1124 14.3058 39.9394 14.3058ZM29.9993 40.3331C24.3025 40.3331 19.6669 35.6975 19.6669 29.9993C19.6669 24.3025 24.3025 19.6669 29.9993 19.6669C35.6975 19.6669 40.3331 24.3025 40.3331 29.9993C40.3331 35.6975 35.6975 40.3331 29.9993 40.3331ZM40.6649 21.8037C39.3167 21.8037 38.22 20.707 38.22 19.3588C38.22 18.0107 39.3167 16.914 40.6649 16.914C42.013 16.914 43.1097 18.0107 43.1097 19.3588C43.1097 20.707 42.013 21.8037 40.6649 21.8037ZM29.9993 24.034C26.7106 24.034 24.0326 26.7106 24.0326 29.9993C24.0326 33.2894 26.7106 35.9674 29.9993 35.9674C33.2894 35.9674 35.966 33.2894 35.966 29.9993C35.966 26.7106 33.2894 24.034 29.9993 24.034ZM29.9993 24.034C26.7106 24.034 24.0326 26.7106 24.0326 29.9993C24.0326 33.2894 26.7106 35.9674 29.9993 35.9674C33.2894 35.9674 35.966 33.2894 35.966 29.9993C35.966 26.7106 33.2894 24.034 29.9993 24.034ZM29.9993 24.034C26.7106 24.034 24.0326 26.7106 24.0326 29.9993C24.0326 33.2894 26.7106 35.9674 29.9993 35.9674C33.2894 35.9674 35.966 33.2894 35.966 29.9993C35.966 26.7106 33.2894 24.034 29.9993 24.034ZM39.9394 14.3058H20.0606C16.8876 14.3058 14.3058 16.8876 14.3058 20.0606V39.9394C14.3058 43.1124 16.8876 45.6942 20.0606 45.6942H39.9394C43.1124 45.6942 45.6942 43.1124 45.6942 39.9394V20.0606C45.6942 16.8876 43.1124 14.3058 39.9394 14.3058ZM29.9993 40.3331C24.3025 40.3331 19.6669 35.6975 19.6669 29.9993C19.6669 24.3025 24.3025 19.6669 29.9993 19.6669C35.6975 19.6669 40.3331 24.3025 40.3331 29.9993C40.3331 35.6975 35.6975 40.3331 29.9993 40.3331ZM40.6649 21.8037C39.3167 21.8037 38.22 20.707 38.22 19.3588C38.22 18.0107 39.3167 16.914 40.6649 16.914C42.013 16.914 43.1097 18.0107 43.1097 19.3588C43.1097 20.707 42.013 21.8037 40.6649 21.8037ZM29.9993 24.034C26.7106 24.034 24.0326 26.7106 24.0326 29.9993C24.0326 33.2894 26.7106 35.9674 29.9993 35.9674C33.2894 35.9674 35.966 33.2894 35.966 29.9993C35.966 26.7106 33.2894 24.034 29.9993 24.034ZM29.9993 24.034C26.7106 24.034 24.0326 26.7106 24.0326 29.9993C24.0326 33.2894 26.7106 35.9674 29.9993 35.9674C33.2894 35.9674 35.966 33.2894 35.966 29.9993C35.966 26.7106 33.2894 24.034 29.9993 24.034ZM29.9993 24.034C26.7106 24.034 24.0326 26.7106 24.0326 29.9993C24.0326 33.2894 26.7106 35.9674 29.9993 35.9674C33.2894 35.9674 35.966 33.2894 35.966 29.9993C35.966 26.7106 33.2894 24.034 29.9993 24.034ZM39.9394 14.3058H20.0606C16.8876 14.3058 14.3058 16.8876 14.3058 20.0606V39.9394C14.3058 43.1124 16.8876 45.6942 20.0606 45.6942H39.9394C43.1124 45.6942 45.6942 43.1124 45.6942 39.9394V20.0606C45.6942 16.8876 43.1124 14.3058 39.9394 14.3058ZM29.9993 40.3331C24.3025 40.3331 19.6669 35.6975 19.6669 29.9993C19.6669 24.3025 24.3025 19.6669 29.9993 19.6669C35.6975 19.6669 40.3331 24.3025 40.3331 29.9993C40.3331 35.6975 35.6975 40.3331 29.9993 40.3331ZM40.6649 21.8037C39.3167 21.8037 38.22 20.707 38.22 19.3588C38.22 18.0107 39.3167 16.914 40.6649 16.914C42.013 16.914 43.1097 18.0107 43.1097 19.3588C43.1097 20.707 42.013 21.8037 40.6649 21.8037ZM29.9993 24.034C26.7106 24.034 24.0326 26.7106 24.0326 29.9993C24.0326 33.2894 26.7106 35.9674 29.9993 35.9674C33.2894 35.9674 35.966 33.2894 35.966 29.9993C35.966 26.7106 33.2894 24.034 29.9993 24.034Z" fill="#3E454F"/>
</svg>
