<svg width="45" height="45" viewBox="0 0 45 45" fill="none" xmlns="http://www.w3.org/2000/svg">
<path d="M33.0469 2.63672C30.605 2.63672 28.3663 3.41051 26.3929 4.93664C24.5011 6.39976 23.2415 8.2633 22.5 9.6184C21.7585 8.26321 20.4989 6.39976 18.6071 4.93664C16.6337 3.41051 14.395 2.63672 11.9531 2.63672C5.13879 2.63672 0 8.21048 0 15.6018C0 23.587 6.41101 29.0504 16.1164 37.3212C17.7645 38.7257 19.6327 40.3178 21.5743 42.0158C21.8303 42.2399 22.159 42.3633 22.5 42.3633C22.841 42.3633 23.1697 42.2399 23.4257 42.0159C25.3675 40.3176 27.2355 38.7257 28.8846 37.3203C38.589 29.0504 45 23.587 45 15.6018C45 8.21048 39.8612 2.63672 33.0469 2.63672Z" fill="#3E454F"/>
</svg>
