<svg width="43" height="45" viewBox="0 0 43 45" fill="none" xmlns="http://www.w3.org/2000/svg">
<g clip-path="url(#clip0)">
<path d="M32.5411 33.4382C29.7932 33.4382 27.5273 35.7622 27.5273 38.6926C27.5273 41.5724 29.745 43.947 32.5411 43.947C35.289 43.947 37.5548 41.6229 37.5548 38.6926C37.5066 35.8128 35.289 33.4382 32.5411 33.4382Z" fill="white"/>
<path d="M41.3634 7.32585C41.267 7.32585 41.1223 7.27533 40.9777 7.27533H10.606L10.1239 3.89028C9.83465 1.66726 8.00271 0 5.8333 0H1.92836C0.867763 0 0 0.909416 0 2.02092C0 3.13243 0.867763 4.04185 1.92836 4.04185H5.8333C6.07434 4.04185 6.26718 4.24394 6.31539 4.49656L9.30435 25.8173C9.69002 28.495 11.9076 30.516 14.5109 30.516H34.5659C37.0728 30.516 39.2422 28.6466 39.7725 26.0699L42.9061 9.64991C43.0989 8.58893 42.424 7.52794 41.3634 7.32585Z" fill="white"/>
<path d="M20.2479 38.44C20.1514 35.6612 17.9338 33.4382 15.2823 33.4382C12.4862 33.5897 10.365 36.0148 10.4614 38.8947C10.5578 41.6734 12.7272 43.8965 15.3787 43.8965H15.4752C18.2231 43.7449 20.3925 41.3198 20.2479 38.44Z" fill="white"/>
</g>
<defs>
<clipPath id="clip0">
<rect width="42.9389" height="45" fill="white"/>
</clipPath>
</defs>
</svg>
