<svg id="Layer_1" enable-background="new 0 0 512 512" height="512" viewBox="0 0 512 512" width="512" xmlns="http://www.w3.org/2000/svg"><g><g><g><g><g><g><g><path d="m429.348 445.862c-109.601 41.436-237.189 41.729-346.763.037-11.642-4.43-16.49-18.274-10.105-28.969l118.237-198.044h130.566l118.206 197.993c6.394 10.709 1.526 24.572-10.141 28.983z" fill="#54768a"/><path d="m429.348 445.862c-109.601 41.436-237.189 41.729-346.763.037-11.642-4.43-16.49-18.274-10.105-28.969l118.237-198.044h130.566l118.206 197.993c6.394 10.709 1.526 24.572-10.141 28.983z" fill="#416a82"/><path d="m299.377 55.068c-17.996 0-33.876 8.996-43.377 22.712-9.501-13.717-25.381-22.712-43.377-22.712-29.09 0-52.672 23.49-52.672 52.466 0 37.251 30.766 71.94 30.766 71.94h130.566s30.766-35.685 30.766-71.94c0-28.976-23.582-52.466-52.672-52.466z" fill="#54768a"/><g><path d="m299.377 55.068c-7.078 0-13.819 1.409-19.983 3.932 19.161 7.849 32.656 26.618 32.656 48.534 0 36.254-30.766 71.94-30.766 71.94h40s30.766-35.685 30.766-71.94c-.001-28.976-23.583-52.466-52.673-52.466z" fill="#416a82"/></g><path d="m190.717 179.474h130.566v39.412h-130.566z" fill="#ffdb0d"/></g></g><path d="m295.611 218.885 73.632 244.605c3.089 10.26-2.458 21.13-12.575 24.662-64.111 22.382-136.563 21.111-200.96-.268-10.274-3.411-15.965-14.386-12.844-24.752l73.524-244.246h79.223z" fill="#54768a"/></g></g></g></g><g><path d="m328.783 216.817v-34.655c6.918-8.65 30.766-40.912 30.766-74.629 0-16.707-6.898-31.833-17.996-42.717v-57.549c0-9.386-15-9.813-15 0v46.792c-8.17-4.14-17.4-6.491-27.176-6.491-16.494 0-32.118 6.75-43.377 18.419-11.259-11.67-26.883-18.419-43.377-18.419-9.776 0-19.006 2.35-27.176 6.491v-46.792c0-9.386-15-9.813-15 0v57.55c-11.098 10.885-17.996 26.01-17.996 42.717 0 34.528 23.754 66.109 30.766 74.679v34.604l-117.176 196.268c-8.649 14.488-1.878 33.83 13.877 39.824 17.604 6.698 35.941 12.409 54.593 17.025.375 11.187 7.575 21.33 18.834 25.068 33.236 11.034 67.859 16.729 102.907 16.926.626.003 1.251.005 1.875.005 35.287 0 69.262-5.617 101.012-16.701 11.17-3.899 18.256-14.225 18.455-25.445 18.576-4.6 36.85-10.273 54.406-16.91 15.788-5.97 22.588-25.337 13.928-39.843zm-161.332-109.283c0-24.794 20.264-44.966 45.172-44.966 14.851 0 28.762 7.283 37.212 19.483 2.935 4.238 9.395 4.238 12.33 0 8.45-12.2 22.361-19.483 37.212-19.483 24.908 0 45.172 20.172 45.172 44.966 0 27.676-20.195 55.895-26.85 64.44h-23.174c-9.386 0-9.813 15 0 15h19.258v24.412h-115.566v-24.412h56.449c9.386 0 9.813-15 0-15h-60.42c-6.636-8.331-26.795-35.989-26.795-64.44zm186.745 373.537c-30.692 10.715-63.624 16.044-97.858 15.857-33.468-.188-66.529-5.626-98.266-16.163-6.335-2.103-9.933-9.141-8.025-15.473l14.376-47.758c2.706-8.987-11.536-13.721-14.363-4.323l-12.641 41.994c-17.826-4.441-35.344-9.916-52.167-16.316-7.173-2.729-10.274-11.511-6.332-18.115l116.054-194.389h11.325l-44.788 148.785c-2.672 8.872 11.434 14.058 14.363 4.324l46.089-153.108h68.073l72.002 239.192c.013.061.019.123.033.184.017.074.05.139.069.212 1.729 6.333-1.702 12.918-7.944 15.097zm79.923-49.835c-1.227 3.517-3.933 6.291-7.423 7.61-16.828 6.362-34.339 11.813-52.148 16.246l-68.846-228.707h11.324l116.024 194.338c1.899 3.183 2.289 7.014 1.069 10.513z"/><path d="m33.613 74.885v-11.114h11.114c4.143 0 7.5-3.358 7.5-7.5s-3.357-7.5-7.5-7.5h-11.114v-11.113c0-4.142-3.357-7.5-7.5-7.5s-7.5 3.358-7.5 7.5v11.113h-11.113c-4.143 0-7.5 3.358-7.5 7.5s3.357 7.5 7.5 7.5h11.113v11.114c0 4.142 3.357 7.5 7.5 7.5s7.5-3.358 7.5-7.5z"/><path d="m81.068 208.763h11.113v11.113c0 4.142 3.357 7.5 7.5 7.5s7.5-3.358 7.5-7.5v-11.113h11.114c4.143 0 7.5-3.358 7.5-7.5s-3.357-7.5-7.5-7.5h-11.114v-11.114c0-4.142-3.357-7.5-7.5-7.5s-7.5 3.358-7.5 7.5v11.114h-11.113c-4.143 0-7.5 3.358-7.5 7.5s3.358 7.5 7.5 7.5z"/><path d="m75.432 285.263c0-4.142-3.357-7.5-7.5-7.5h-11.114v-11.114c0-4.142-3.357-7.5-7.5-7.5s-7.5 3.358-7.5 7.5v11.114h-11.114c-4.143 0-7.5 3.358-7.5 7.5s3.357 7.5 7.5 7.5h11.114v11.113c0 4.142 3.357 7.5 7.5 7.5s7.5-3.358 7.5-7.5v-11.113h11.113c4.143 0 7.501-3.358 7.501-7.5z"/><path d="m504.5 48.771h-11.113v-11.113c0-4.142-3.357-7.5-7.5-7.5s-7.5 3.358-7.5 7.5v11.113h-11.114c-4.143 0-7.5 3.358-7.5 7.5s3.357 7.5 7.5 7.5h11.114v11.114c0 4.142 3.357 7.5 7.5 7.5s7.5-3.358 7.5-7.5v-11.114h11.113c4.143 0 7.5-3.358 7.5-7.5s-3.357-7.5-7.5-7.5z"/><path d="m393.704 208.763h11.114v11.113c0 4.142 3.357 7.5 7.5 7.5s7.5-3.358 7.5-7.5v-11.113h11.113c4.143 0 7.5-3.358 7.5-7.5s-3.357-7.5-7.5-7.5h-11.113v-11.114c0-4.142-3.357-7.5-7.5-7.5s-7.5 3.358-7.5 7.5v11.114h-11.114c-4.143 0-7.5 3.358-7.5 7.5s3.358 7.5 7.5 7.5z"/><path d="m481.296 277.763h-11.114v-11.114c0-4.142-3.357-7.5-7.5-7.5s-7.5 3.358-7.5 7.5v11.114h-11.113c-4.143 0-7.5 3.358-7.5 7.5s3.357 7.5 7.5 7.5h11.113v11.113c0 4.142 3.357 7.5 7.5 7.5s7.5-3.358 7.5-7.5v-11.113h11.114c4.143 0 7.5-3.358 7.5-7.5s-3.358-7.5-7.5-7.5z"/></g></g></svg>