<svg width="251" height="228" viewBox="0 0 251 228" fill="none" xmlns="http://www.w3.org/2000/svg">
<path d="M135.408 120.153C130.821 121.584 125.906 122.148 121.44 123.971C106.25 130.175 102.134 150.86 107.4 165.072C113.394 181.251 136.431 189.462 152.01 191.066C166.09 192.518 192.473 196.457 204.935 187.708C240.029 163.075 240.857 82.4493 188.253 79.9754C181.842 79.6742 175.178 80.5548 169.682 83.873C156.415 91.8848 153.382 111.544 139.539 118.517C138.21 119.186 136.824 119.712 135.408 120.153" fill="#D4D8F0"/>
<path d="M239.722 200.461H91.1531" stroke="#171717" stroke-width="0.666667" stroke-miterlimit="10"/>
<path d="M248.303 194.823H62.9597" stroke="#171717" stroke-width="0.666667" stroke-miterlimit="10"/>
<path d="M251 200.216H245.116" stroke="#171717" stroke-width="0.666667" stroke-miterlimit="10"/>
<path d="M152.473 147.88C155.288 151.034 158.627 153.962 162.205 156.223C164.298 157.546 166.541 158.601 168.72 159.764C168.769 159.826 168.824 159.883 168.872 159.946C169.571 160.851 170.264 161.936 170.042 163.059C169.778 164.396 168.34 165.152 167.007 165.439C163.477 166.202 158.225 165.78 154.734 164.911C147.444 163.098 140.297 159.929 135.226 154.215C130.076 148.409 127.793 140.793 127.038 133.219C126.245 125.272 125.742 118.063 128.853 110.422C129.763 108.185 130.935 105.987 132.743 104.386C134.551 102.784 137.097 101.86 139.432 102.473C141.555 103.03 143.221 104.776 144.13 106.774C145.038 108.771 145.278 111.007 145.332 113.2C145.471 119.001 143.984 124.577 144.46 130.405C145.002 137.04 148.1 142.982 152.473 147.88" fill="white"/>
<path d="M152.473 147.88C155.288 151.034 158.627 153.962 162.205 156.223C164.298 157.546 166.541 158.601 168.72 159.764C168.769 159.826 168.824 159.883 168.872 159.946C169.571 160.851 170.264 161.936 170.042 163.059C169.778 164.396 168.34 165.152 167.007 165.439C163.477 166.202 158.225 165.78 154.734 164.911C147.444 163.098 140.297 159.929 135.226 154.215C130.076 148.409 127.793 140.793 127.038 133.219C126.245 125.272 125.742 118.063 128.853 110.422C129.763 108.185 130.935 105.987 132.743 104.386C134.551 102.784 137.097 101.86 139.432 102.473C141.555 103.03 143.221 104.776 144.13 106.774C145.038 108.771 145.278 111.007 145.332 113.2C145.471 119.001 143.984 124.577 144.46 130.405C145.002 137.04 148.1 142.982 152.473 147.88V147.88Z" stroke="#040606" stroke-width="0.666667" stroke-miterlimit="10"/>
<path d="M148.156 90.4972C148.086 90.1183 148.026 89.7394 147.97 89.3605C147.419 85.5777 146.903 80.8462 151.02 79.6512C152.587 79.1964 154.702 78.7027 156.674 78.4668C157.923 78.3176 158.884 77.3213 158.989 76.068C159.161 74.0013 159.389 71.9398 159.669 69.8854C152.839 69.7211 150.524 63.0855 149.654 57.3189C148.637 50.5755 148.848 42.1575 154.79 37.6407C158.576 34.7613 163.879 34.0724 168.328 35.755C172.777 37.4384 176.264 41.3891 177.524 45.9765C178.456 49.369 178.437 53.5422 178.236 57.0433C178.009 61.0081 177.276 64.9261 177.055 68.8918C176.905 71.5591 177.133 74.6663 178.579 76.9945C179.236 78.0535 180.052 78.9561 181.173 79.5329C181.986 79.9507 184.11 79.7263 184.617 80.2819C187.506 83.4588 190.209 86.8239 193.35 89.7403C185.944 92.8466 178.199 95.0715 170.285 96.4281C164.732 97.3811 153.52 100.667 149.689 94.7597C148.86 93.4834 148.434 92.0023 148.156 90.4972Z" fill="white"/>
<path d="M148.156 90.4972C148.086 90.1183 148.026 89.7394 147.97 89.3605C147.419 85.5777 146.903 80.8462 151.02 79.6512C152.587 79.1964 154.702 78.7027 156.674 78.4668C157.923 78.3176 158.884 77.3213 158.989 76.068C159.161 74.0013 159.389 71.9398 159.669 69.8854C152.839 69.7211 150.524 63.0855 149.654 57.3189C148.637 50.5755 148.848 42.1575 154.79 37.6407C158.576 34.7613 163.879 34.0724 168.328 35.755C172.777 37.4384 176.264 41.3891 177.524 45.9765C178.456 49.369 178.437 53.5422 178.236 57.0433C178.009 61.0081 177.276 64.9261 177.055 68.8918C176.905 71.5591 177.133 74.6663 178.579 76.9945C179.236 78.0535 180.052 78.9561 181.173 79.5329C181.986 79.9507 184.11 79.7263 184.617 80.2819C187.506 83.4588 190.209 86.8239 193.35 89.7403C185.944 92.8466 178.199 95.0715 170.285 96.4281C164.732 97.3811 153.52 100.667 149.689 94.7597C148.86 93.4834 148.434 92.0023 148.156 90.4972Z" stroke="#040606" stroke-width="0.666667" stroke-miterlimit="10"/>
<path d="M213.77 109.186C212.979 99.4001 208.597 89.3861 199.686 84.4922C194.239 81.5016 188.327 80.6254 182.376 79.2238C182.202 79.1822 182.016 79.1416 181.847 79.2017C181.614 79.2829 181.485 79.5232 181.372 79.7422C178.53 85.2376 172.382 88.8474 166.199 88.6531C159.773 88.4517 154.863 84.524 151.485 79.3827C147.104 80.8436 142.744 82.5217 138.913 85.1016C126.415 93.5205 125.617 111.265 124.003 124.864C125.692 124.917 144.003 127.965 143.894 127.423C144.442 130.138 143.956 129.715 144.066 132.425C144.268 137.425 144.639 142.417 145.085 147.401C145.592 153.072 146.464 158.643 147.729 164.16C160.584 168.441 175.25 167.398 189.035 166.154C192.966 165.801 197.043 165.401 200.442 163.395C210.005 157.753 210.412 141.083 211.777 131.38C212.833 123.874 214.39 116.851 213.77 109.186" fill="#F2596D"/>
<path d="M213.77 109.186C212.979 99.4001 208.597 89.3861 199.686 84.4922C194.239 81.5016 188.327 80.6254 182.376 79.2238C182.202 79.1822 182.016 79.1416 181.847 79.2017C181.614 79.2829 181.485 79.5232 181.372 79.7422C178.53 85.2376 172.382 88.8474 166.199 88.6531C159.773 88.4517 154.863 84.524 151.485 79.3827C147.104 80.8436 142.744 82.5217 138.913 85.1016C126.415 93.5205 125.617 111.265 124.003 124.864C125.692 124.917 144.003 127.965 143.894 127.423C144.442 130.138 143.956 129.715 144.066 132.425C144.268 137.425 144.639 142.417 145.085 147.401C145.592 153.072 146.464 158.643 147.729 164.16C160.584 168.441 175.25 167.398 189.035 166.154C192.966 165.801 197.043 165.401 200.442 163.395C210.005 157.753 210.412 141.083 211.777 131.38C212.833 123.874 214.39 116.851 213.77 109.186V109.186Z" stroke="#040606" stroke-width="0.666667" stroke-miterlimit="10"/>
<path d="M114.857 206.431C116.524 204.492 118.755 202.99 120.916 201.565C128.14 196.803 137.351 191.133 146.449 191.658C151.84 191.969 159.33 195.628 160.446 201.336C160.572 201.98 160.626 202.67 160.368 203.273C159.727 204.773 157.7 204.908 156.068 204.922C142.935 205.037 131.022 212.443 118.144 215.026C116.745 215.307 115.178 215.5 113.988 214.713C112.177 213.516 112.291 210.754 113.259 208.811C113.69 207.944 114.234 207.157 114.857 206.431" fill="#040606"/>
<path d="M84.9794 149.284C87.7933 146.168 91.7997 144.151 95.9084 143.382C101.674 142.302 107.63 143.35 113.286 144.906C125.268 148.205 136.504 153.768 148.55 156.863C153.89 158.234 157.374 157.726 162.594 157.305C169.212 156.771 176.006 157.423 182.667 157.029C188.891 156.661 195.627 156.178 201.445 157.894C202.212 157.388 202.979 156.883 203.742 156.382C210.251 152.112 216.734 147.859 224.896 149.415C231.314 150.638 237.501 153.891 241.476 159.174C245.7 164.785 244.432 172.113 240.648 177.708C237.515 182.34 232.886 185.75 228.09 188.625C211.549 198.549 193.481 204.63 173.96 203.274C171.347 203.094 168.268 203.064 166.385 205.163C165.678 205.952 165.267 210.275 163.697 210.089C161.764 209.859 158.042 209.319 156.214 208.659C146.35 205.095 136.487 201.533 126.623 197.97C117.957 194.839 109.228 191.679 101.332 186.928C94.5041 182.819 88.3189 177.263 84.6932 170.063C82.0789 164.874 79.9335 158.035 82.6627 152.643C83.2863 151.412 84.0706 150.29 84.9794 149.284" fill="#526ABC"/>
<path d="M84.9794 149.284C87.7933 146.168 91.7997 144.151 95.9084 143.382C101.674 142.302 107.63 143.35 113.286 144.906C125.268 148.205 136.504 153.768 148.55 156.863C153.89 158.234 157.374 157.726 162.594 157.305C169.212 156.771 176.006 157.423 182.667 157.029C188.891 156.661 195.627 156.178 201.445 157.894C202.212 157.388 202.979 156.883 203.742 156.382C210.251 152.112 216.734 147.859 224.896 149.415C231.314 150.638 237.501 153.891 241.476 159.174C245.7 164.785 244.432 172.113 240.648 177.708C237.515 182.34 232.886 185.75 228.09 188.625C211.549 198.549 193.481 204.63 173.96 203.274C171.347 203.094 168.268 203.064 166.385 205.163C165.678 205.952 165.267 210.275 163.697 210.089C161.764 209.859 158.042 209.319 156.214 208.659C146.35 205.095 136.487 201.533 126.623 197.97C117.957 194.839 109.228 191.679 101.332 186.928C94.5041 182.819 88.3189 177.263 84.6932 170.063C82.0789 164.874 79.9335 158.035 82.6627 152.643C83.2863 151.412 84.0706 150.29 84.9794 149.284V149.284Z" stroke="#040606" stroke-width="0.666667" stroke-miterlimit="10"/>
<path d="M207.406 164.201C201.862 166.972 196.056 168.745 190.744 172.027C185.433 175.31 180.411 179.133 174.644 181.614C170.904 183.223 166.637 183.917 163.05 185.699" stroke="#040606" stroke-width="0.666667" stroke-miterlimit="10"/>
<path d="M166.622 204.415C167.507 202.399 168.6 200.424 169.527 198.503C170.143 197.227 170.548 195.908 171.224 194.651C171.321 194.471 171.429 194.28 171.614 194.194C171.773 194.121 171.958 194.14 172.131 194.161C174.753 194.472 177.374 194.783 179.998 195.095C181.918 195.322 184.68 195.125 186.118 196.603C186.921 197.427 187.402 198.503 187.939 199.522C191.714 206.68 203.644 212.365 202.476 221.593C200.558 236.749 181.684 216.409 177.126 212.538C174.122 209.987 169.334 208.129 165.484 207.501C165.779 206.464 166.174 205.435 166.622 204.415" fill="#040606"/>
<path d="M156.372 166.807C155.658 166.446 155.114 165.805 154.689 164.587C153.978 162.551 154.396 160.138 155.541 158.342C157.151 155.819 159.97 154.286 162.857 153.489C165.742 152.693 168.759 152.532 171.726 152.131C176.753 151.45 181.684 150.062 186.329 148.022C188.549 147.046 190.785 145.854 192.214 143.894C193.787 141.733 194.161 138.95 194.485 136.295C194.968 132.342 195.451 128.389 195.935 124.435C196.354 121 196.804 117.47 198.475 114.44C200.145 111.41 203.349 108.96 206.798 109.237C209.74 109.472 212.25 111.635 213.697 114.207C216.054 118.394 217.208 124.746 217.929 129.484C218.739 134.81 218.21 140.256 217.24 145.524C215.977 152.373 212.173 158.206 206.032 161.633C192.277 169.307 174.722 168.807 159.527 167.39C158.207 167.268 157.18 167.216 156.372 166.807" fill="white"/>
<path d="M156.372 166.807C155.658 166.446 155.114 165.805 154.689 164.587C153.978 162.551 154.396 160.138 155.541 158.342C157.151 155.819 159.97 154.286 162.857 153.489C165.742 152.693 168.759 152.532 171.726 152.131C176.753 151.45 181.684 150.062 186.329 148.022C188.549 147.046 190.785 145.854 192.214 143.894C193.787 141.733 194.161 138.95 194.485 136.295C194.968 132.342 195.451 128.389 195.935 124.435C196.354 121 196.804 117.47 198.475 114.44C200.145 111.41 203.349 108.96 206.798 109.237C209.74 109.472 212.25 111.635 213.697 114.207C216.054 118.394 217.208 124.746 217.929 129.484C218.739 134.81 218.21 140.256 217.24 145.524C215.977 152.373 212.173 158.206 206.032 161.633C192.277 169.307 174.722 168.807 159.527 167.39C158.207 167.268 157.18 167.216 156.372 166.807V166.807Z" stroke="#040606" stroke-width="0.666667" stroke-miterlimit="10"/>
<path d="M161.398 31.8319C160.574 31.9308 159.749 32.0359 158.923 32.1118C155.777 32.4007 152.393 32.3203 149.767 34.0744C146.841 36.0281 145.395 40.9573 147.204 44.1493C149.14 47.5656 157.713 45.702 160.886 45.6243C163.478 45.5607 167.442 45.1518 167.538 48.682C167.555 49.3109 167.572 49.9388 167.589 50.5677C167.599 50.9192 167.61 51.2805 167.747 51.6046C167.99 52.1822 168.574 52.5267 169.099 52.8703C170.574 53.8383 171.889 54.998 172.473 56.6734C173.094 58.454 173.376 60.4042 174.481 61.9878C174.763 62.3923 175.086 62.7659 175.409 63.1395C176.003 63.8267 176.595 64.513 177.189 65.1992C177.555 64.9245 177.734 64.4741 177.892 64.0457C181.303 54.8734 184.61 43.8552 176.454 36.0705C173.501 33.2503 169.46 31.6005 165.377 31.5457C164.046 31.5271 162.722 31.672 161.398 31.8319" fill="#040606"/>
<path d="M111.851 154.59C122.955 159.612 131.892 168.337 142.002 175.141C151.444 181.496 161.898 186.165 172.291 190.801C171.749 191.993 171.528 193.168 170.986 194.36" stroke="#040606" stroke-width="0.666667" stroke-miterlimit="10"/>
<path d="M159.291 59.8043C158.627 61.97 155.98 63.2851 153.852 62.507" stroke="#171717" stroke-width="0.666667" stroke-miterlimit="10"/>
<path d="M170.495 59.1746C174.588 60.1982 177.137 55.8846 175.893 53.0724C174.162 49.1571 168.671 49.8071 167.666 53.9229" fill="white"/>
<path d="M170.495 59.1746C174.588 60.1982 177.137 55.8846 175.893 53.0724C174.162 49.1571 168.671 49.8071 167.666 53.9229" stroke="#040606" stroke-width="0.666667" stroke-miterlimit="10"/>
<path d="M172.59 52.7413C171.82 52.5293 170.931 52.6565 170.287 53.0707C169.643 53.4858 169.261 54.1756 169.297 54.8593" stroke="#171717" stroke-width="0.666667" stroke-miterlimit="10"/>
<path d="M189.835 102.795C191.568 109.7 191.184 130.755 191.232 134.583C194.068 134.54 196.903 134.43 199.734 134.239C206.401 133.79 213.023 132.95 219.61 131.872C219.259 128.131 218.84 124.397 218.322 120.677C216.666 108.794 213.567 97.2831 205.126 88.7565" fill="#F2596D"/>
<path d="M189.835 102.795C191.568 109.7 191.184 130.755 191.232 134.583C194.068 134.54 196.903 134.43 199.734 134.239C206.401 133.79 213.023 132.95 219.61 131.872C219.259 128.131 218.84 124.397 218.322 120.677C216.666 108.794 213.567 97.2831 205.126 88.7565" stroke="#040606" stroke-width="0.666667" stroke-miterlimit="10"/>
<path d="M191.14 172.91H128.186C127.264 172.91 126.517 172.162 126.517 171.24C126.517 170.318 127.264 169.571 128.186 169.571H191.14C192.062 169.571 192.81 170.318 192.81 171.24C192.81 172.162 192.062 172.91 191.14 172.91Z" fill="#040606"/>
<path d="M181.802 170.645H126.704L115.26 142.384C114.887 141.464 115.565 140.459 116.557 140.459H168.635C169.205 140.459 169.718 140.805 169.932 141.334L181.802 170.645Z" fill="#040606"/>
<path d="M142.731 155.571C143.317 157.101 145.292 158.342 147.144 158.342C148.996 158.342 150.023 157.101 149.436 155.571C148.85 154.039 146.875 152.798 145.023 152.798C143.172 152.798 142.145 154.039 142.731 155.571Z" stroke="white" stroke-width="0.666667" stroke-miterlimit="10"/>
<path d="M143.894 127.423C143.429 120.807 143.458 111.166 143.857 104.546Z" fill="#F2596D"/>
<path d="M143.894 127.423C143.429 120.807 143.458 111.166 143.857 104.546" stroke="#040606" stroke-width="0.666667" stroke-miterlimit="10"/>
<path d="M159.643 69.7221L159.498 70.0718C159.641 71.0487 159.572 72.0238 159.418 72.9971C159.659 72.9361 159.9 72.8778 160.137 72.8045C162.302 72.1342 164.095 70.3677 165.003 68.2904C163.368 69.1948 161.51 69.6912 159.643 69.7221" fill="#040606"/>
<path d="M175.897 71.8153C175.897 72.7356 175.897 72.9149 175.897 73.8352" stroke="#171717" stroke-width="0.666667" stroke-miterlimit="10"/>
<path d="M175.973 75.0179C176.088 76.3516 176.501 77.6976 177.498 78.4484" stroke="#171717" stroke-width="0.666667" stroke-miterlimit="10"/>
<path d="M214.022 111.453C215.31 115.913 215.997 120.546 216.057 125.189" stroke="#171717" stroke-width="0.666667" stroke-miterlimit="10"/>
<path d="M216.271 127.477C216.271 127.935 216.271 128.391 216.271 128.85" stroke="#171717" stroke-width="0.666667" stroke-miterlimit="10"/>
<path d="M129.319 103.45C128.168 107.172 127.412 111.015 127.068 114.896" stroke="#171717" stroke-width="0.666667" stroke-miterlimit="10"/>
<path d="M239.768 162.348C241.098 164.642 241.281 167.46 240.811 170.07C240.341 172.68 239.27 175.137 238.207 177.567" stroke="#171717" stroke-width="0.666667" stroke-miterlimit="10"/>
<path d="M235.801 179.696C234.299 181.689 232.489 183.449 230.454 184.894" stroke="#171717" stroke-width="0.666667" stroke-miterlimit="10"/>
<path d="M236.62 175.965C235.545 177.592 234.236 179.064 232.746 180.324" stroke="#171717" stroke-width="0.666667" stroke-miterlimit="10"/>
<path d="M227.96 186.067C226.892 186.87 225.727 187.548 224.499 188.079" stroke="#171717" stroke-width="0.666667" stroke-miterlimit="10"/>
<path d="M84.8866 166.164C85.4828 167.914 86.2847 169.595 87.2713 171.159" stroke="#171717" stroke-width="0.666667" stroke-miterlimit="10"/>
<path d="M88.84 173.544C89.5625 174.56 90.3883 175.502 91.3016 176.349" stroke="#171717" stroke-width="0.666667" stroke-miterlimit="10"/>
<path d="M88.0159 170.331C88.4293 171.039 88.9168 171.704 89.4697 172.311" stroke="#171717" stroke-width="0.666667" stroke-miterlimit="10"/>
<path d="M211.987 153.592C210.771 155.534 209.087 157.181 207.118 158.352" stroke="#171717" stroke-width="0.666667" stroke-miterlimit="10"/>
<path d="M30.9509 117.24C32.4961 115.117 34.2638 113.099 35.8352 111.403C39.2173 107.752 43.1626 104.794 47.2917 102.307C49.513 110.5 47.3578 119.559 43.2561 126.788C40.6366 131.406 37.2745 135.422 33.7011 139.13C31.701 141.206 29.6144 143.104 27.5395 145.127C27.3625 145.3 27.1183 145.482 26.9114 145.357C26.7519 145.26 26.7102 145.03 26.6859 144.828C25.7419 137.102 24.8814 128.793 28.1208 121.886C28.848 120.337 29.8418 118.761 30.9509 117.24" fill="#86D393"/>
<path d="M30.9509 117.24C32.4961 115.117 34.2638 113.099 35.8352 111.403C39.2173 107.752 43.1626 104.794 47.2917 102.307C49.513 110.5 47.3578 119.559 43.2561 126.788C40.6366 131.406 37.2745 135.422 33.7011 139.13C31.701 141.206 29.6144 143.104 27.5395 145.127C27.3625 145.3 27.1183 145.482 26.9114 145.357C26.7519 145.26 26.7102 145.03 26.6859 144.828C25.7419 137.102 24.8814 128.793 28.1208 121.886C28.848 120.337 29.8418 118.761 30.9509 117.24V117.24Z" stroke="#040606" stroke-width="0.666667" stroke-miterlimit="10"/>
<path d="M1 126.455C1.04019 131.693 1.15508 137.007 2.50318 142.023C3.85134 147.039 6.59775 151.801 10.745 154.239C12.993 155.561 15.5227 156.139 17.9123 157.102C20.313 158.069 22.4377 159.519 23.8876 161.898C24.6428 154.763 21.4526 147.08 18.0313 141.255C14.0149 134.416 7.98036 129.008 1 126.455" fill="#86D393"/>
<path d="M1 126.455C1.04019 131.693 1.15508 137.007 2.50318 142.023C3.85134 147.039 6.59775 151.801 10.745 154.239C12.993 155.561 15.5227 156.139 17.9123 157.102C20.313 158.069 22.4377 159.519 23.8876 161.898C24.6428 154.763 21.4526 147.08 18.0313 141.255C14.0149 134.416 7.98036 129.008 1 126.455V126.455Z" stroke="#040606" stroke-width="0.666667" stroke-miterlimit="10"/>
<path d="M39.8951 142.028C45.8275 137.61 52.9256 135.674 59.8817 133.933C57.8467 140.278 55.7157 146.805 51.647 151.779C47.8487 156.424 42.575 159.373 37.0776 160.729C36.0389 160.985 29.5483 163.773 29.1371 163.518C28.1246 162.891 29.7153 158.845 29.9439 157.88C31.5135 151.238 34.7167 145.886 39.8951 142.028" fill="#86D393"/>
<path d="M39.8951 142.028C45.8275 137.61 52.9256 135.674 59.8817 133.933C57.8467 140.278 55.7157 146.805 51.647 151.779C47.8487 156.424 42.575 159.373 37.0776 160.729C36.0389 160.985 29.5483 163.773 29.1371 163.518C28.1246 162.891 29.7153 158.845 29.9439 157.88C31.5135 151.238 34.7167 145.886 39.8951 142.028V142.028Z" stroke="#040606" stroke-width="0.666667" stroke-miterlimit="10"/>
<path d="M26.9613 174.841L26.651 174.814C27.0298 170.512 27.4585 165.637 29.8013 161.761C31.2262 159.403 33.2369 157.621 35.1809 155.897L46.2661 146.067L46.473 146.301L35.3878 156.13C33.4606 157.838 31.4686 159.605 30.0679 161.921C27.7625 165.736 27.337 170.573 26.9613 174.841" fill="#130A0A"/>
<path d="M24.9606 182.656C24.3967 179.605 24.5194 176.438 24.6391 173.375C24.7207 171.262 24.8054 169.078 24.6652 166.949C24.0471 157.579 19.212 149.364 14.7296 142.4L14.9913 142.23C19.4949 149.228 24.3525 157.484 24.9755 166.928C25.1176 169.074 25.0329 171.266 24.95 173.387C24.8316 176.432 24.7095 179.582 25.2671 182.6L24.9606 182.656" fill="#130A0A"/>
<path d="M25.9194 178.865L25.6079 178.86L25.8584 161.817C25.9244 157.314 25.9942 152.657 26.6902 148.139C28.0242 139.478 31.582 131.524 35.0239 123.832L35.3086 123.96C31.8755 131.633 28.3258 139.567 26.998 148.186C26.3051 152.683 26.236 157.329 26.1699 161.822L25.9194 178.865" fill="#130A0A"/>
<path d="M15.1209 198.425C15.1209 198.425 37.7854 198.56 37.796 198.425L39.2353 174.729H13.3227C13.3227 174.729 15.1165 198.381 15.1209 198.425" fill="#F2596D"/>
<path d="M15.1209 198.425C15.1209 198.425 37.7854 198.56 37.796 198.425L39.2353 174.729H13.3227C13.3227 174.729 15.1165 198.381 15.1209 198.425V198.425Z" stroke="#040606" stroke-width="0.666667" stroke-miterlimit="10"/>
<path d="M14.9894 182.046C16.9428 181.098 18.5322 180.128 21.0221 180.404C22.1031 180.525 23.3306 180.803 24.1761 180.118C24.5026 179.855 24.7169 179.481 24.9499 179.132C25.9662 177.612 27.5002 176.458 29.2187 175.846C30.2841 175.467 32.6088 174.729 33.7017 174.729H13.3227L14.0186 182.493C14.3551 182.348 14.6766 182.197 14.9894 182.046Z" fill="#130A0A"/>
<path d="M40.297 170.427L13.2099 170.464C12.9775 170.464 12.7532 170.489 12.5351 170.527V176.791C12.755 176.831 12.9793 176.856 13.2099 176.856L39.7325 176.802L40.297 170.427Z" fill="#F2596D"/>
<path d="M40.297 170.427L13.2099 170.464C12.9775 170.464 12.7532 170.489 12.5351 170.527V176.791C12.755 176.831 12.9793 176.856 13.2099 176.856L39.7325 176.802L40.297 170.427Z" stroke="#040606" stroke-width="0.666667" stroke-miterlimit="10"/>
<path d="M2.29364 198.425H43.1837" stroke="#171717" stroke-width="0.666667" stroke-miterlimit="10"/>
<path d="M45.0032 198.425H51.2433" stroke="#171717" stroke-width="0.666667" stroke-miterlimit="10"/>
<path d="M56.1924 141.622C55.5563 143.444 54.8011 145.224 53.9331 146.948" stroke="#171717" stroke-width="0.666667" stroke-miterlimit="10"/>
<path d="M53.2066 147.915C52.8178 148.536 52.3866 149.13 51.9156 149.691" stroke="#171717" stroke-width="0.666667" stroke-miterlimit="10"/>
<path d="M45.9602 112.739C45.3894 115.686 44.4567 118.562 43.19 121.283" stroke="#171717" stroke-width="0.666667" stroke-miterlimit="10"/>
<path d="M42.7103 122.737C42.152 123.736 41.5931 124.735 41.0348 125.733" stroke="#171717" stroke-width="0.666667" stroke-miterlimit="10"/>
<path d="M44.501 121.374C44.1508 122.046 43.8006 122.718 43.4504 123.391" stroke="#171717" stroke-width="0.666667" stroke-miterlimit="10"/>
<path d="M6.38159 147.81C7.51996 150.266 9.77426 152.179 12.3837 152.901" stroke="#171717" stroke-width="0.666667" stroke-miterlimit="10"/>
<path d="M37.5536 180.19C37.4545 183.097 37.2888 186.003 37.0576 188.904" stroke="#171717" stroke-width="0.666667" stroke-miterlimit="10"/>
<path d="M37.1274 189.951C37.082 190.57 37.0358 191.189 36.9904 191.809" stroke="#171717" stroke-width="0.666667" stroke-miterlimit="10"/>
<path d="M174.692 2.72671e-05H176.816C176.816 4.4662 180.438 8.08744 184.904 8.08744V10.2121C180.438 10.2121 176.816 13.8333 176.816 18.2994H174.692C174.692 13.8333 171.072 10.2121 166.605 10.2121V8.08744C171.072 8.08744 174.692 4.4662 174.692 2.72671e-05Z" fill="#8198E9"/>
<path d="M13.5035 80.2262H15.6272C15.6272 84.6924 19.2494 88.3136 23.7156 88.3136V90.4383C19.2494 90.4383 15.6272 94.0595 15.6272 98.5256H13.5035C13.5035 94.0595 9.88329 90.4383 5.41614 90.4383V88.3136C9.88329 88.3136 13.5035 84.6924 13.5035 80.2262Z" fill="#E981C6"/>
<path d="M79.7454 38.2731H80.6836C80.6836 42.7402 84.3058 46.3615 88.7729 46.3615V47.3007C84.3058 47.3007 80.6836 50.9209 80.6836 55.3881H79.7454C79.7454 50.9209 76.1251 47.3007 71.658 47.3007V46.3615C76.1251 46.3615 79.7454 42.7402 79.7454 38.2731Z" fill="#BB81E9"/>
<path d="M89.3137 73.6021H90.2518C90.2518 78.0692 93.8741 81.6905 98.3412 81.6905V82.6296C93.8741 82.6296 90.2518 86.2499 90.2518 90.717H89.3137C89.3137 86.2499 85.6934 82.6296 81.2263 82.6296V81.6905C85.6934 81.6905 89.3137 78.0692 89.3137 73.6021Z" fill="#E781E9"/>
<path d="M126.115 14.7205C126.115 19.1876 129.736 22.8088 134.203 22.8088C129.736 22.8088 126.115 26.4301 126.115 30.8962C126.115 26.4301 122.493 22.8088 118.027 22.8088C122.493 22.8088 126.115 19.1876 126.115 14.7205Z" fill="#9C81E9"/>
<path d="M230.63 32.3849C230.63 36.852 234.251 40.4733 238.718 40.4733C234.251 40.4733 230.63 44.0945 230.63 48.5607C230.63 44.0945 227.008 40.4733 222.542 40.4733C227.008 40.4733 230.63 36.852 230.63 32.3849Z" fill="#6783E6"/>
</svg>
