<svg width="45" height="45" viewBox="0 0 45 45" fill="none" xmlns="http://www.w3.org/2000/svg">
<g clip-path="url(#clip0)">
<path d="M44.2125 15.5926C43.5543 14.8247 42.5669 14.331 41.5795 14.331H38.8368L28.2499 1.27567C27.5917 0.452861 26.4398 0.288298 25.5621 0.891695C24.7393 1.54995 24.5747 2.70189 25.1781 3.57955C25.1781 3.63441 25.233 3.63441 25.233 3.68926L33.9548 14.331H10.4772L19.1441 3.68926C19.8572 2.9213 19.8024 1.71451 19.0344 1.0014C18.2665 0.288298 17.0597 0.343153 16.3466 1.11111C16.2917 1.16597 16.2369 1.22082 16.182 1.27567L5.59514 14.3858H3.40096C1.53592 14.3858 0 15.9218 0 17.7868C0 18.0062 0 18.2256 0.0548543 18.4451L4.4432 40.5513C4.88203 42.8552 6.91164 44.5008 9.27037 44.5008H35.7101C38.0689 44.5008 40.0985 42.8552 40.5373 40.5513L44.9256 18.4451C45.1451 17.4577 44.8708 16.4155 44.2125 15.5926ZM16.7854 33.53C16.7854 34.5722 15.9077 35.4499 14.8655 35.4499C13.8233 35.4499 12.9456 34.5722 12.9456 33.53V25.7407C12.9456 24.6984 13.8233 23.8208 14.8655 23.8208C15.9077 23.8208 16.7854 24.6984 16.7854 25.7407V33.53ZM24.4102 33.53C24.4102 34.5722 23.5325 35.4499 22.4903 35.4499C21.448 35.4499 20.5704 34.5722 20.5704 33.53V25.7407C20.5704 24.6984 21.448 23.8208 22.4903 23.8208C23.5325 23.8208 24.4102 24.6984 24.4102 25.7407V33.53ZM31.98 33.53C31.98 34.5722 31.1024 35.4499 30.0601 35.4499C29.0179 35.4499 28.1402 34.5722 28.1402 33.53V25.7407C28.1402 24.6984 29.0179 23.8208 30.0601 23.8208C31.1024 23.8208 31.98 24.6984 31.98 25.7407V33.53Z" fill="#3E454F"/>
</g>
<defs>
<clipPath id="clip0">
<rect width="45" height="45" fill="white"/>
</clipPath>
</defs>
</svg>
