<svg width="650" height="684" viewBox="0 0 650 684" fill="none" xmlns="http://www.w3.org/2000/svg">
<g filter="url(#filter0_d)">
<path d="M345.177 422.026C337.087 422.026 330.529 415.467 330.529 407.377V246.579C330.529 238.489 337.087 231.93 345.177 231.93C353.267 231.93 359.826 238.489 359.826 246.579V407.377C359.826 415.467 353.267 422.026 345.177 422.026V422.026Z" stroke="#040606" stroke-width="0.333333" stroke-miterlimit="10"/>
<path d="M465.479 172.631C465.479 185.29 455.216 195.552 442.558 195.552H298.305C285.646 195.552 275.384 185.29 275.384 172.631C275.384 159.973 285.646 149.711 298.305 149.711H442.558C455.216 149.711 465.479 159.973 465.479 172.631Z" stroke="#040606" stroke-width="0.333333" stroke-miterlimit="10"/>
<path d="M559.819 283.444C559.819 296.629 549.13 307.317 535.946 307.317H409.044C395.859 307.317 385.169 296.629 385.169 283.444C385.169 270.26 395.859 259.57 409.044 259.57H535.946C549.13 259.57 559.819 270.26 559.819 283.444Z" stroke="#040606" stroke-width="0.333333" stroke-miterlimit="10"/>
<path d="M422.692 447.968C410.714 447.968 401.003 438.257 401.003 426.278V366.334C401.003 354.354 410.714 344.643 422.692 344.643C434.672 344.643 444.383 354.354 444.383 366.334V426.278C444.383 438.257 434.672 447.968 422.692 447.968V447.968Z" stroke="#040606" stroke-width="0.333333" stroke-miterlimit="10"/>
<path d="M458.813 342.029L381.037 379.401" stroke="#040606" stroke-width="0.333333" stroke-miterlimit="10"/>
<path d="M458.813 355.159L381.037 392.531" stroke="#040606" stroke-width="0.333333" stroke-miterlimit="10"/>
<path d="M458.813 368.29L381.037 405.662" stroke="#040606" stroke-width="0.333333" stroke-miterlimit="10"/>
<path d="M458.813 381.42L381.037 418.792" stroke="#040606" stroke-width="0.333333" stroke-miterlimit="10"/>
<path d="M458.813 394.551L381.037 431.925" stroke="#040606" stroke-width="0.333333" stroke-miterlimit="10"/>
<path d="M458.813 407.684L381.037 445.056" stroke="#040606" stroke-width="0.333333" stroke-miterlimit="10"/>
<path d="M458.813 420.814L381.037 458.186" stroke="#040606" stroke-width="0.333333" stroke-miterlimit="10"/>
<path d="M390.212 249.437V312.736" stroke="#040606" stroke-width="0.333333" stroke-miterlimit="10"/>
<path d="M405.027 249.437V312.736" stroke="#040606" stroke-width="0.333333" stroke-miterlimit="10"/>
<path d="M419.84 249.437V312.736" stroke="#040606" stroke-width="0.333333" stroke-miterlimit="10"/>
<path d="M434.655 249.437V312.736" stroke="#040606" stroke-width="0.333333" stroke-miterlimit="10"/>
<path d="M449.469 249.437V312.736" stroke="#040606" stroke-width="0.333333" stroke-miterlimit="10"/>
<path d="M464.283 249.437V312.736" stroke="#040606" stroke-width="0.333333" stroke-miterlimit="10"/>
<path d="M479.098 249.437V312.736" stroke="#040606" stroke-width="0.333333" stroke-miterlimit="10"/>
<path d="M493.913 249.437V312.736" stroke="#040606" stroke-width="0.333333" stroke-miterlimit="10"/>
<path d="M508.726 249.437V312.736" stroke="#040606" stroke-width="0.333333" stroke-miterlimit="10"/>
<path d="M523.541 249.437V312.736" stroke="#040606" stroke-width="0.333333" stroke-miterlimit="10"/>
<path d="M538.355 249.437V312.736" stroke="#040606" stroke-width="0.333333" stroke-miterlimit="10"/>
<path d="M553.169 249.437V312.736" stroke="#040606" stroke-width="0.333333" stroke-miterlimit="10"/>
<path d="M337.268 224.523V435.964" stroke="#040606" stroke-width="0.333333" stroke-miterlimit="10"/>
<path d="M342.206 224.523V435.964" stroke="#040606" stroke-width="0.333333" stroke-miterlimit="10"/>
<path d="M347.143 224.523V435.964" stroke="#040606" stroke-width="0.333333" stroke-miterlimit="10"/>
<path d="M352.082 224.523V435.964" stroke="#040606" stroke-width="0.333333" stroke-miterlimit="10"/>
<path d="M253.069 390.749C253.069 403.935 242.381 414.622 229.196 414.622H102.294C89.1087 414.622 78.4197 403.935 78.4197 390.749C78.4197 377.564 89.1087 366.876 102.294 366.876H229.196C242.381 366.876 253.069 377.564 253.069 390.749V390.749Z" stroke="#040606" stroke-width="0.333333" stroke-miterlimit="10"/>
<path d="M125.299 354.656L54.2231 435.795" stroke="#040606" stroke-width="0.333333" stroke-miterlimit="10"/>
<path d="M151.087 354.656L80.0115 435.795" stroke="#040606" stroke-width="0.333333" stroke-miterlimit="10"/>
<path d="M176.875 354.656L105.8 435.795" stroke="#040606" stroke-width="0.333333" stroke-miterlimit="10"/>
<path d="M202.665 354.656L131.588 435.795" stroke="#040606" stroke-width="0.333333" stroke-miterlimit="10"/>
<path d="M228.453 354.656L157.378 435.795" stroke="#040606" stroke-width="0.333333" stroke-miterlimit="10"/>
<path d="M254.241 354.656L183.165 435.795" stroke="#040606" stroke-width="0.333333" stroke-miterlimit="10"/>
<path d="M280.03 354.656L208.954 435.795" stroke="#040606" stroke-width="0.333333" stroke-miterlimit="10"/>
<path d="M208.954 354.656L280.03 435.795" stroke="#040606" stroke-width="0.333333" stroke-miterlimit="10"/>
<path d="M183.165 354.656L254.241 435.795" stroke="#040606" stroke-width="0.333333" stroke-miterlimit="10"/>
<path d="M157.378 354.656L228.453 435.795" stroke="#040606" stroke-width="0.333333" stroke-miterlimit="10"/>
<path d="M131.588 354.656L202.665 435.795" stroke="#040606" stroke-width="0.333333" stroke-miterlimit="10"/>
<path d="M105.8 354.656L176.875 435.795" stroke="#040606" stroke-width="0.333333" stroke-miterlimit="10"/>
<path d="M80.0115 354.656L151.087 435.795" stroke="#040606" stroke-width="0.333333" stroke-miterlimit="10"/>
<path d="M54.2231 354.656L125.299 435.795" stroke="#040606" stroke-width="0.333333" stroke-miterlimit="10"/>
<path d="M464.144 120.182C456.513 121.776 451.755 131.339 455.084 138.388C456.56 141.508 459.204 143.902 461.102 146.784C462.999 149.665 464.071 153.621 462.141 156.481C461.297 157.732 459.998 158.587 458.752 159.437C454.194 162.548 449.448 167.06 450.074 172.543C450.913 179.869 461.076 185.034 458.814 192.054C457.314 196.71 451.391 197.948 447.704 201.163C443.724 204.632 442.539 210.491 443.399 215.699C444.259 220.909 446.849 225.648 449.409 230.265" stroke="#040606" stroke-width="0.333333" stroke-miterlimit="10"/>
<path d="M454.545 119.681C446.914 121.274 442.155 130.839 445.487 137.886C446.96 141.005 449.605 143.4 451.503 146.281C453.401 149.163 454.472 153.119 452.542 155.979C451.698 157.23 450.398 158.085 449.151 158.935C444.595 162.046 439.849 166.559 440.475 172.041C441.315 179.369 451.476 184.534 449.215 191.554C447.715 196.209 441.792 197.447 438.105 200.66C434.123 204.13 432.94 209.988 433.8 215.198C434.66 220.407 437.25 225.146 439.81 229.763" stroke="#040606" stroke-width="0.333333" stroke-miterlimit="10"/>
<path d="M444.946 119.179C437.315 120.773 432.556 130.335 435.887 137.384C437.362 140.504 440.006 142.899 441.904 145.781C443.802 148.661 444.873 152.617 442.944 155.477C442.099 156.729 440.799 157.583 439.552 158.434C434.994 161.546 430.248 166.057 430.876 171.539C431.714 178.866 441.877 184.032 439.615 191.051C438.116 195.707 432.193 196.946 428.505 200.16C424.525 203.628 423.34 209.487 424.202 214.696C425.061 219.905 427.651 224.644 430.212 229.261" stroke="#040606" stroke-width="0.333333" stroke-miterlimit="10"/>
<path d="M435.347 118.678C427.716 120.271 422.958 129.835 426.287 136.882C427.762 140.002 430.407 142.398 432.303 145.279C434.201 148.16 435.273 152.116 433.343 154.976C432.498 156.226 431.198 157.082 429.953 157.932C425.397 161.043 420.649 165.555 421.277 171.037C422.115 178.365 432.277 183.53 430.015 190.55C428.517 195.205 422.592 196.443 418.906 199.658C414.926 203.126 413.742 208.985 414.601 214.194C415.462 219.404 418.051 224.142 420.611 228.761" stroke="#040606" stroke-width="0.333333" stroke-miterlimit="10"/>
<path d="M425.747 118.177C418.116 119.769 413.357 129.333 416.688 136.38C418.162 139.5 420.806 141.895 422.704 144.777C424.602 147.658 425.673 151.614 423.744 154.474C422.9 155.726 421.6 156.58 420.354 157.431C415.797 160.542 411.05 165.053 411.678 170.535C412.516 177.863 422.678 183.028 420.416 190.048C418.916 194.704 412.994 195.943 409.308 199.156C405.326 202.626 404.143 208.484 405.002 213.693C405.863 218.902 408.451 223.642 411.012 228.258" stroke="#040606" stroke-width="0.333333" stroke-miterlimit="10"/>
<path d="M416.147 117.675C408.516 119.268 403.758 128.83 407.09 135.879C408.563 138.999 411.207 141.395 413.105 144.275C415.003 147.156 416.075 151.113 414.143 153.972C413.3 155.224 412.001 156.078 410.754 156.929C406.197 160.04 401.45 164.553 402.078 170.033C402.917 177.362 413.079 182.527 410.817 189.546C409.317 194.202 403.395 195.441 399.707 198.654C395.726 202.123 394.542 207.982 395.403 213.191C396.262 218.4 398.853 223.14 401.413 227.757" stroke="#040606" stroke-width="0.333333" stroke-miterlimit="10"/>
<path d="M406.548 117.173C398.917 118.765 394.159 128.33 397.489 135.378C398.963 138.497 401.609 140.893 403.506 143.774C405.404 146.656 406.475 150.61 404.544 153.47C403.701 154.722 402.401 155.576 401.155 156.428C396.597 159.539 391.851 164.05 392.478 169.533C393.318 176.86 403.478 182.025 401.218 189.045C399.719 193.7 393.795 194.939 390.108 198.153C386.127 201.622 384.943 207.48 385.802 212.689C386.664 217.898 389.254 222.638 391.813 227.256" stroke="#040606" stroke-width="0.333333" stroke-miterlimit="10"/>
<path d="M396.949 116.671C389.319 118.265 384.558 127.828 387.89 134.875C389.364 137.995 392.009 140.391 393.907 143.272C395.805 146.154 396.876 150.11 394.947 152.968C394.102 154.22 392.802 155.074 391.555 155.926C386.998 159.037 382.252 163.549 382.879 169.03C383.718 176.358 393.879 181.523 391.619 188.543C390.118 193.198 384.196 194.437 380.509 197.651C376.528 201.12 375.344 206.978 376.204 212.187C377.065 217.398 379.653 222.136 382.214 226.754" stroke="#040606" stroke-width="0.333333" stroke-miterlimit="10"/>
<path d="M387.349 116.169C379.718 117.763 374.96 127.326 378.291 134.374C379.765 137.493 382.409 139.889 384.307 142.77C386.205 145.652 387.277 149.608 385.346 152.468C384.502 153.718 383.202 154.573 381.957 155.424C377.399 158.535 372.652 163.047 373.281 168.529C374.118 175.856 384.281 181.021 382.018 188.041C380.519 192.698 374.596 193.935 370.908 197.149C366.929 200.619 365.745 206.476 366.604 211.685C367.465 216.895 370.054 221.634 372.615 226.252" stroke="#040606" stroke-width="0.333333" stroke-miterlimit="10"/>
<path d="M377.75 115.667C370.119 117.261 365.36 126.824 368.692 133.873C370.166 136.991 372.81 139.387 374.707 142.269C376.605 145.15 377.677 149.106 375.747 151.965C374.903 153.217 373.603 154.072 372.358 154.922C367.8 158.033 363.052 162.545 363.68 168.028C364.519 175.354 374.681 180.519 372.42 187.539C370.92 192.195 364.997 193.433 361.31 196.648C357.33 200.117 356.145 205.975 357.006 211.184C357.865 216.394 360.455 221.133 363.016 225.75" stroke="#040606" stroke-width="0.333333" stroke-miterlimit="10"/>
<path d="M368.151 115.166C360.52 116.76 355.761 126.322 359.092 133.371C360.565 136.49 363.211 138.886 365.109 141.766C367.007 144.648 368.078 148.604 366.148 151.464C365.303 152.715 364.004 153.569 362.757 154.421C358.201 157.531 353.453 162.044 354.081 167.526C354.919 174.853 365.082 180.019 362.82 187.038C361.319 191.694 355.398 192.932 351.71 196.145C347.73 199.615 346.546 205.473 347.405 210.682C348.266 215.892 350.856 220.631 353.415 225.248" stroke="#040606" stroke-width="0.333333" stroke-miterlimit="10"/>
<path d="M358.552 114.664C350.919 116.258 346.161 125.82 349.492 132.869C350.966 135.988 353.612 138.384 355.508 141.266C357.406 144.147 358.478 148.102 356.548 150.962C355.705 152.213 354.405 153.068 353.158 153.919C348.6 157.03 343.854 161.542 344.482 167.024C345.32 174.351 355.482 179.516 353.22 186.536C351.722 191.192 345.799 192.43 342.111 195.645C338.131 199.113 336.946 204.971 337.806 210.181C338.667 215.39 341.257 220.13 343.816 224.747" stroke="#040606" stroke-width="0.333333" stroke-miterlimit="10"/>
<path d="M348.951 114.162C341.322 115.756 336.562 125.319 339.893 132.367C341.367 135.487 344.013 137.882 345.909 140.764C347.807 143.645 348.878 147.601 346.949 150.461C346.104 151.711 344.806 152.567 343.559 153.417C339.002 156.528 334.255 161.04 334.883 166.522C335.721 173.849 345.883 179.015 343.621 186.035C342.121 190.691 336.198 191.929 332.511 195.143C328.531 198.611 327.347 204.47 328.207 209.68C329.068 214.889 331.657 219.627 334.217 224.246" stroke="#040606" stroke-width="0.333333" stroke-miterlimit="10"/>
<path d="M339.353 113.662C331.721 115.254 326.963 124.818 330.294 131.866C331.768 134.984 334.412 137.38 336.31 140.262C338.208 143.143 339.279 147.099 337.35 149.959C336.505 151.21 335.206 152.065 333.96 152.915C329.402 156.027 324.655 160.538 325.283 166.02C326.122 173.349 336.284 178.513 334.022 185.533C332.522 190.189 326.599 191.426 322.912 194.641C318.933 198.111 317.747 203.967 318.608 209.178C319.469 214.387 322.057 219.127 324.618 223.743" stroke="#040606" stroke-width="0.333333" stroke-miterlimit="10"/>
<path d="M329.753 113.159C322.122 114.752 317.364 124.315 320.694 131.364C322.169 134.484 324.813 136.88 326.711 139.76C328.609 142.641 329.68 146.598 327.751 149.457C326.906 150.709 325.606 151.563 324.36 152.415C319.803 155.525 315.056 160.036 315.683 165.519C316.523 172.845 326.683 178.012 324.423 185.032C322.923 189.687 317 190.926 313.313 194.139C309.332 197.608 308.148 203.467 309.009 208.676C309.868 213.885 312.458 218.625 315.019 223.242" stroke="#040606" stroke-width="0.333333" stroke-miterlimit="10"/>
<path d="M320.154 112.658C312.523 114.251 307.765 123.815 311.095 130.863C312.569 133.982 315.214 136.378 317.112 139.259C319.01 142.139 320.081 146.095 318.15 148.957C317.307 150.206 316.008 151.061 314.761 151.912C310.203 155.024 305.456 159.535 306.084 165.018C306.923 172.345 317.086 177.51 314.824 184.53C313.323 189.185 307.401 190.424 303.712 193.638C299.733 197.107 298.549 202.965 299.408 208.174C300.27 213.383 302.858 218.123 305.419 222.741" stroke="#040606" stroke-width="0.333333" stroke-miterlimit="10"/>
<path d="M310.554 112.156C302.923 113.75 298.164 123.313 301.496 130.36C302.97 133.48 305.614 135.876 307.512 138.757C309.41 141.639 310.481 145.595 308.551 148.453C307.707 149.705 306.407 150.559 305.161 151.411C300.604 154.522 295.858 159.033 296.484 164.516C297.323 171.843 307.485 177.008 305.224 184.028C303.724 188.683 297.801 189.922 294.114 193.136C290.134 196.605 288.95 202.463 289.81 207.672C290.669 212.881 293.259 217.621 295.82 222.239" stroke="#040606" stroke-width="0.333333" stroke-miterlimit="10"/>
<path d="M300.955 111.653C293.324 113.248 288.565 122.811 291.897 129.858C293.37 132.978 296.015 135.374 297.913 138.255C299.811 141.136 300.882 145.093 298.952 147.953C298.108 149.204 296.808 150.058 295.561 150.909C291.005 154.02 286.257 158.532 286.885 164.015C287.724 171.341 297.886 176.506 295.624 183.526C294.125 188.182 288.202 189.42 284.514 192.634C280.535 196.104 279.35 201.962 280.21 207.171C281.07 212.38 283.66 217.12 286.22 221.737" stroke="#040606" stroke-width="0.333333" stroke-miterlimit="10"/>
<path d="M291.356 111.153C283.725 112.745 278.966 122.309 282.296 129.358C283.772 132.477 286.416 134.872 288.313 137.753C290.211 140.635 291.282 144.591 289.353 147.451C288.509 148.702 287.209 149.556 285.962 150.407C281.404 153.518 276.658 158.031 277.286 163.513C278.125 170.839 288.287 176.004 286.026 183.024C284.526 187.68 278.603 188.919 274.915 192.132C270.936 195.602 269.75 201.46 270.611 206.669C271.471 211.878 274.061 216.618 276.62 221.235" stroke="#040606" stroke-width="0.333333" stroke-miterlimit="10"/>
<path d="M215.891 315.968H215.89C200.55 315.968 188.114 303.532 188.114 288.191V153.65C188.114 138.31 200.55 125.874 215.89 125.874H215.891C231.231 125.874 243.668 138.31 243.668 153.65V288.191C243.668 303.532 231.231 315.968 215.891 315.968Z" stroke="#040606" stroke-width="0.333333" stroke-miterlimit="10"/>
<path d="M181.717 124.19L249.391 181.74" stroke="#040606" stroke-width="0.333333" stroke-miterlimit="10"/>
<path d="M181.717 141.942L249.391 199.492" stroke="#040606" stroke-width="0.333333" stroke-miterlimit="10"/>
<path d="M181.717 159.693L249.391 217.243" stroke="#040606" stroke-width="0.333333" stroke-miterlimit="10"/>
<path d="M181.717 177.445L249.391 234.996" stroke="#040606" stroke-width="0.333333" stroke-miterlimit="10"/>
<path d="M181.717 195.196L249.391 252.747" stroke="#040606" stroke-width="0.333333" stroke-miterlimit="10"/>
<path d="M181.717 212.949L249.391 270.499" stroke="#040606" stroke-width="0.333333" stroke-miterlimit="10"/>
<path d="M181.717 230.701L249.391 288.25" stroke="#040606" stroke-width="0.333333" stroke-miterlimit="10"/>
<path d="M181.717 248.452L249.391 306.002" stroke="#040606" stroke-width="0.333333" stroke-miterlimit="10"/>
<path d="M181.717 133.037L249.391 190.587" stroke="#040606" stroke-width="0.333333" stroke-miterlimit="10"/>
<path d="M181.717 150.79L249.391 208.339" stroke="#040606" stroke-width="0.333333" stroke-miterlimit="10"/>
<path d="M181.717 168.541L249.391 226.091" stroke="#040606" stroke-width="0.333333" stroke-miterlimit="10"/>
<path d="M181.717 186.293L249.391 243.842" stroke="#040606" stroke-width="0.333333" stroke-miterlimit="10"/>
<path d="M181.717 204.044L249.391 261.595" stroke="#040606" stroke-width="0.333333" stroke-miterlimit="10"/>
<path d="M181.717 221.796L249.391 279.347" stroke="#040606" stroke-width="0.333333" stroke-miterlimit="10"/>
<path d="M181.717 239.548L249.391 297.098" stroke="#040606" stroke-width="0.333333" stroke-miterlimit="10"/>
<path d="M181.717 257.3L249.391 314.85" stroke="#040606" stroke-width="0.333333" stroke-miterlimit="10"/>
<path d="M215.891 315.968H215.89C200.55 315.968 188.114 303.532 188.114 288.191V153.65C188.114 138.31 200.55 125.874 215.89 125.874H215.891C231.231 125.874 243.668 138.31 243.668 153.65V288.191C243.668 303.532 231.231 315.968 215.891 315.968Z" stroke="#040606" stroke-width="0.333333" stroke-miterlimit="10"/>
<path d="M447.524 375.094C445.986 375.504 444.427 375.856 442.901 376.254C438.629 377.368 434.137 379.172 431.896 382.976C430.081 386.052 430.165 390.147 432.1 393.149C434.035 396.149 437.733 397.913 441.284 397.53C445.319 397.094 448.642 394.212 451.34 391.179C454.294 387.858 457.266 383.405 460.839 380.747C464.759 377.832 470.138 377.581 473.382 373.575C476.527 369.693 476.228 361.531 469.751 361.089C466.66 360.88 463.819 362.812 461.668 365.041C459.515 367.27 457.739 369.894 455.253 371.745C452.977 373.439 450.289 374.358 447.524 375.094Z" fill="#040606"/>
<path d="M270.114 199.551C269.181 199.871 268.286 200.353 267.519 200.967C265.661 202.456 264.126 204.344 262.123 205.63C258.509 207.951 253.699 208.101 250.444 210.903C248.058 212.957 247.027 215.701 247.181 218.791C247.272 220.636 247.928 222.534 249.339 223.727C256.971 230.182 266.445 220.961 271.154 215.261C273.398 212.544 278.048 207.631 277.732 203.826C277.36 199.365 273.477 198.403 270.114 199.551Z" fill="#040606"/>
<path d="M181.314 446.473C183.706 443.988 187.066 442.525 189.972 440.575C210.149 427.037 205.511 385.424 235.56 387.187C242.758 387.608 250.179 392.844 250.543 400.046C250.699 403.13 249.578 406.147 248.119 408.87C237.936 427.889 219.109 432.592 203.857 445.946C200.625 448.774 198.207 452.518 194.644 454.918C188.473 459.072 172.348 458.344 180.361 447.594C180.656 447.197 180.974 446.826 181.314 446.473Z" fill="#E981C6"/>
<path d="M181.314 446.473C183.706 443.988 187.066 442.525 189.972 440.575C210.149 427.037 205.511 385.424 235.56 387.187C242.758 387.608 250.179 392.844 250.543 400.046C250.699 403.13 249.578 406.147 248.119 408.87C237.936 427.889 219.109 432.592 203.857 445.946C200.625 448.774 198.207 452.518 194.644 454.918C188.473 459.072 172.348 458.344 180.361 447.594C180.656 447.197 180.974 446.826 181.314 446.473V446.473Z" stroke="#040606" stroke-width="0.666667" stroke-miterlimit="10"/>
<path d="M470.486 392.386C474.071 385.572 482.586 381.898 488.172 376.865C495.996 369.816 501.953 361.396 508.492 353.231C515.21 344.842 525.66 337.169 535.919 340.37C542.074 342.293 546.727 348.292 547.056 354.732C547.386 361.221 543.759 367.241 539.676 372.295C528.707 385.871 514.064 388.773 501.83 399.48C498.597 402.31 496.179 406.055 492.614 408.454C483.496 414.592 468.755 411.672 468.857 399.022C468.878 396.483 469.477 394.302 470.486 392.386Z" fill="#F2596D"/>
<path d="M470.486 392.386C474.071 385.572 482.586 381.898 488.172 376.865C495.996 369.816 501.953 361.396 508.492 353.231C515.21 344.842 525.66 337.169 535.919 340.37C542.074 342.293 546.727 348.292 547.056 354.732C547.386 361.221 543.759 367.241 539.676 372.295C528.707 385.871 514.064 388.773 501.83 399.48C498.597 402.31 496.179 406.055 492.614 408.454C483.496 414.592 468.755 411.672 468.857 399.022C468.878 396.483 469.477 394.302 470.486 392.386V392.386Z" stroke="#040606" stroke-width="0.666667" stroke-miterlimit="10"/>
<path d="M515.125 124.488V197.921C495.097 197.622 478.951 181.303 478.951 161.204C478.951 141.105 495.097 124.787 515.125 124.488Z" fill="#E981C6"/>
<path d="M515.125 124.488V197.921C495.097 197.622 478.951 181.303 478.951 161.204C478.951 141.105 495.097 124.787 515.125 124.488Z" stroke="#040606" stroke-width="0.666667" stroke-miterlimit="10"/>
<path d="M514.866 139.477V182.931C503.014 182.754 493.459 173.098 493.459 161.204C493.459 149.31 503.014 139.654 514.866 139.477Z" fill="#040606"/>
<path d="M253.664 131.655V115.236C268.076 115.236 279.759 103.552 279.759 89.1398H297.528C297.528 103.552 309.212 115.236 323.623 115.236V131.655C309.212 131.655 297.528 143.338 297.528 157.75H279.759C279.759 143.338 268.076 131.655 253.664 131.655Z" fill="#F2596D"/>
<path d="M253.664 131.655V115.236C268.076 115.236 279.759 103.552 279.759 89.1398H297.528C297.528 103.552 309.212 115.236 323.623 115.236V131.655C309.212 131.655 297.528 143.338 297.528 157.75H279.759C279.759 143.338 268.076 131.655 253.664 131.655V131.655Z" stroke="#040606" stroke-width="0.666667" stroke-miterlimit="10"/>
<path d="M259.761 128.302V118.587C272.9 118.587 283.551 107.936 283.551 94.7986H293.736C293.736 107.936 304.387 118.587 317.525 118.587V128.302C304.387 128.302 293.736 138.953 293.736 152.091H283.551C283.551 138.953 272.9 128.302 259.761 128.302Z" fill="#86D393"/>
<path d="M259.761 128.302V118.587C272.9 118.587 283.551 107.936 283.551 94.7986H293.736C293.736 107.936 304.387 118.587 317.525 118.587V128.302C304.387 128.302 293.736 138.953 293.736 152.091H283.551C283.551 138.953 272.9 128.302 259.761 128.302V128.302Z" stroke="#040606" stroke-width="0.666667" stroke-miterlimit="10"/>
<path d="M271.738 123.444C281.074 123.444 288.644 115.875 288.644 106.539C288.644 115.875 296.213 123.444 305.549 123.444C296.213 123.444 288.644 131.014 288.644 140.351C288.644 131.014 281.074 123.444 271.738 123.444Z" fill="#040606"/>
<path d="M95.9742 453.773L96.4073 454.171C97.6352 455.302 97.714 457.214 96.583 458.442L59.1506 499.091C58.0198 500.319 56.1079 500.399 54.8794 499.268L54.4462 498.869C53.2189 497.738 53.1402 495.825 54.2706 494.597L91.7034 453.948C92.8338 452.72 94.7462 452.642 95.9742 453.773Z" fill="#040606"/>
<path d="M89.6634 471.442L79.3894 462.111L85.6577 455.211L95.9309 464.543L89.6634 471.442Z" fill="#040606"/>
<path d="M129.917 436.207C133.688 449.887 125.656 464.034 111.975 467.805C98.2952 471.576 84.1486 463.542 80.3781 449.864C76.6065 436.183 84.6396 422.037 98.3196 418.265C112 414.495 126.146 422.527 129.917 436.207Z" fill="#040606"/>
<path d="M125.214 437.505C128.269 448.586 121.761 460.047 110.679 463.102C99.5969 466.157 88.1361 459.649 85.0816 448.566C82.0266 437.484 88.5341 426.024 99.6161 422.968C110.699 419.914 122.159 426.422 125.214 437.505Z" fill="#526ABC"/>
<path d="M125.214 437.505C128.269 448.586 121.761 460.047 110.679 463.102C99.5969 466.157 88.1361 459.649 85.0816 448.566C82.0266 437.484 88.5341 426.024 99.6161 422.968C110.699 419.914 122.159 426.422 125.214 437.505Z" stroke="#040606" stroke-width="0.666667" stroke-miterlimit="10"/>
<path d="M109.293 458.077C100.999 460.363 92.3919 455.475 90.1057 447.181L90.6486 447.032C92.8514 455.027 101.149 459.738 109.144 457.534L109.293 458.077Z" fill="#040606"/>
<path d="M112.05 457.009C113.554 456.5 114.979 455.759 116.258 454.818L112.05 457.009Z" fill="#F2596D"/>
<path d="M112.05 457.009C113.554 456.5 114.979 455.759 116.258 454.818" stroke="#040606" stroke-width="0.666667" stroke-miterlimit="10"/>
<path d="M447.283 283.167L426.154 271.84L404.842 282.825L409.087 259.228L392.054 242.355L415.808 239.1L426.59 217.686L437.027 239.271L460.724 242.91L443.422 259.506L447.283 283.167Z" fill="#F2596D"/>
<path d="M447.283 283.167L426.154 271.84L404.842 282.825L409.087 259.228L392.054 242.355L415.808 239.1L426.59 217.686L437.027 239.271L460.724 242.91L443.422 259.506L447.283 283.167Z" stroke="#040606" stroke-width="0.666667" stroke-miterlimit="10"/>
<path d="M436.786 269.104L426.24 263.45L415.603 268.934L417.721 257.156L409.22 248.734L421.075 247.109L426.458 236.422L431.668 247.195L443.495 249.011L434.859 257.293L436.786 269.104Z" fill="#040606"/>
<path d="M92.0709 302.609C89.766 294.784 90.3505 286.143 93.6878 278.7C97.8113 283.518 102.004 288.447 104.393 294.321C106.115 298.554 108.28 309.111 103.446 312.391C97.9941 316.091 93.3364 306.908 92.0709 302.609Z" fill="#86D393"/>
<path d="M92.0709 302.609C89.766 294.784 90.3505 286.143 93.6878 278.7C97.8113 283.518 102.004 288.447 104.393 294.321C106.115 298.554 108.28 309.111 103.446 312.391C97.9941 316.091 93.3364 306.908 92.0709 302.609Z" stroke="#040606" stroke-width="0.666667" stroke-miterlimit="10"/>
<path d="M102.464 345.57C104.932 329.9 103.6 313.643 98.6133 298.583" stroke="#040606" stroke-width="0.666667" stroke-miterlimit="10"/>
<path d="M122.053 281.054C128.218 274.334 137.297 271.155 146.158 269.003C147.182 281.501 141.987 294.356 132.569 302.634C127.933 306.708 117.079 312.307 115.167 303.152C113.587 295.586 116.973 286.59 122.053 281.054Z" fill="#86D393"/>
<path d="M122.053 281.054C128.218 274.334 137.297 271.155 146.158 269.003C147.182 281.501 141.987 294.356 132.569 302.634C127.933 306.708 117.079 312.307 115.167 303.152C113.587 295.586 116.973 286.59 122.053 281.054V281.054Z" stroke="#040606" stroke-width="0.666667" stroke-miterlimit="10"/>
<path d="M103.617 355.589C105.988 341.847 108.393 328.008 113.306 314.958C118.219 301.906 125.851 289.541 136.989 281.15" stroke="#040606" stroke-width="0.666667" stroke-miterlimit="10"/>
<path d="M145.037 335.871H71.0271C71.3278 356.057 87.7747 372.33 108.032 372.33C128.289 372.33 144.737 356.057 145.037 335.871Z" fill="#F14659"/>
<path d="M145.037 335.871H71.0271C71.3278 356.057 87.7747 372.33 108.032 372.33C128.289 372.33 144.737 356.057 145.037 335.871Z" stroke="#040606" stroke-width="0.333333" stroke-miterlimit="10"/>
<path d="M124.346 373.745L133.037 383.947L66.8356 349.287L58.145 339.083L124.346 373.745Z" fill="#040606"/>
<path d="M133.62 365.845L142.312 376.047L76.1104 341.385L67.4197 331.183L133.62 365.845Z" fill="#040606"/>
<path d="M142.895 357.945L151.586 368.146L85.3851 333.485L76.6943 323.283L142.895 357.945Z" fill="#040606"/>
<path d="M152.17 350.044L160.861 360.246L94.6591 325.585L85.969 315.383L152.17 350.044Z" fill="#040606"/>
<path d="M172.163 190.098C170.971 185.515 166.817 182.127 161.862 182.127C155.975 182.127 151.204 186.9 151.204 192.785V235.414C151.204 241.299 155.975 246.072 161.862 246.072C166.817 246.072 170.971 242.684 172.163 238.101C173.356 242.684 177.51 246.072 182.465 246.072C187.421 246.072 191.575 242.684 192.768 238.101C193.96 242.684 198.114 246.072 203.069 246.072H203.07C208.026 246.072 212.178 242.684 213.372 238.101C214.564 242.684 218.717 246.072 223.674 246.072C228.63 246.072 232.782 242.684 233.975 238.101C235.169 242.684 239.322 246.072 244.278 246.072C250.164 246.072 254.935 241.299 254.935 235.414V192.785C254.935 186.9 250.164 182.127 244.278 182.127C239.322 182.127 235.169 185.515 233.975 190.098C232.782 185.515 228.63 182.127 223.674 182.127C218.717 182.127 214.564 185.515 213.372 190.098C212.178 185.515 208.026 182.127 203.07 182.127H203.069C198.114 182.127 193.96 185.515 192.768 190.098C191.575 185.515 187.421 182.127 182.465 182.127C177.51 182.127 173.356 185.515 172.163 190.098Z" fill="#E981C6"/>
<path d="M172.163 190.098C170.971 185.515 166.817 182.127 161.862 182.127C155.975 182.127 151.204 186.9 151.204 192.785V235.414C151.204 241.299 155.975 246.072 161.862 246.072C166.817 246.072 170.971 242.684 172.163 238.101C173.356 242.684 177.51 246.072 182.465 246.072C187.421 246.072 191.575 242.684 192.768 238.101C193.96 242.684 198.114 246.072 203.069 246.072H203.07C208.026 246.072 212.178 242.684 213.372 238.101C214.564 242.684 218.717 246.072 223.674 246.072C228.63 246.072 232.782 242.684 233.975 238.101C235.169 242.684 239.322 246.072 244.278 246.072C250.164 246.072 254.935 241.299 254.935 235.414V192.785C254.935 186.9 250.164 182.127 244.278 182.127C239.322 182.127 235.169 185.515 233.975 190.098C232.782 185.515 228.63 182.127 223.674 182.127C218.717 182.127 214.564 185.515 213.372 190.098C212.178 185.515 208.026 182.127 203.07 182.127H203.069C198.114 182.127 193.96 185.515 192.768 190.098C191.575 185.515 187.421 182.127 182.465 182.127C177.51 182.127 173.356 185.515 172.163 190.098Z" stroke="#040606" stroke-width="0.666667" stroke-miterlimit="10"/>
<path d="M203.07 202.322C197.409 202.322 192.686 206.317 191.554 211.639C190.421 206.317 185.697 202.322 180.037 202.322C173.532 202.322 168.259 207.594 168.259 214.1C168.259 220.605 173.532 225.878 180.037 225.878C185.697 225.878 190.421 221.884 191.554 216.561C192.686 221.884 197.409 225.878 203.07 225.878C208.731 225.878 213.454 221.884 214.586 216.561C215.718 221.884 220.441 225.878 226.101 225.878C232.606 225.878 237.879 220.605 237.879 214.1C237.879 207.594 232.606 202.322 226.101 202.322C220.441 202.322 215.718 206.317 214.586 211.639C213.454 206.317 208.731 202.322 203.07 202.322Z" fill="#F2596D"/>
<path d="M203.07 202.322C197.409 202.322 192.686 206.317 191.554 211.639C190.421 206.317 185.697 202.322 180.037 202.322C173.532 202.322 168.259 207.594 168.259 214.1C168.259 220.605 173.532 225.878 180.037 225.878C185.697 225.878 190.421 221.884 191.554 216.561C192.686 221.884 197.409 225.878 203.07 225.878C208.731 225.878 213.454 221.884 214.586 216.561C215.718 221.884 220.441 225.878 226.101 225.878C232.606 225.878 237.879 220.605 237.879 214.1C237.879 207.594 232.606 202.322 226.101 202.322C220.441 202.322 215.718 206.317 214.586 211.639C213.454 206.317 208.731 202.322 203.07 202.322Z" stroke="#040606" stroke-width="0.666667" stroke-miterlimit="10"/>
<path d="M244.226 242.723C248.177 242.723 251.378 239.521 251.378 235.57V206.959" fill="#E981C6"/>
<path d="M244.226 242.723C248.177 242.723 251.378 239.521 251.378 235.57V206.959" stroke="#040606" stroke-width="0.666667" stroke-miterlimit="10"/>
<path d="M223.569 205.356C226.188 204.668 229.137 205.404 231.127 207.242" stroke="#040606" stroke-width="0.666667" stroke-miterlimit="10"/>
<path d="M233.362 209.726C234.376 211.332 234.973 213.2 235.078 215.097" stroke="#040606" stroke-width="0.666667" stroke-miterlimit="10"/>
<path d="M201.809 205.838C204.893 204.955 208.499 206.593 209.863 209.498" stroke="#040606" stroke-width="0.666667" stroke-miterlimit="10"/>
<path d="M210.458 218.507C211.107 216.397 211.123 214.098 210.505 211.981" stroke="#040606" stroke-width="0.666667" stroke-miterlimit="10"/>
<path d="M185.691 218.876C186.927 215.894 186.749 212.36 185.22 209.517" stroke="#040606" stroke-width="0.666667" stroke-miterlimit="10"/>
<path d="M240.447 239.918C241.523 240.629 242.999 240.449 244.121 239.814C245.242 239.178 246.088 238.159 246.908 237.163" stroke="#040606" stroke-width="0.666667" stroke-miterlimit="10"/>
<path d="M251.625 200.143C251.625 199 251.625 197.857 251.625 196.716" stroke="#040606" stroke-width="0.666667" stroke-miterlimit="10"/>
<path d="M357.731 171.62C367.172 167.613 375.723 161.524 382.599 153.915C391.712 143.827 399.79 130.016 413.34 128.899C421.528 128.224 429.868 133.309 433.021 140.895C436.173 148.481 433.892 157.979 427.638 163.306C422.01 168.098 414.275 169.304 407.4 172.015C389.051 179.248 377.346 196.89 366.153 213.131C362.916 217.828 359.518 222.596 354.784 225.778C340.356 235.477 316.87 224.611 315.901 206.805C314.658 183.923 342.056 178.274 357.731 171.62Z" fill="#526ABC"/>
<path d="M357.731 171.62C367.172 167.613 375.723 161.524 382.599 153.915C391.712 143.827 399.79 130.016 413.34 128.899C421.528 128.224 429.868 133.309 433.021 140.895C436.173 148.481 433.892 157.979 427.638 163.306C422.01 168.098 414.275 169.304 407.4 172.015C389.051 179.248 377.346 196.89 366.153 213.131C362.916 217.828 359.518 222.596 354.784 225.778C340.356 235.477 316.87 224.611 315.901 206.805C314.658 183.923 342.056 178.274 357.731 171.62V171.62Z" stroke="#040606" stroke-width="0.666667" stroke-miterlimit="10"/>
<path d="M314.404 228.15C313.945 218.637 311.619 209.284 311.206 199.768C310.792 190.254 312.614 180.046 319.163 173.129C323.046 169.027 330.498 166.777 333.904 171.281C334.79 172.457 335.227 173.909 335.504 175.354C338.403 190.54 325.409 205.989 329.971 220.761C332.095 227.64 338.173 233.143 345.231 234.575C352.287 236.007 360.028 233.31 364.668 227.803C367.182 224.818 368.829 220.819 368.008 217.004C367.548 214.87 366.361 212.963 365.017 211.245C360.95 206.049 355.361 202.255 350.938 197.359C346.511 192.465 343.206 185.643 345.208 179.354C347.209 173.068 356.591 169.666 360.719 174.815C362.242 176.715 362.716 179.228 363.096 181.635C364.305 189.272 365.3 197.473 370.349 203.33C375.4 209.187 386.227 210.627 390.224 204.008C394.009 197.735 389.334 190.005 385.637 183.681C380.864 175.521 377.497 166.092 378.678 156.711C379.859 147.332 386.521 138.233 395.807 136.454C397.886 136.057 400.169 136.059 401.968 137.176C406.061 139.716 405.19 146.008 402.785 150.182C400.379 154.358 396.842 158.397 397.104 163.208C397.366 167.981 401.539 171.812 406.106 173.224C410.671 174.634 415.581 174.144 420.334 173.64C421.359 173.532 422.43 173.407 423.284 172.827C425.171 171.547 425.121 168.714 424.332 166.573C420.875 157.182 408.232 152.823 406.609 142.948C405.02 133.286 417.178 125.319 426.332 128.794C435.487 132.27 439.913 143.532 438.07 153.149C436.384 161.944 430.838 172.017 436.628 178.847" stroke="#040606" stroke-width="1.33333" stroke-miterlimit="10"/>
<path d="M535.825 313.83C509.366 313.83 487.918 281.925 487.918 281.925C487.918 281.925 509.366 250.019 535.825 250.019C562.281 250.019 583.728 281.925 583.728 281.925C583.728 281.925 562.281 313.83 535.825 313.83Z" fill="#86D393"/>
<path d="M535.825 313.83C509.366 313.83 487.918 281.925 487.918 281.925C487.918 281.925 509.366 250.019 535.825 250.019C562.281 250.019 583.728 281.925 583.728 281.925C583.728 281.925 562.281 313.83 535.825 313.83Z" stroke="#040606" stroke-width="0.666667" stroke-miterlimit="10"/>
<path d="M535.655 305.907C522.426 305.907 511.702 295.183 511.702 281.954C511.702 268.726 522.426 258.002 535.655 258.002C548.883 258.002 559.607 268.726 559.607 281.954C559.607 295.183 548.883 305.907 535.655 305.907Z" fill="#040606"/>
<path d="M535.655 304.374C523.273 304.374 513.235 294.337 513.235 281.954C513.235 269.572 523.273 259.536 535.655 259.536C548.036 259.536 558.074 269.572 558.074 281.954C558.074 294.337 548.036 304.374 535.655 304.374Z" stroke="#F14659" stroke-width="4" stroke-miterlimit="10"/>
<path d="M483.915 243.958L497.046 257.089" stroke="#171717" stroke-width="0.666667" stroke-miterlimit="10"/>
<path d="M507.146 231.163L512.533 245.978" stroke="#171717" stroke-width="0.666667" stroke-miterlimit="10"/>
<path d="M531.388 225.776V239.918" stroke="#171717" stroke-width="0.666667" stroke-miterlimit="10"/>
<path d="M555.541 227.123L549.569 242.611" stroke="#171717" stroke-width="0.666667" stroke-miterlimit="10"/>
<path d="M577.851 240.254L568.76 252.375" stroke="#171717" stroke-width="0.666667" stroke-miterlimit="10"/>
<path d="M470.785 263.487L486.272 269.546" stroke="#171717" stroke-width="0.666667" stroke-miterlimit="10"/>
<path d="M574.146 258.099L588.962 246.652" stroke="#171717" stroke-width="0.666667" stroke-miterlimit="10"/>
<path d="M188.984 315.231L181.399 311.165L173.75 315.108L175.274 306.638L169.16 300.582L177.685 299.413L181.555 291.728L185.302 299.476L193.808 300.781L187.597 306.738L188.984 315.231Z" fill="#040606"/>
<path d="M406.849 106.033L398.873 101.758L390.829 105.903L392.431 96.9969L386.001 90.6269L394.967 89.3985L399.038 81.315L402.977 89.4635L411.922 90.8375L405.392 97.101L406.849 106.033Z" fill="#040606"/>
<path d="M360.093 307.675C361.493 311.735 362.44 315.782 362.901 320.965C363.364 326.156 363.226 331.484 364.862 336.433C367.745 345.164 375.753 351.537 378.335 360.363C378.838 362.082 379.115 363.96 378.507 365.646C376.906 370.085 370.896 370.392 366.176 370.46C359.237 370.56 352.318 371.873 345.826 374.321C342.159 375.704 337.911 377.416 334.551 375.4C331.258 373.422 329.399 368.183 325.623 368.885C324.571 369.082 323.676 369.759 322.673 370.132C318.86 371.549 314.674 367.978 313.871 363.99C313.029 359.815 314.631 350.143 316.489 346.104C317.668 343.542 319.71 341.483 321.178 339.07C325.287 332.318 324.417 324.112 326.679 316.787C328.813 309.874 329.88 300.747 334.841 295.157C338.47 291.066 344.428 288.779 349.617 290.511C351.327 291.083 352.928 292.087 354.008 293.532C355.009 294.872 355.515 296.507 356.184 298.038C357.735 301.58 359.042 304.632 360.093 307.675Z" fill="#040606"/>
<path d="M501.329 547.538C477.178 538.228 372.572 490.048 400.769 450.697C405.714 443.799 414.391 440.27 422.869 439.889C431.35 439.508 439.712 441.909 447.652 444.911C474.234 454.964 497.905 472.35 515.853 494.345C523.779 504.058 556.995 552.747 521.845 551.113C514.592 550.776 508.104 550.147 501.329 547.538Z" fill="white"/>
<path d="M501.329 547.538C477.178 538.228 372.572 490.048 400.769 450.697C405.714 443.799 414.391 440.27 422.869 439.889C431.35 439.508 439.712 441.909 447.652 444.911C474.234 454.964 497.905 472.35 515.853 494.345C523.779 504.058 556.995 552.747 521.845 551.113C514.592 550.776 508.104 550.147 501.329 547.538V547.538Z" stroke="#171717" stroke-width="0.666667" stroke-miterlimit="10"/>
<path d="M227.106 560.642C228.342 559.805 229.639 558.944 231.119 558.747C232.599 558.548 234.312 559.237 234.779 560.653C235.145 561.767 234.671 562.974 234.09 563.989C232.54 566.698 230.222 568.871 227.938 570.998C224.608 574.101 221.163 577.278 216.905 578.89C212.163 580.685 202.53 581.138 206.968 574.682C210.587 569.416 221.806 564.227 227.106 560.642Z" fill="white"/>
<path d="M227.106 560.642C228.342 559.805 229.639 558.944 231.119 558.747C232.599 558.548 234.312 559.237 234.779 560.653C235.145 561.767 234.671 562.974 234.09 563.989C232.54 566.698 230.222 568.871 227.938 570.998C224.608 574.101 221.163 577.278 216.905 578.89C212.163 580.685 202.53 581.138 206.968 574.682C210.587 569.416 221.806 564.227 227.106 560.642Z" stroke="#171717" stroke-width="0.666667" stroke-miterlimit="10"/>
<path d="M411.582 498.823C409.799 465.907 398.338 427.323 368.711 408.825C356.205 401.02 342.178 400.643 327.887 399.439C297.153 396.851 262.565 402.403 241.198 427.885C226.092 445.899 217.866 467.549 217.836 490.727C217.807 512.121 217.778 533.516 217.751 554.912C217.702 592.485 217.585 630.582 207.7 666.831C206.87 669.874 235.46 665.092 238.417 664.839C246.909 664.115 255.65 664.488 264.169 664.433C285.211 664.293 306.255 664.49 327.296 664.764C357.96 665.166 388.647 666.341 419.314 666.341C417.172 639.673 412.564 613.639 411.983 586.709C411.381 558.875 412.567 531.034 411.763 503.203C411.722 501.756 411.662 500.296 411.582 498.823Z" fill="#86D393"/>
<path d="M411.582 498.823C409.799 465.907 398.338 427.323 368.711 408.825C356.205 401.02 342.178 400.643 327.887 399.439C297.153 396.851 262.565 402.403 241.198 427.885C226.092 445.899 217.866 467.549 217.836 490.727C217.807 512.121 217.778 533.516 217.751 554.912C217.702 592.485 217.585 630.582 207.7 666.831C206.87 669.874 235.46 665.092 238.417 664.839C246.909 664.115 255.65 664.488 264.169 664.433C285.211 664.293 306.255 664.49 327.296 664.764C357.96 665.166 388.647 666.341 419.314 666.341C417.172 639.673 412.564 613.639 411.983 586.709C411.381 558.875 412.567 531.034 411.763 503.203C411.722 501.756 411.662 500.296 411.582 498.823V498.823Z" stroke="#040606" stroke-width="0.666667" stroke-miterlimit="10"/>
<path d="M284.294 406.336C280.403 408.879 278.533 410.076 274.643 412.62" stroke="#040606" stroke-width="0.666667" stroke-miterlimit="10"/>
<path d="M291.896 410.345C288.003 414.235 285.943 416.139 282.049 420.029" stroke="#040606" stroke-width="0.666667" stroke-miterlimit="10"/>
<path d="M298.515 417.426C294.519 421.739 293.614 422.847 290.579 427.885" stroke="#040606" stroke-width="0.666667" stroke-miterlimit="10"/>
<path d="M304.477 422.491C303.039 427.404 302.35 429.511 300.231 434.17" stroke="#040606" stroke-width="0.666667" stroke-miterlimit="10"/>
<path d="M314.467 426.994C314.005 432.979 313.938 433.347 313.474 439.331" stroke="#040606" stroke-width="0.666667" stroke-miterlimit="10"/>
<path d="M322.813 428.336C324.024 432.822 324.685 431.711 326.492 437.759" stroke="#040606" stroke-width="0.666667" stroke-miterlimit="10"/>
<path d="M330.942 422.555C335.439 425.686 334.79 425.201 339.287 428.333" stroke="#040606" stroke-width="0.666667" stroke-miterlimit="10"/>
<path d="M338.165 411.723C343.472 413.49 342.807 413.643 348.265 414.865" stroke="#040606" stroke-width="0.666667" stroke-miterlimit="10"/>
<path d="M341.308 405.874C346.338 406.411 347.496 406.12 352.305 407.684" stroke="#040606" stroke-width="0.666667" stroke-miterlimit="10"/>
<path d="M290 417.846C295.125 422.663 301.174 426.344 307.618 429.121C309.353 429.868 311.133 430.448 312.915 431.074C314.86 431.755 316.826 432.462 318.877 432.751C322.179 433.213 325.11 431.649 327.653 429.693C332.167 426.219 335.981 421.883 339.167 417.179C340.596 415.069 341.736 412.699 342.924 410.45C343.327 409.687 346.859 401.132 347.038 401.119C343.446 401.408 341.602 399.018 341.267 395.626C340.583 388.718 340.17 381.774 340.092 374.833C340.058 371.769 339.888 370.925 342.073 369.077C352.956 359.873 356.408 349.008 356.255 334.754C356.115 321.767 355.023 308.792 352.992 295.965C339.08 294.376 320.037 289.506 308.471 298.717C299.794 305.625 293.324 314.978 289.548 325.248C285.236 336.974 287.833 337.314 290.315 349.335C293.25 363.553 296.837 394.267 281.208 402.632C280.471 403.027 279.708 403.361 278.936 403.673C281.729 409.217 285.45 413.569 290 417.846Z" fill="white"/>
<path d="M290 417.846C295.125 422.663 301.174 426.344 307.618 429.121C309.353 429.868 311.133 430.448 312.915 431.074C314.86 431.755 316.826 432.462 318.877 432.751C322.179 433.213 325.11 431.649 327.653 429.693C332.167 426.219 335.981 421.883 339.167 417.179C340.596 415.069 341.736 412.699 342.924 410.45C343.327 409.687 346.859 401.132 347.038 401.119C343.446 401.408 341.602 399.018 341.267 395.626C340.583 388.718 340.17 381.774 340.092 374.833C340.058 371.769 339.888 370.925 342.073 369.077C352.956 359.873 356.408 349.008 356.255 334.754C356.115 321.767 355.023 308.792 352.992 295.965C339.08 294.376 320.037 289.506 308.471 298.717C299.794 305.625 293.324 314.978 289.548 325.248C285.236 336.974 287.833 337.314 290.315 349.335C293.25 363.553 296.837 394.267 281.208 402.632C280.471 403.027 279.708 403.361 278.936 403.673C281.729 409.217 285.45 413.569 290 417.846V417.846Z" stroke="#171717" stroke-width="0.666667" stroke-miterlimit="10"/>
<path d="M300.955 329.029C301.61 327.395 303.841 323.926 305.944 324.035C308.492 324.167 308.305 327.245 309.59 328.909C312.721 332.972 314.523 324.766 315.224 322.734C316.521 318.967 317.644 315.021 320.473 312.065C323.307 309.104 329.823 309.507 333.61 309.061C338.619 308.472 343.66 307.806 348.452 306.167C358.23 302.822 364.412 292.5 362.181 282.316C360.023 272.47 348.148 266.102 338.676 266.245C331.112 266.361 323.835 268.997 316.364 270.178C306.591 271.722 296.391 270.79 286.974 273.824C278.381 276.593 270.912 282.702 266.493 290.575C263.204 296.433 261.435 303.354 256.567 307.984C250.606 313.655 240.782 315.078 236.822 322.29C234.229 327.012 235.003 332.899 233.107 337.942C231.825 341.345 229.403 344.169 227.287 347.127C224.61 350.866 220.701 357.794 220.163 362.45C219.894 364.789 220.67 367.405 222.657 368.668C224.351 369.745 226.503 369.641 228.484 369.964C233.276 370.75 237.22 374.122 241.8 375.731C253.14 379.718 265.834 372.36 277.51 375.218C284.836 377.01 291.638 379.24 295.037 370.575C296.13 367.788 296.479 364.775 296.817 361.802C297.684 354.203 298.551 346.605 299.416 339.006C299.721 336.323 299.717 332.154 300.955 329.029Z" fill="#040606"/>
<path d="M300.525 345.033C300.486 345.033 300.45 345.037 300.411 345.036C293.01 344.91 287.205 338.723 286.542 331.967C285.864 325.056 292.208 319.664 299.112 319.781C302.778 319.843 305.423 321.51 307.246 323.994" fill="white"/>
<path d="M300.525 345.033C300.486 345.033 300.45 345.037 300.411 345.036C293.01 344.91 287.205 338.723 286.542 331.967C285.864 325.056 292.208 319.664 299.112 319.781C302.778 319.843 305.423 321.51 307.246 323.994" stroke="#171717" stroke-width="0.666667" stroke-miterlimit="10"/>
<path d="M339.748 377.144C339.742 375.443 339.906 373.692 340.525 372.094C340.818 370.878 341.331 369.759 342.185 368.902L342.194 368.781C335.079 374.014 323.29 372.394 321.106 369.637C325.512 376.979 332.468 379.93 340.021 381.165C339.878 379.829 339.754 378.49 339.748 377.144Z" fill="#040606"/>
<path d="M296.871 326.329C299.432 326.479 301.87 328.003 303.127 330.238C304.386 332.474 304.421 335.349 303.22 337.615" stroke="#171717" stroke-width="0.666667" stroke-miterlimit="10"/>
<path d="M404.157 511.832C431.341 520.894 433.614 523.077 443.391 523.875C456.36 500.464 467.992 476.301 481.85 453.389C442.274 423.87 402.585 409.871 354.464 402.737" fill="#86D393"/>
<path d="M404.157 511.832C431.341 520.894 433.614 523.077 443.391 523.875C456.36 500.464 467.992 476.301 481.85 453.389C442.274 423.87 402.585 409.871 354.464 402.737" stroke="#040606" stroke-width="0.666667" stroke-miterlimit="10"/>
<path d="M127.935 554.271C152.087 544.963 256.693 496.782 228.494 457.431C223.551 450.532 214.874 447.004 206.394 446.623C197.915 446.242 189.553 448.642 181.613 451.645C155.031 461.698 131.36 479.082 113.412 501.077C105.485 510.792 72.2693 559.481 107.42 557.846C114.672 557.51 121.16 556.881 127.935 554.271Z" fill="white"/>
<path d="M127.935 554.271C152.087 544.963 256.693 496.782 228.494 457.431C223.551 450.532 214.874 447.004 206.394 446.623C197.915 446.242 189.553 448.642 181.613 451.645C155.031 461.698 131.36 479.082 113.412 501.077C105.485 510.792 72.2693 559.481 107.42 557.846C114.672 557.51 121.16 556.881 127.935 554.271V554.271Z" stroke="#171717" stroke-width="0.666667" stroke-miterlimit="10"/>
<path d="M91.9324 541.91C85.702 573.555 125.084 583.178 148.391 590.21C166.182 595.577 186.557 596.773 202.287 607.249C204.797 608.92 207.199 610.784 209.911 612.103C224.416 619.159 243.031 618.875 258.642 616.766C260.875 616.871 262.549 614.656 262.266 612.548C261.947 610.167 259.853 609.103 257.659 609.454C250.635 610.577 243.528 610.983 236.421 611.051C236.816 609.881 237.156 608.692 237.448 607.488C239.461 607.527 241.479 607.493 243.472 607.438C247.124 607.339 250.782 606.993 254.407 606.561C258.327 606.092 262.449 605.708 266.266 604.662C268.285 604.108 269.528 601.91 268.973 599.894C268.358 597.655 266.288 596.903 264.206 597.187C260.651 597.673 257.149 598.534 253.586 599.014C250.019 599.495 246.433 599.769 242.845 600.042C241.493 600.145 240.14 600.207 238.788 600.262C238.911 599.417 239.032 598.572 239.149 597.729C239.305 596.616 239.451 595.495 239.581 594.374C241.818 594.379 244.054 594.335 246.284 594.247C250.567 594.078 254.848 593.814 259.12 593.453C261.256 593.271 263.39 593.079 265.519 592.8C267.935 592.483 270.576 592.466 272.705 591.11C275.306 589.454 274.886 585.019 271.847 584.186C269.613 583.574 267.419 584.171 265.182 584.483C263.101 584.771 261.024 585.097 258.944 585.391C254.736 585.985 250.513 586.472 246.284 586.871C244.136 587.075 241.987 587.262 239.837 587.451C239.833 587.41 239.836 587.371 239.833 587.332C239.707 585.777 239.482 584.459 239.142 583.32C240.582 583.175 242.021 583.028 243.46 582.88C247.692 582.44 251.928 582.064 256.17 581.753C258.398 581.589 260.627 581.442 262.857 581.312C263.918 581.251 264.983 581.219 266.044 581.139C267.946 580.993 269.012 580.385 270.087 578.807C273.021 574.497 265.949 573.196 263.336 573.4C248.174 574.584 233.184 574.573 218.079 574.333C216.042 574.301 214.002 574.263 211.96 574.226C210.662 574.199 209.327 574.196 208.125 573.707C207.246 573.351 206.488 572.754 205.745 572.165C194.808 563.51 173.126 546.787 162.188 538.131C151.982 530.053 153.667 529.242 142.368 522.483" fill="white"/>
<path d="M91.9324 541.91C85.702 573.555 125.084 583.178 148.391 590.21C166.182 595.577 186.557 596.773 202.287 607.249C204.797 608.92 207.199 610.784 209.911 612.103C224.416 619.159 243.031 618.875 258.642 616.766C260.875 616.871 262.549 614.656 262.266 612.548C261.947 610.167 259.853 609.103 257.659 609.454C250.635 610.577 243.528 610.983 236.421 611.051C236.816 609.881 237.156 608.692 237.448 607.488C239.461 607.527 241.479 607.493 243.472 607.438C247.124 607.339 250.782 606.993 254.407 606.561C258.327 606.092 262.449 605.708 266.266 604.662C268.285 604.108 269.528 601.91 268.973 599.894C268.358 597.655 266.288 596.903 264.206 597.187C260.651 597.673 257.149 598.534 253.586 599.014C250.019 599.495 246.433 599.769 242.845 600.042C241.493 600.145 240.14 600.207 238.788 600.262C238.911 599.417 239.032 598.572 239.149 597.729C239.305 596.616 239.451 595.495 239.581 594.374C241.818 594.379 244.054 594.335 246.284 594.247C250.567 594.078 254.848 593.814 259.12 593.453C261.256 593.271 263.39 593.079 265.519 592.8C267.935 592.483 270.576 592.466 272.705 591.11C275.306 589.454 274.886 585.019 271.847 584.186C269.613 583.574 267.419 584.171 265.182 584.483C263.101 584.771 261.024 585.097 258.944 585.391C254.736 585.985 250.513 586.472 246.284 586.871C244.136 587.075 241.987 587.262 239.837 587.451C239.833 587.41 239.836 587.371 239.833 587.332C239.707 585.777 239.482 584.459 239.142 583.32C240.582 583.175 242.021 583.028 243.46 582.88C247.692 582.44 251.928 582.064 256.17 581.753C258.398 581.589 260.627 581.442 262.857 581.312C263.918 581.251 264.983 581.219 266.044 581.139C267.946 580.993 269.012 580.385 270.087 578.807C273.021 574.497 265.949 573.196 263.336 573.4C248.174 574.584 233.184 574.573 218.079 574.333C216.042 574.301 214.002 574.263 211.96 574.226C210.662 574.199 209.327 574.196 208.125 573.707C207.246 573.351 206.488 572.754 205.745 572.165C194.808 563.51 173.126 546.787 162.188 538.131C151.982 530.053 153.667 529.242 142.368 522.483" stroke="#171717" stroke-width="0.666667" stroke-miterlimit="10"/>
<path d="M277.504 404.148C229.753 415.51 190.471 427.885 151.415 456.165C161.048 476.62 177.469 515.17 187.104 535.626C220.839 523.686 205.218 529.72 238.954 517.781" fill="#86D393"/>
<path d="M277.504 404.148C229.753 415.51 190.471 427.885 151.415 456.165C161.048 476.62 177.469 515.17 187.104 535.626C220.839 523.686 205.218 529.72 238.954 517.781" stroke="#040606" stroke-width="0.666667" stroke-miterlimit="10"/>
<path d="M330.063 347.183C331.27 351.68 336.157 354.315 340.812 354.243C347.031 354.149 349.892 351.12 351.506 346.281L330.063 347.183Z" fill="#F2596D"/>
<path d="M330.063 347.183C331.27 351.68 336.157 354.315 340.812 354.243C347.031 354.149 349.892 351.12 351.506 346.281L330.063 347.183Z" stroke="#040606" stroke-width="0.666667" stroke-miterlimit="10"/>
<path d="M527.847 550.924C531.692 551.272 535.761 548.518 537.127 544.907C556.789 492.978 554.096 454.819 553.146 406.211C553.116 404.625 552.7 403.019 553.104 401.485C553.455 400.149 554.258 398.984 554.974 397.803C557.591 393.49 558.477 389.129 559.631 384.325C560.524 380.609 563.32 380.05 564.649 376.245C566.73 370.285 566.794 360.637 561.236 356.433C559.664 355.243 557.619 354.921 555.669 354.635C551.52 354.029 547.37 353.422 543.219 352.815C541.661 352.589 540.069 352.349 538.667 351.632C534.979 349.744 535.71 344.035 535.99 340.675C536.412 335.6 537.655 331.73 535.922 326.717C535.38 325.148 534.412 323.426 532.765 323.203C531.284 323.002 529.907 324.201 529.357 325.593C528.807 326.982 528.876 328.528 528.883 330.023C528.902 334.832 527.697 339.461 527.488 344.214C527.223 350.221 528.021 355.696 527.247 361.674C525.816 372.741 526.327 383.93 524.39 394.885C522.397 406.163 518.469 417.013 513.828 427.449C501.008 456.282 479.596 485.467 489.164 518.673" fill="white"/>
<path d="M527.847 550.924C531.692 551.272 535.761 548.518 537.127 544.907C556.789 492.978 554.096 454.819 553.146 406.211C553.116 404.625 552.7 403.019 553.104 401.485C553.455 400.149 554.258 398.984 554.974 397.803C557.591 393.49 558.477 389.129 559.631 384.325C560.524 380.609 563.32 380.05 564.649 376.245C566.73 370.285 566.794 360.637 561.236 356.433C559.664 355.243 557.619 354.921 555.669 354.635C551.52 354.029 547.37 353.422 543.219 352.815C541.661 352.589 540.069 352.349 538.667 351.632C534.979 349.744 535.71 344.035 535.99 340.675C536.412 335.6 537.655 331.73 535.922 326.717C535.38 325.148 534.412 323.426 532.765 323.203C531.284 323.002 529.907 324.201 529.357 325.593C528.807 326.983 528.876 328.528 528.883 330.023C528.902 334.832 527.697 339.461 527.488 344.214C527.223 350.221 528.021 355.696 527.247 361.674C525.816 372.741 526.327 383.93 524.39 394.885C522.397 406.163 518.469 417.013 513.828 427.449C501.008 456.282 479.596 485.467 489.164 518.673" stroke="#171717" stroke-width="0.666667" stroke-miterlimit="10"/>
<path d="M270.413 406.16C279.078 418.475 290.134 429.733 304.151 435.733C315.821 440.727 328.063 440.681 336.941 430.819C342.862 424.239 347.524 415.938 351.612 408.162C352.564 406.354 353.514 404.544 354.465 402.737" stroke="#040606" stroke-width="0.666667" stroke-miterlimit="10"/>
<path d="M337.761 601.337C337.761 607.69 331.854 612.841 324.567 612.841C317.281 612.841 311.372 607.69 311.372 601.337C311.372 594.985 317.281 589.836 324.567 589.836C331.854 589.836 337.761 594.985 337.761 601.337Z" fill="#040606"/>
<path d="M363.288 530.969L324.567 531.206L285.847 530.969C294.956 547.063 301.998 562.966 301.337 578.595H324.381H324.753H347.796C347.135 562.966 354.177 547.063 363.288 530.969Z" fill="#F2596D"/>
<path d="M363.288 530.969L324.567 531.206L285.847 530.969C294.956 547.063 301.998 562.966 301.337 578.595H324.381H324.753H347.796C347.135 562.966 354.177 547.063 363.288 530.969Z" stroke="#040606" stroke-width="0.666667" stroke-miterlimit="10"/>
<path d="M365.841 519.718C365.841 540.881 347.361 558.034 324.567 558.034C301.771 558.034 283.292 540.881 283.292 519.718C283.292 498.558 301.771 481.404 324.567 481.404C347.361 481.404 365.841 498.558 365.841 519.718Z" fill="#F2596D"/>
<path d="M365.841 519.718C365.841 540.881 347.361 558.034 324.567 558.034C301.771 558.034 283.292 540.881 283.292 519.718C283.292 498.558 301.771 481.404 324.567 481.404C347.361 481.404 365.841 498.558 365.841 519.718V519.718Z" stroke="#040606" stroke-width="0.666667" stroke-miterlimit="10"/>
<path d="M325.541 488.838C323.875 479.616 327.535 469.621 334.762 463.653" stroke="#040606" stroke-width="0.666667" stroke-miterlimit="10"/>
<path d="M307.498 508.033C307.498 511.537 304.658 514.378 301.154 514.378C297.651 514.378 294.81 511.537 294.81 508.033C294.81 504.531 297.651 501.691 301.154 501.691C304.658 501.691 307.498 504.531 307.498 508.033Z" fill="#E981C6"/>
<path d="M307.498 508.033C307.498 511.537 304.658 514.378 301.154 514.378C297.651 514.378 294.81 511.537 294.81 508.033C294.81 504.531 297.651 501.691 301.154 501.691C304.658 501.691 307.498 504.531 307.498 508.033Z" stroke="#040606" stroke-width="0.666667" stroke-miterlimit="10"/>
<path d="M327.375 473.881C327.375 473.881 316.068 480.024 306.193 476.424C296.319 472.827 291.615 460.85 291.615 460.85C291.615 460.85 302.921 454.708 312.796 458.307C322.67 461.906 327.375 473.881 327.375 473.881Z" fill="#49B890"/>
<path d="M327.375 473.881C327.375 473.881 316.068 480.024 306.193 476.424C296.319 472.827 291.615 460.85 291.615 460.85C291.615 460.85 302.921 454.708 312.796 458.307C322.67 461.906 327.375 473.881 327.375 473.881Z" stroke="#040606" stroke-width="0.666667" stroke-miterlimit="10"/>
<path d="M327.375 473.881L301.459 464.66L327.375 473.881Z" fill="#49B890"/>
<path d="M327.375 473.881L301.459 464.66" stroke="#040606" stroke-width="0.666667" stroke-miterlimit="10"/>
<path d="M315.835 582.214C314.519 564.99 312.091 547.851 308.568 530.941C309.15 534.478 312.446 537.512 316.027 537.346C319.609 537.179 322.709 533.397 321.776 529.936C321.572 529.182 320.92 528.339 320.182 528.593C319.825 528.717 319.597 529.066 319.432 529.407C317.778 532.841 320.685 537.527 324.495 537.572C328.306 537.618 331.322 533.002 329.75 529.53C329.554 529.097 329.256 528.652 328.793 528.542C328.005 528.356 327.38 529.238 327.196 530.028C326.468 533.148 328.986 536.484 332.137 537.058C335.289 537.633 338.594 535.743 340.131 532.932C340.441 532.364 340.695 531.696 340.493 531.08C340.133 529.972 338.486 529.812 337.563 530.523C336.64 531.233 336.272 532.434 335.967 533.559C331.54 549.887 329.376 566.827 329.555 583.746" stroke="#040606" stroke-width="0.666667" stroke-miterlimit="10"/>
<path d="M346.558 604.043H302.576V580.606H346.558V604.043Z" fill="#526ABC"/>
<path d="M346.558 604.043H302.576V580.606H346.558V604.043Z" stroke="#040606" stroke-width="0.666667" stroke-miterlimit="10"/>
<path d="M350.109 581.039H299.025V577.994H350.109V581.039Z" fill="#040606"/>
<path d="M361.15 526.547C360.985 529.742 359.697 532.868 357.561 535.253" stroke="#040606" stroke-width="0.666667" stroke-miterlimit="10"/>
<path d="M354.307 539.493C351.001 544.636 345.927 548.618 340.146 550.606" stroke="#040606" stroke-width="0.666667" stroke-miterlimit="10"/>
<path d="M355.408 532.658C353.977 534.938 352.2 537.002 350.156 538.757" stroke="#040606" stroke-width="0.666667" stroke-miterlimit="10"/>
<path d="M346.41 560.947C344.007 569.898 344.488 578.473 344.11 588.505" stroke="#040606" stroke-width="0.666667" stroke-miterlimit="10"/>
<path d="M343.834 592.874V599.86" stroke="#040606" stroke-width="0.666667" stroke-miterlimit="10"/>
<path d="M217.702 524.914C217.022 524.619 216.646 525.712 216.714 526.449C217.301 532.907 217.086 541.297 217.742 547.746C218.713 544.758 220.52 539.833 221.491 536.845C222.499 533.743 223.645 530.442 226.256 528.487C228.383 526.894 231.13 526.469 233.709 525.829C236.289 525.192 239.015 524.133 240.36 521.839C240.748 521.175 241 520.362 240.734 519.641C240.096 517.919 237.563 518.337 235.884 519.077C234.855 518.375 235.219 518.733 234.061 519.186C229.073 521.133 222.69 522.967 217.702 524.914Z" fill="#040606"/>
<path d="M172.619 532.977C172.643 532.968 172.665 532.966 172.688 532.957C172.795 532.761 172.887 532.559 172.955 532.345C173.867 529.427 171.288 524.502 167.907 524.923C166.432 525.108 165.242 526.263 163.786 526.558C161.957 526.927 160.179 525.884 158.38 525.392C155.84 524.699 151.15 525.214 148.945 526.646C153.535 529.682 158.293 534.209 162.188 538.131C163.073 537.703 164.294 537.332 165.598 536.927C167.822 535.413 170.136 534.019 172.619 532.977Z" fill="#040606"/>
<path d="M488.749 478.953C488.038 480.815 487.204 482.716 485.71 484.037C484.624 484.995 483.266 485.581 482.083 486.415C479.83 488.002 478.211 490.785 478.769 493.485C479.066 494.911 479.916 496.153 480.759 497.34C481.818 498.827 483.454 500.486 485.161 499.847C486.294 499.425 486.838 498.152 487.144 496.983C488.262 492.677 487.779 488.08 488.87 483.768C489.95 479.489 492.944 475.255 492.54 470.717C490.147 471.501 489.599 476.724 488.749 478.953Z" fill="#040606"/>
<path d="M217.162 572.789C217.162 572.317 217.156 571.844 217.177 571.376C217.214 570.498 217.274 569.448 216.564 568.933C215.964 568.498 215.112 568.703 214.468 569.066C211.905 570.51 204.1 575.331 208.694 578.583C211.556 580.613 215.788 578.743 216.865 575.417C217.139 574.573 217.162 573.683 217.162 572.789Z" fill="white"/>
<path d="M559.251 386.844C559.601 386.651 559.697 384.034 559.841 383.553C560.143 382.555 560.654 381.632 561.279 380.803C560.609 381.187 559.828 381.589 559.021 381.719C557.915 381.896 556.69 381.585 555.953 380.74C555.205 379.882 555.073 378.661 555.03 377.524C554.519 378.166 554.403 379.029 554.083 379.785C553.051 382.225 550.662 383.076 548.283 381.996C544.926 380.471 545.178 377.749 544.587 374.617C544.166 376.227 543.551 377.858 542.346 379.006C539.078 382.119 536.258 379.15 535.731 375.744C535.565 374.669 535.44 373.582 535.487 372.496C535.543 371.211 535.835 369.948 535.978 368.67C536.111 367.491 536.115 366.302 536.117 365.115C536.119 364.663 536.119 364.195 535.952 363.774C535.786 363.353 535.41 362.981 534.958 362.956C534.281 363.346 534.171 364.261 534.14 365.043C533.911 370.722 532.717 377.242 533.637 382.867C534.041 385.326 535.722 388.48 538.356 389.089C540.773 389.645 543.126 387.443 545.579 387.799C546.358 387.912 547.08 388.28 547.851 388.441C548.673 388.612 549.522 388.544 550.358 388.475C551.249 388.402 552.141 388.329 553.032 388.255C555.082 388.086 557.192 387.903 559.027 386.972C559.107 386.932 559.176 386.887 559.251 386.844Z" fill="#040606"/>
<path d="M336.188 386.801C335.769 390.733 336.03 394.74 336.961 398.585L336.188 386.801Z" fill="white"/>
<path d="M336.188 386.801C335.769 390.733 336.03 394.74 336.961 398.585" stroke="#171717" stroke-width="0.666667" stroke-miterlimit="10"/>
<path d="M338.315 401.288C338.248 402.431 338.738 403.59 339.603 404.34L338.315 401.288Z" fill="white"/>
<path d="M338.315 401.288C338.248 402.431 338.738 403.59 339.603 404.34" stroke="#171717" stroke-width="0.666667" stroke-miterlimit="10"/>
<path d="M326.831 426.201C326.269 426.65 325.707 427.098 325.147 427.548L326.831 426.201Z" fill="white"/>
<path d="M326.831 426.201C326.269 426.65 325.707 427.098 325.147 427.548" stroke="#171717" stroke-width="0.666667" stroke-miterlimit="10"/>
<path d="M471.312 464.61C466.147 472.913 460.946 483.889 455.782 492.192" stroke="#171717" stroke-width="0.666667" stroke-miterlimit="10"/>
<path d="M453.414 496.564C451.94 499.487 450.258 502.307 448.38 504.99" stroke="#171717" stroke-width="0.666667" stroke-miterlimit="10"/>
<path d="M446.69 510.037C446.13 510.934 445.568 511.832 445.007 512.729" stroke="#171717" stroke-width="0.666667" stroke-miterlimit="10"/>
<path d="M523.782 546.442C525.667 546.927 527.709 546.784 529.507 546.038" stroke="#171717" stroke-width="0.666667" stroke-miterlimit="10"/>
<path d="M531.883 544.092C533.121 543.864 534.188 542.885 534.522 541.672" stroke="#171717" stroke-width="0.666667" stroke-miterlimit="10"/>
<path d="M545.918 504.019C543.877 515.371 540.658 526.513 536.329 537.203" stroke="#171717" stroke-width="0.666667" stroke-miterlimit="10"/>
<path d="M544.708 490.511C544.121 498.143 542.751 505.714 540.627 513.067" stroke="#171717" stroke-width="0.666667" stroke-miterlimit="10"/>
<path d="M404.269 540.002C404.269 549.765 404.269 559.529 404.269 569.293" stroke="#171717" stroke-width="0.666667" stroke-miterlimit="10"/>
<path d="M403.932 575.354C403.932 577.151 403.932 578.946 403.932 580.741" stroke="#171717" stroke-width="0.666667" stroke-miterlimit="10"/>
<path d="M403.844 588.156C404.31 593.766 404.775 599.377 405.24 604.986" stroke="#171717" stroke-width="0.666667" stroke-miterlimit="10"/>
<path d="M400.565 565.927C400.565 568.845 400.565 571.762 400.565 574.682" stroke="#171717" stroke-width="0.666667" stroke-miterlimit="10"/>
<path d="M399.89 580.741C399.639 584.789 399.867 588.867 400.565 592.862" stroke="#171717" stroke-width="0.666667" stroke-miterlimit="10"/>
<path d="M400.565 559.867C400.565 560.541 400.565 561.213 400.565 561.887" stroke="#171717" stroke-width="0.666667" stroke-miterlimit="10"/>
<path d="M332.554 600.27C334.798 600.27 337.043 600.27 339.287 600.27" stroke="#171717" stroke-width="0.666667" stroke-miterlimit="10"/>
<path d="M226.217 588.223C227.339 587.331 229.055 587.287 230.222 588.116" stroke="#171717" stroke-width="0.666667" stroke-miterlimit="10"/>
<path d="M226.145 599.048C228.165 599.273 230.186 599.495 232.206 599.72" stroke="#171717" stroke-width="0.666667" stroke-miterlimit="10"/>
<path d="M226.854 609.062C227.668 608.608 228.705 608.584 229.538 608.999" stroke="#171717" stroke-width="0.666667" stroke-miterlimit="10"/>
<path d="M137.141 484.934C129.053 490.647 122.014 497.839 116.476 506.048" stroke="#171717" stroke-width="0.666667" stroke-miterlimit="10"/>
<path d="M111.562 511.982C109.779 514.908 107.996 517.833 106.213 520.759" stroke="#171717" stroke-width="0.666667" stroke-miterlimit="10"/>
<path d="M311.658 426.57C313.455 427.691 315.251 428.81 317.048 429.932L311.658 426.57Z" fill="white"/>
<path d="M311.658 426.57C313.455 427.691 315.251 428.81 317.048 429.932" stroke="#171717" stroke-width="0.666667" stroke-miterlimit="10"/>
<path d="M310.391 359.808C312.634 361.828 314.879 363.849 317.123 365.869L310.391 359.808Z" fill="white"/>
<path d="M310.391 359.808C312.634 361.828 314.879 363.849 317.123 365.869" stroke="#171717" stroke-width="0.666667" stroke-miterlimit="10"/>
<path d="M205.284 335.968C205.284 342.104 200.311 347.078 194.175 347.078C188.039 347.078 183.063 342.104 183.063 335.968C183.063 329.832 188.039 324.857 194.175 324.857C200.311 324.857 205.284 329.832 205.284 335.968Z" fill="#F2596D"/>
<path d="M205.284 335.968C205.284 342.104 200.311 347.078 194.175 347.078C188.039 347.078 183.063 342.104 183.063 335.968C183.063 329.832 188.039 324.857 194.175 324.857C200.311 324.857 205.284 329.832 205.284 335.968Z" stroke="#040606" stroke-width="0.666667" stroke-miterlimit="10"/>
<path d="M202.323 332.06C203.481 334.515 203.044 337.64 201.257 339.682L202.323 332.06Z" fill="#F2596D"/>
<path d="M202.323 332.06C203.481 334.515 203.044 337.64 201.257 339.682" stroke="#040606" stroke-width="0.666667" stroke-miterlimit="10"/>
<path d="M199.484 341.26C199.042 342.108 198.154 342.705 197.202 342.793L199.484 341.26Z" fill="#F2596D"/>
<path d="M199.484 341.26C199.042 342.108 198.154 342.705 197.202 342.793" stroke="#040606" stroke-width="0.666667" stroke-miterlimit="10"/>
</g>
<defs>
<filter id="filter0_d" x="48.4717" y="76.3151" width="555.694" height="606.859" filterUnits="userSpaceOnUse" color-interpolation-filters="sRGB">
<feFlood flood-opacity="0" result="BackgroundImageFix"/>
<feColorMatrix in="SourceAlpha" type="matrix" values="0 0 0 0 0 0 0 0 0 0 0 0 0 0 0 0 0 0 127 0" result="hardAlpha"/>
<feOffset dx="5" dy="5"/>
<feGaussianBlur stdDeviation="5"/>
<feColorMatrix type="matrix" values="0 0 0 0 0 0 0 0 0 0 0 0 0 0 0 0 0 0 0.25 0"/>
<feBlend mode="normal" in2="BackgroundImageFix" result="effect1_dropShadow"/>
<feBlend mode="normal" in="SourceGraphic" in2="effect1_dropShadow" result="shape"/>
</filter>
</defs>
</svg>
