<svg width="60" height="60" viewBox="0 0 60 60" fill="none" xmlns="http://www.w3.org/2000/svg">
<path d="M0 0V60H60V0H0ZM43.7652 33.4345L48.976 39.4219C49.6421 40.1874 49.0984 41.3814 48.0837 41.3814H42.2033C41.2741 41.3814 40.379 41.0296 39.6986 40.3968L37.9572 38.7776C35.992 37.0582 35.1568 36.4685 34.3708 36.4685C33.5848 36.4685 33.3882 37.0579 33.3882 38.581C33.3882 40.1038 33.0935 41.3814 28.5737 41.3814C24.054 41.3814 20.5168 37.9916 16.5375 32.735C12.5582 27.4784 10.7896 21.8287 10.7896 21.8287C10.57 21.1215 11.0987 20.404 11.8392 20.404H16.5449C17.4399 20.404 18.2551 20.9213 18.6305 21.7337C19.0157 22.5677 19.6783 23.8547 20.8117 25.7588C22.4201 28.4607 23.9652 29.678 24.8405 30.1962C25.1663 30.3893 25.5773 30.1507 25.5773 29.7719V23.2909C25.5773 22.4429 25.2709 21.6235 24.7144 20.9836L24.051 20.2208C23.8794 20.0235 24.0196 19.7162 24.2809 19.7162H31.718C32.8576 19.7162 33.7814 20.6399 33.7814 21.7795V29.3165C33.7814 29.8021 34.4116 29.992 34.6799 29.5875L40.0326 21.5204C40.4547 20.8844 41.1673 20.5019 41.9303 20.5019H48.2137C49.0724 20.5019 49.5946 21.4477 49.1375 22.1746L43.5775 31.0116C43.0991 31.7724 43.1752 32.7565 43.7652 33.4345Z" fill="#3E454F"/>
</svg>
